<svg width="46" height="45" viewBox="0 0 46 45" fill="none" xmlns="http://www.w3.org/2000/svg">
<path fill-rule="evenodd" clip-rule="evenodd" d="M28.4238 18.7193C29.8623 17.2808 30.6704 15.3298 30.6704 13.2955C30.6704 11.2611 29.8623 9.31011 28.4238 7.87162C26.9853 6.43314 25.0343 5.625 22.9999 5.625C20.9656 5.625 19.0146 6.43314 17.5761 7.87162C16.1376 9.31011 15.3295 11.2611 15.3295 13.2955C15.3295 15.3298 16.1376 17.2808 17.5761 18.7193C19.0146 20.1578 20.9656 20.9659 22.9999 20.9659C25.0343 20.9659 26.9853 20.1578 28.4238 18.7193ZM29.6196 25.4148C30.8898 24.7199 32.5144 24.6631 33.4594 25.76C35.6231 28.2637 36.8116 31.4636 36.8068 34.7728V36.3068C36.8068 37.1206 36.4835 37.901 35.9081 38.4764C35.3327 39.0518 34.5523 39.375 33.7386 39.375H12.2613C11.4476 39.375 10.6672 39.0518 10.0918 38.4764C9.51638 37.901 9.19313 37.1206 9.19313 36.3068V34.7728C9.18831 31.4636 10.3768 28.2637 12.5405 25.76C13.4855 24.6631 15.1101 24.7199 16.3803 25.4148C18.4097 26.5254 20.6866 27.1058 22.9999 27.1023C25.3133 27.1058 27.5902 26.5254 29.6196 25.4148Z" fill="#793592"/>
</svg>
