<svg width="40" height="40" viewBox="0 0 40 40" fill="none" xmlns="http://www.w3.org/2000/svg">
<g clip-path="url(#clip0_2331_4382)">
<g clip-path="url(#clip1_2331_4382)">
<path d="M0 7H40V33H0V7Z" fill="white"/>
<path d="M16.1299 26.2902H23.8699V13.7002H16.1299V26.2802V26.2902Z" fill="#F06022"/>
<path d="M16.9297 20.0001C16.9261 18.7866 17.201 17.5885 17.7332 16.498C18.2655 15.4075 19.0409 14.4537 19.9997 13.7101C18.4538 12.4933 16.5146 11.8872 14.5509 12.0071C12.5873 12.1269 10.7362 12.9644 9.34972 14.3601C8.60713 15.0996 8.01791 15.9786 7.61585 16.9464C7.2138 17.9143 7.00684 18.952 7.00684 20.0001C7.00684 21.0481 7.2138 22.0858 7.61585 23.0537C8.01791 24.0216 8.60713 24.9005 9.34972 25.6401C10.7362 27.0358 12.5873 27.8732 14.5509 27.993C16.5146 28.1129 18.4538 27.5068 19.9997 26.2901C19.0459 25.5418 18.2741 24.5871 17.7423 23.4976C17.2106 22.4082 16.9328 21.2124 16.9297 20.0001Z" fill="#EA1D25"/>
<path d="M33 20.0001C33 22.1201 32.16 24.1501 30.66 25.6501C29.263 27.0314 27.4115 27.8579 25.4504 27.9756C23.4893 28.0934 21.5523 27.4943 20 26.2901C20.9522 25.5404 21.7228 24.5853 22.2544 23.4962C22.786 22.4071 23.0648 21.212 23.07 20.0001C23.0714 18.787 22.7955 17.5897 22.2634 16.4996C21.7314 15.4094 20.9572 14.4553 20 13.7101C21.5454 12.4893 23.4861 11.8798 25.452 11.9978C27.4179 12.1159 29.2717 12.9531 30.66 14.3501C31.4046 15.0901 31.9949 15.9706 32.3965 16.9405C32.7982 17.9103 33.0033 18.9503 33 20.0001Z" fill="#F79D1D"/>
</g>
</g>
<defs>
<clipPath id="clip0_2331_4382">
<rect width="40" height="40" fill="white"/>
</clipPath>
<clipPath id="clip1_2331_4382">
<rect width="40" height="26" fill="white" transform="translate(0 7)"/>
</clipPath>
</defs>
</svg>
