<svg width="46" height="45" viewBox="0 0 46 45" fill="none" xmlns="http://www.w3.org/2000/svg">
<path opacity="0.3" d="M9.875 18.75H36.125C38.1875 18.75 39.875 20.4375 39.875 22.5V39.375H6.125V22.5C6.125 20.4375 7.8125 18.75 9.875 18.75ZM21.125 13.125H24.875V18.75H21.125V13.125Z" fill="#793592"/>
<path d="M6.125 31.875H39.875V35.625H6.125V31.875ZM6.125 24.375H39.875V28.125H6.125V24.375ZM23 11.25C25.0625 11.25 26.75 9.5625 26.75 7.5C26.75 6.1125 25.4937 4.2375 23 1.875C20.5063 4.2375 19.25 6.1125 19.25 7.5C19.25 9.5625 20.9375 11.25 23 11.25Z" fill="#793592"/>
</svg>
