<svg width="24" height="24" viewBox="0 0 24 24" fill="none" xmlns="http://www.w3.org/2000/svg">
<path fill-rule="evenodd" clip-rule="evenodd" d="M19.1824 4.91249L11.9987 4.75L4.81493 4.91249C3.48377 4.9426 2.35667 5.90322 2.11598 7.21278C1.53426 10.3779 1.53426 13.6225 2.11598 16.7876C2.35667 18.0972 3.48377 19.0578 4.81493 19.0879L11.9987 19.2504L19.1824 19.0879C20.5135 19.0578 21.6406 18.0972 21.8813 16.7876C22.463 13.6225 22.463 10.3779 21.8813 7.21278C21.6406 5.90322 20.5135 4.9426 19.1824 4.91249ZM4.84885 6.41211L11.9987 6.25038L19.1485 6.41211C19.7687 6.42613 20.2939 6.87374 20.406 7.48393C20.5593 8.31792 20.6698 9.15776 20.7374 10.0002H3.25987C3.32752 9.15776 3.43799 8.31792 3.59127 7.48393C3.70342 6.87374 4.22859 6.42613 4.84885 6.41211ZM3.17969 12.0002C3.17969 13.5119 3.31688 15.0235 3.59127 16.5165C3.70342 17.1266 4.22859 17.5742 4.84885 17.5883L11.9987 17.75L19.1485 17.5883C19.7687 17.5742 20.2939 17.1266 20.406 16.5165C20.6804 15.0235 20.8176 13.5119 20.8176 12.0002H3.17969Z" fill="black"/>
</svg>
