<svg width="33" height="33" viewBox="0 0 33 33" fill="none" xmlns="http://www.w3.org/2000/svg">
<path d="M12.3766 4.46875C8.01009 4.46875 4.47034 8.0085 4.47034 12.375V22.1469C4.47034 22.7165 4.93204 23.1782 5.50159 23.1782C6.07113 23.1782 6.53284 22.7165 6.53284 22.1469V12.375C6.53284 9.14759 9.14917 6.53125 12.3766 6.53125H22.0193C22.5888 6.53125 23.0505 6.06954 23.0505 5.5C23.0505 4.93046 22.5888 4.46875 22.0193 4.46875H12.3766Z" fill="black"/>
<path fill-rule="evenodd" clip-rule="evenodd" d="M25.3051 9.34073C20.8488 8.84267 16.2794 8.84267 11.8231 9.34073C10.5536 9.48262 9.53345 10.4817 9.38382 11.761C8.8553 16.2799 8.85529 20.8451 9.38382 25.364C9.53345 26.6433 10.5536 27.6424 11.8231 27.7843C16.2794 28.2823 20.8488 28.2823 25.3051 27.7843C26.5746 27.6424 27.5948 26.6433 27.7444 25.364C28.2729 20.8451 28.2729 16.2799 27.7444 11.761C27.5948 10.4817 26.5746 9.48262 25.3051 9.34073ZM12.0522 11.3905C16.3563 10.9094 20.772 10.9094 25.076 11.3905C25.4024 11.4269 25.6589 11.685 25.6959 12.0006C26.2058 16.3603 26.2058 20.7646 25.6959 25.1244C25.6589 25.44 25.4024 25.6981 25.076 25.7345C20.772 26.2156 16.3563 26.2156 12.0522 25.7345C11.7258 25.6981 11.4693 25.44 11.4324 25.1244C10.9224 20.7646 10.9224 16.3603 11.4324 12.0006C11.4693 11.685 11.7258 11.4269 12.0522 11.3905Z" fill="black"/>
</svg>
