<svg width="46" height="45" viewBox="0 0 46 45" fill="none" xmlns="http://www.w3.org/2000/svg">
<path opacity="0.3" d="M23 39.375C32.375 39.375 39.875 31.875 39.875 22.5C39.875 13.125 32.375 5.625 23 5.625C13.625 5.625 6.125 13.125 6.125 22.5C6.125 31.875 13.625 39.375 23 39.375Z" fill="#793592"/>
<path fill-rule="evenodd" clip-rule="evenodd" d="M23.1876 28.125L26.0001 29.625C26.7501 30.1875 27.8751 29.8125 28.2501 28.875C28.4376 28.5 28.4376 28.125 28.4376 27.75L27.6876 24.5625L30.1251 22.3125C30.8751 21.5625 30.8751 20.625 30.1251 19.875C29.9376 19.6875 29.5626 19.5 29.1876 19.3125L25.8126 18.75L24.3126 15.75C23.9376 15 23.0001 14.625 22.0626 15C21.6876 15 19.8126 18.5625 19.8126 18.5625L16.6251 19.125C15.6876 19.3125 14.9376 20.0625 15.1251 21C15.1251 21.375 15.3126 21.75 15.6876 21.9375L18.1251 24.1875L17.3751 27.375C17.3751 28.3125 17.9376 29.0625 18.8751 29.4375C19.2501 29.4375 19.6251 29.4375 20.0001 29.25L23.1876 28.125Z" fill="#793592"/>
</svg>
