<svg width="46" height="46" viewBox="0 0 46 46" fill="none" xmlns="http://www.w3.org/2000/svg">
<path opacity="0.3" fill-rule="evenodd" clip-rule="evenodd" d="M39.2121 27.4129C39.3879 27.5887 39.6264 27.6875 39.875 27.6875C40.1236 27.6875 40.3621 27.5887 40.5379 27.4129C40.7137 27.2371 40.8125 26.9986 40.8125 26.75V13.625C40.8125 12.8791 40.5162 12.1637 39.9887 11.6363C39.4613 11.1088 38.7459 10.8125 38 10.8125H13.625C13.3764 10.8125 13.1379 10.9113 12.9621 11.0871C12.7863 11.2629 12.6875 11.5014 12.6875 11.75C12.6875 11.9986 12.7863 12.2371 12.9621 12.4129C13.1379 12.5887 13.3764 12.6875 13.625 12.6875H38C38.2486 12.6875 38.4871 12.7863 38.6629 12.9621C38.8387 13.1379 38.9375 13.3764 38.9375 13.625V26.75C38.9375 26.9986 39.0363 27.2371 39.2121 27.4129ZM8 18.3125H30.5C32.0533 18.3125 33.3125 19.5717 33.3125 21.125V32.375C33.3125 33.9283 32.0533 35.1875 30.5 35.1875H8C6.4467 35.1875 5.1875 33.9283 5.1875 32.375V21.125C5.1875 19.5717 6.4467 18.3125 8 18.3125Z" fill="#793592"/>
<path fill-rule="evenodd" clip-rule="evenodd" d="M35.4621 31.1629C35.6379 31.3387 35.8764 31.4375 36.125 31.4375C36.3736 31.4375 36.6121 31.3387 36.7879 31.1629C36.9637 30.9871 37.0625 30.7486 37.0625 30.5V17.375C37.0625 16.6291 36.7662 15.9137 36.2387 15.3863C35.7113 14.8588 34.9959 14.5625 34.25 14.5625H9.875C9.62636 14.5625 9.3879 14.6613 9.21209 14.8371C9.03627 15.0129 8.9375 15.2514 8.9375 15.5C8.9375 15.7486 9.03627 15.9871 9.21209 16.1629C9.3879 16.3387 9.62636 16.4375 9.875 16.4375H34.25C34.4986 16.4375 34.7371 16.5363 34.9129 16.7121C35.0887 16.8879 35.1875 17.1264 35.1875 17.375V30.5C35.1875 30.7486 35.2863 30.9871 35.4621 31.1629ZM23.9375 26.75C23.9375 29.3388 21.8388 31.4375 19.25 31.4375C16.6612 31.4375 14.5625 29.3388 14.5625 26.75C14.5625 24.1612 16.6612 22.0625 19.25 22.0625C21.8388 22.0625 23.9375 24.1612 23.9375 26.75Z" fill="#793592"/>
</svg>
