<svg width="46" height="46" viewBox="0 0 46 46" fill="none" xmlns="http://www.w3.org/2000/svg">
<path opacity="0.3" d="M38.75 8.37048C38.75 7.77375 38.513 7.20145 38.091 6.77949C37.669 6.35754 37.0968 6.12048 36.5 6.12048H23.5625C22.8774 6.12048 22.028 6.27348 21.2439 7.05648L3.40702 24.8945C2.52952 25.7731 2.51377 27.5 3.39127 28.3786L16.5166 41.5017C17.3941 42.3804 19.1323 42.3072 20.0109 41.4286L37.895 23.5445C38.3135 23.126 38.75 22.397 38.75 21.308V8.37048Z" fill="#793592"/>
<path fill-rule="evenodd" clip-rule="evenodd" d="M34.2499 13.9955C34.2499 15.8594 32.7389 17.3705 30.8749 17.3705C29.011 17.3705 27.4999 15.8594 27.4999 13.9955C27.4999 12.1315 29.011 10.6205 30.8749 10.6205C32.7389 10.6205 34.2499 12.1315 34.2499 13.9955ZM17.6864 19.95C17.8974 19.739 18.1836 19.6205 18.4819 19.6205C18.7803 19.6205 19.0665 19.739 19.2774 19.95C19.4884 20.161 19.6069 20.4471 19.6069 20.7455V31.9955C19.6069 32.2939 19.4884 32.58 19.2774 32.791C19.0665 33.002 18.7803 33.1205 18.4819 33.1205C18.1836 33.1205 17.8974 33.002 17.6864 32.791C17.4755 32.58 17.3569 32.2939 17.3569 31.9955V20.7455C17.3569 20.4471 17.4755 20.161 17.6864 19.95ZM13.4194 25.2455C14.3514 25.2455 15.1069 24.49 15.1069 23.558C15.1069 22.626 14.3514 21.8705 13.4194 21.8705C12.4875 21.8705 11.7319 22.626 11.7319 23.558C11.7319 24.49 12.4875 25.2455 13.4194 25.2455ZM25.232 28.058C25.232 28.99 24.4765 29.7455 23.5445 29.7455C22.6125 29.7455 21.857 28.99 21.857 28.058C21.857 27.126 22.6125 26.3705 23.5445 26.3705C24.4765 26.3705 25.232 27.126 25.232 28.058Z" fill="#793592"/>
</svg>
