<svg width="26" height="24" viewBox="0 0 26 24" fill="none" xmlns="http://www.w3.org/2000/svg">
<g clip-path="url(#clip0_2331_4457)">
<g clip-path="url(#clip1_2331_4457)">
<g clip-path="url(#clip2_2331_4457)">
<path d="M18.3332 17.9949C20.9842 17.9949 23.1332 15.7116 23.1332 12.8949C23.1332 10.0783 20.9842 7.79492 18.3332 7.79492C15.6822 7.79492 13.5332 10.0783 13.5332 12.8949C13.5332 15.7116 15.6822 17.9949 18.3332 17.9949Z" fill="white"/>
<path d="M20.6422 17.515C20.8374 17.822 20.7479 18.2321 20.4243 18.3984C19.0553 19.1022 17.4906 19.3513 15.9603 19.0988C14.2126 18.8104 12.6325 17.8879 11.5223 16.5076C10.4121 15.1274 9.84965 13.3863 9.94253 11.6174C10.0354 9.84848 10.7771 8.17588 12.0258 6.91948C13.2744 5.66309 14.9424 4.91109 16.7108 4.8073C18.4791 4.70352 20.2236 5.25524 21.6107 6.35694C22.9977 7.45864 23.93 9.033 24.2292 10.7789C24.4911 12.3075 24.2516 13.8737 23.5563 15.2471C23.3919 15.5717 22.9824 15.6637 22.6742 15.4704C22.366 15.2771 22.2766 14.8718 22.4342 14.5439C22.9611 13.4482 23.1378 12.2104 22.9307 11.0014C22.6862 9.57496 21.9246 8.28867 20.7913 7.38855C19.658 6.48843 18.2327 6.03766 16.7879 6.12246C15.3432 6.20725 13.9804 6.82165 12.9602 7.84816C11.94 8.87467 11.334 10.2412 11.2581 11.6865C11.1822 13.1317 11.6418 14.5542 12.5489 15.6819C13.4559 16.8096 14.7469 17.5634 16.1748 17.799C17.3851 17.9987 18.6218 17.8143 19.7143 17.2807C20.0412 17.1211 20.447 17.208 20.6422 17.515Z" fill="#224144" stroke="#224144" stroke-width="0.5"/>
<path d="M1.33301 11.5957H6.53301" stroke="#224144" stroke-width="2" stroke-linecap="round" stroke-linejoin="round"/>
<path d="M2.5332 8.5957H7.7332" stroke="#224144" stroke-width="2" stroke-linecap="round" stroke-linejoin="round"/>
<path d="M2.5332 14.5957H7.7332" stroke="#224144" stroke-width="2" stroke-linecap="round" stroke-linejoin="round"/>
<path d="M17.1328 7.79492V12.2695L19.5329 13.7949" stroke="#224144" stroke-width="2" stroke-linecap="round" stroke-linejoin="round"/>
</g>
</g>
</g>
<defs>
<clipPath id="clip0_2331_4457">
<rect width="25" height="24" fill="white" transform="translate(0.333008 -0.00488281)"/>
</clipPath>
<clipPath id="clip1_2331_4457">
<rect width="25" height="24" fill="white" transform="translate(0.333008 -0.00488281)"/>
</clipPath>
<clipPath id="clip2_2331_4457">
<rect width="25" height="24" fill="white" transform="translate(0.333008 -0.00488281)"/>
</clipPath>
</defs>
</svg>
