<svg width="46" height="46" viewBox="0 0 46 46" fill="none" xmlns="http://www.w3.org/2000/svg">
<path opacity="0.3" fill-rule="evenodd" clip-rule="evenodd" d="M18.5225 16.6531C19.1054 18.5773 20.3253 20.2462 21.9818 21.3856H3.62183V14.1181C3.62331 13.0479 4.0491 12.022 4.80584 11.2653C5.56258 10.5085 6.58851 10.0827 7.6587 10.0812H26.2287V17.1387C25.0904 15.4819 23.422 14.2619 21.4981 13.6794C21.0269 13.5465 20.5265 13.5602 20.0633 13.7186C19.6001 13.877 19.1961 14.1727 18.905 14.5662C18.6821 14.8598 18.5314 15.2016 18.4649 15.5641C18.3985 15.9266 18.4182 16.2996 18.5225 16.6531ZM33.5988 15.2887C33.7084 15.3473 33.803 15.4305 33.8749 15.5319C33.9476 15.6239 33.9971 15.7321 34.0193 15.8473C34.0415 15.9624 34.0357 16.0813 34.0024 16.1937C33.5924 17.5502 32.7968 18.7582 31.7125 19.6707C30.6283 20.5831 29.3022 21.1607 27.8956 21.3331C28.0688 19.9265 28.6469 18.6006 29.5596 17.5165C30.4724 16.4323 31.6804 15.6367 33.0368 15.2262C33.1038 15.2063 33.1732 15.1956 33.2431 15.1944C33.3673 15.1978 33.4891 15.2301 33.5988 15.2887ZM32.5756 13.6775C30.6518 14.2613 28.9836 15.4819 27.8449 17.1387V10.0812H38.3412C39.4114 10.0827 40.4373 10.5085 41.1941 11.2653C41.9508 12.022 42.3766 13.0479 42.3781 14.1181V21.3837H32.0899C33.7463 20.245 34.9663 18.5768 35.5493 16.6531C35.7631 15.9369 35.6243 15.1756 35.1687 14.5644C34.8772 14.1712 34.4732 13.8758 34.0101 13.7175C33.547 13.5591 33.0468 13.5451 32.5756 13.6775ZM20.8324 15.1962C20.9022 15.1969 20.9716 15.207 21.0387 15.2262C22.3948 15.6366 23.6024 16.4324 24.5145 17.5166C25.4266 18.6008 26.0039 19.9268 26.1762 21.3331C24.7702 21.1597 23.4448 20.5817 22.3611 19.6694C21.2773 18.757 20.4818 17.5496 20.0712 16.1937C20.0384 16.0812 20.0329 15.9625 20.0551 15.8474C20.0772 15.7323 20.1265 15.6242 20.1987 15.5319C20.2713 15.4308 20.3663 15.3479 20.4762 15.2897C20.5862 15.2315 20.7081 15.1995 20.8324 15.1962Z" fill="#793592"/>
<path d="M26.2287 24.1419L22.7637 27.6069C22.6888 27.682 22.5999 27.7416 22.502 27.7823C22.4041 27.8231 22.2992 27.8441 22.1932 27.8443C22.0871 27.8445 21.9821 27.8238 21.8841 27.7833C21.786 27.7429 21.6969 27.6836 21.6218 27.6087C21.5467 27.5339 21.4871 27.445 21.4464 27.3471C21.4056 27.2492 21.3846 27.1442 21.3844 27.0382C21.3842 26.9322 21.4049 26.8271 21.4454 26.7291C21.4858 26.6311 21.5451 26.542 21.6199 26.4669L25.0906 23H3.62183V31.8819C3.62183 34.1075 5.43308 35.9187 7.6587 35.9187H26.2287V24.1419ZM9.27495 26.2287H15.7324C15.9468 26.2287 16.1523 26.3139 16.3039 26.4654C16.4554 26.617 16.5406 26.8225 16.5406 27.0369C16.5406 27.2512 16.4554 27.4568 16.3039 27.6083C16.1523 27.7599 15.9468 27.845 15.7324 27.845H9.27495C9.06062 27.845 8.85507 27.7599 8.70352 27.6083C8.55197 27.4568 8.46683 27.2512 8.46683 27.0369C8.46683 26.8225 8.55197 26.617 8.70352 26.4654C8.85507 26.3139 9.06062 26.2287 9.27495 26.2287ZM20.5774 31.0737H9.27495C9.06087 31.0737 8.85556 30.9887 8.70418 30.8373C8.55281 30.686 8.46776 30.4806 8.46776 30.2666C8.46776 30.0525 8.55281 29.8472 8.70418 29.6958C8.85556 29.5444 9.06087 29.4594 9.27495 29.4594H20.5774C20.7915 29.4594 20.9968 29.5444 21.1482 29.6958C21.2996 29.8472 21.3846 30.0525 21.3846 30.2666C21.3846 30.4806 21.2996 30.686 21.1482 30.8373C20.9968 30.9887 20.7915 31.0737 20.5774 31.0737ZM28.9868 23L32.4518 26.465C32.6035 26.6167 32.6887 26.8224 32.6887 27.0369C32.6887 27.2514 32.6035 27.4571 32.4518 27.6087C32.3002 27.7604 32.0944 27.8456 31.8799 27.8456C31.6655 27.8456 31.4597 27.7604 31.3081 27.6087L27.8449 24.14V35.9187H38.3412C39.4114 35.9173 40.4373 35.4915 41.1941 34.7347C41.9508 33.978 42.3766 32.9521 42.3781 31.8819V23H28.9868Z" fill="#793592"/>
</svg>
