<svg width="45" height="45" viewBox="0 0 45 45" fill="none" xmlns="http://www.w3.org/2000/svg">
<circle cx="22.5" cy="22.5" r="22.5" fill="#E5E5E5"/>
<path d="M15.51 16.5C14.96 16.5 14.51 16.05 14.51 15.5C14.51 14.95 14.95 14.5 15.51 14.5H15.52C16.07 14.5 16.52 14.95 16.52 15.5C16.52 16.05 16.07 16.5 15.51 16.5Z" fill="#292D32"/>
<path d="M28.51 29.5C27.96 29.5 27.51 29.05 27.51 28.5C27.51 27.95 27.95 27.5 28.51 27.5H28.52C29.07 27.5 29.52 27.95 29.52 28.5C29.52 29.05 29.07 29.5 28.51 29.5Z" fill="#292D32"/>
<path d="M15.47 19.75C13.13 19.75 11.22 17.84 11.22 15.5C11.22 13.16 13.13 11.25 15.47 11.25C17.81 11.25 19.72 13.16 19.72 15.5C19.72 17.84 17.82 19.75 15.47 19.75ZM15.47 12.75C13.95 12.75 12.72 13.98 12.72 15.5C12.72 17.02 13.95 18.25 15.47 18.25C16.99 18.25 18.22 17.02 18.22 15.5C18.22 13.98 16.99 12.75 15.47 12.75Z" fill="#292D32"/>
<path d="M29.97 32.75H26.97C25.45 32.75 24.22 31.52 24.22 30V27C24.22 25.48 25.45 24.25 26.97 24.25H29.97C31.49 24.25 32.72 25.48 32.72 27V30C32.72 31.52 31.49 32.75 29.97 32.75ZM26.97 25.75C26.28 25.75 25.72 26.31 25.72 27V30C25.72 30.69 26.28 31.25 26.97 31.25H29.97C30.66 31.25 31.22 30.69 31.22 30V27C31.22 26.31 30.66 25.75 29.97 25.75H26.97Z" fill="#292D32"/>
<path d="M22 29.75H19.32C18.16 29.75 17.15 29.05 16.75 27.97C16.34 26.89 16.64 25.7 17.51 24.93L25.5 17.94C25.98 17.52 25.99 16.95 25.85 16.56C25.7 16.17 25.32 15.75 24.68 15.75H22C21.59 15.75 21.25 15.41 21.25 15C21.25 14.59 21.59 14.25 22 14.25H24.68C25.84 14.25 26.85 14.95 27.25 16.03C27.66 17.11 27.36 18.3 26.49 19.07L18.5 26.06C18.02 26.48 18.01 27.05 18.15 27.44C18.3 27.83 18.68 28.25 19.32 28.25H22C22.41 28.25 22.75 28.59 22.75 29C22.75 29.41 22.41 29.75 22 29.75Z" fill="#292D32"/>
</svg>
