<svg width="31" height="31" viewBox="0 0 31 31" fill="none" xmlns="http://www.w3.org/2000/svg">
<path d="M27.4789 12.7893H26.4722V12.7374H15.2245V17.7364H22.2874C21.257 20.6465 18.4882 22.7354 15.2245 22.7354C11.0834 22.7354 7.72594 19.378 7.72594 15.2369C7.72594 11.0959 11.0834 7.73841 15.2245 7.73841C17.136 7.73841 18.875 8.45952 20.1991 9.63741L23.734 6.10248C21.502 4.02227 18.5163 2.7394 15.2245 2.7394C8.3227 2.7394 2.72693 8.33517 2.72693 15.2369C2.72693 22.1387 8.3227 27.7345 15.2245 27.7345C22.1262 27.7345 27.722 22.1387 27.722 15.2369C27.722 14.399 27.6358 13.581 27.4789 12.7893Z" fill="#FFC107"/>
<path d="M4.16797 9.41995L8.27403 12.4312C9.38506 9.68053 12.0758 7.73841 15.2245 7.73841C17.136 7.73841 18.8751 8.45952 20.1992 9.63741L23.7341 6.10248C21.502 4.02227 18.5164 2.7394 15.2245 2.7394C10.4242 2.7394 6.26131 5.44949 4.16797 9.41995Z" fill="#FF3D00"/>
<path d="M15.2242 27.7345C18.4523 27.7345 21.3855 26.4991 23.6032 24.4901L19.7352 21.217C18.4383 22.2033 16.8535 22.7367 15.2242 22.7355C11.9736 22.7355 9.21351 20.6627 8.17371 17.7702L4.09827 20.9102C6.16661 24.9575 10.367 27.7345 15.2242 27.7345Z" fill="#4CAF50"/>
<path d="M27.4791 12.7893H26.4724V12.7374H15.2246V17.7364H22.2876C21.7947 19.1214 20.9068 20.3316 19.7337 21.2176L19.7356 21.2164L23.6036 24.4895C23.3299 24.7382 27.7221 21.4857 27.7221 15.2369C27.7221 14.399 27.6359 13.581 27.4791 12.7893Z" fill="#1976D2"/>
</svg>
