<svg width="21" height="22" viewBox="0 0 21 22" fill="none" xmlns="http://www.w3.org/2000/svg">
<path fill-rule="evenodd" clip-rule="evenodd" d="M10.7725 1.2375C9.40436 1.23566 8.05002 1.51073 6.79101 2.04615L5.64016 0.673699C5.58241 0.605069 5.50675 0.553813 5.4216 0.525635C5.33645 0.497457 5.24515 0.493463 5.15786 0.514099C5.07058 0.534734 4.99073 0.579189 4.92721 0.642514C4.86369 0.705839 4.81899 0.78555 4.79809 0.872772L3.70391 5.45583C3.68649 5.52922 3.68645 5.60566 3.70378 5.67907C3.72111 5.75248 3.75533 5.82084 3.80373 5.87869C3.85213 5.93654 3.91337 5.9823 3.98256 6.01232C4.05176 6.04234 4.12701 6.05579 4.20232 6.0516L8.91761 5.78496C9.00742 5.77988 9.09403 5.7499 9.16777 5.69839C9.2415 5.64688 9.29945 5.57586 9.33511 5.49329C9.37078 5.41072 9.38277 5.31985 9.36972 5.23086C9.35668 5.14186 9.31913 5.05825 9.26127 4.98939L8.10751 3.61476C8.95394 3.3256 9.85123 3.17447 10.7725 3.17447C15.3207 3.17447 19.0072 6.86097 19.0072 11.4092C19.0072 15.9566 15.3207 19.6431 10.7725 19.6431C6.22503 19.6431 2.53853 15.9566 2.53853 11.4092C2.53853 10.6456 2.6417 9.89794 2.84368 9.17866L0.978635 8.65554C0.732335 9.53176 0.60083 10.4545 0.60083 11.4092C0.60083 17.0268 5.15483 21.5808 10.7725 21.5808C16.3902 21.5808 20.9441 17.0268 20.9441 11.4092C20.9441 5.7915 16.3902 1.2375 10.7725 1.2375ZM10.3344 6.56531H10.2523C10.1303 6.5655 10.0129 6.61168 9.92346 6.69464C9.83404 6.7776 9.77919 6.89124 9.76986 7.01286L9.34992 12.4627C9.34141 12.575 9.37229 12.6868 9.43726 12.7788C9.50223 12.8708 9.59723 12.9373 9.70593 12.9669L14.18 14.1875C14.2349 14.2025 14.2925 14.2046 14.3483 14.1937C14.4042 14.1828 14.4568 14.1592 14.502 14.1247C14.5473 14.0902 14.584 14.0457 14.6093 13.9947C14.6346 13.9438 14.6478 13.8877 14.6479 13.8308V13.6281C14.6479 13.4537 14.5542 13.2931 14.4031 13.2067L11.2571 11.4092L10.8161 7.00124C10.7921 6.75421 10.5829 6.56531 10.3344 6.56531Z" fill="black"/>
</svg>
