<svg width="46" height="45" viewBox="0 0 46 45" fill="none" xmlns="http://www.w3.org/2000/svg">
<path opacity="0.3" fill-rule="evenodd" clip-rule="evenodd" d="M16.0625 5.71875C17.825 5.625 18.4062 5.625 23 5.625C27.575 5.625 28.1562 5.625 29.9375 5.71875C32.6938 5.85 35.1125 6.525 37.0625 8.45625C38.975 10.4062 39.65 12.825 39.7812 15.5813C39.8563 17.3625 39.875 17.9437 39.875 22.5187C39.875 27.0938 39.875 27.675 39.7812 29.4562C39.65 32.2125 38.975 34.6312 37.0437 36.5812C35.0938 38.4937 32.675 39.1687 29.9187 39.3C28.1375 39.375 27.5562 39.3937 22.9812 39.3937C18.4062 39.3937 17.825 39.3937 16.0437 39.3C13.2875 39.1687 10.8687 38.4937 8.91875 36.5625C7.00625 34.6125 6.33125 32.1937 6.2 29.4375C6.125 27.675 6.125 27.0937 6.125 22.5C6.125 17.925 6.125 17.3438 6.21875 15.5625C6.35 12.8062 7.025 10.3875 8.95625 8.4375C10.9063 6.5625 13.325 5.86875 16.0625 5.7375V5.71875ZM29.825 8.75625C28.0438 8.68125 27.5 8.6625 23 8.6625C18.5 8.6625 17.9375 8.6625 16.175 8.75625C14.2625 8.85 12.4812 9.24375 11.1125 10.6312C9.74375 11.9812 9.35 13.7625 9.2375 15.6937C9.18125 17.4562 9.1625 18 9.1625 22.5C9.1625 27 9.1625 27.5625 9.25625 29.325C9.35 31.2375 9.74375 33.0187 11.1313 34.3875C12.4813 35.7562 14.2625 36.15 16.1937 36.2625C17.9563 36.3187 18.5 36.3375 23 36.3375C27.5 36.3375 28.0625 36.3375 29.825 36.2437C31.7375 36.15 33.5188 35.7562 34.8875 34.3687C36.2563 33.0187 36.65 31.2375 36.7625 29.3062C36.8188 27.5437 36.8375 27 36.8375 22.5C36.8375 18 36.8375 17.4375 36.7437 15.675C36.65 13.7625 36.2563 11.9812 34.8687 10.6125C33.5187 9.24375 31.7375 8.85 29.8062 8.7375L29.825 8.75625Z" fill="#793592"/>
<path fill-rule="evenodd" clip-rule="evenodd" d="M34.25 13.125C34.25 14.1562 33.4062 15 32.375 15C31.3438 15 30.5 14.1562 30.5 13.125C30.5 12.0938 31.3438 11.25 32.375 11.25C33.4062 11.25 34.25 12.0938 34.25 13.125ZM23 15C18.875 15 15.5 18.375 15.5 22.5C15.5 26.625 18.875 30 23 30C27.125 30 30.5 26.625 30.5 22.5C30.5 18.375 27.125 15 23 15ZM23 27.375C20.3188 27.375 18.125 25.1812 18.125 22.5C18.125 19.8188 20.3188 17.625 23 17.625C25.6812 17.625 27.875 19.8188 27.875 22.5C27.875 25.1812 25.6812 27.375 23 27.375Z" fill="#793592"/>
</svg>
