<svg width="133" height="132" viewBox="0 0 133 132" fill="none" xmlns="http://www.w3.org/2000/svg">
<g clip-path="url(#clip0_982_207)">
<path d="M66.8597 10.979C81.7746 10.979 83.6355 11.0339 89.4872 11.3084C95.3335 11.5828 99.3133 12.4996 102.816 13.861C106.439 15.2553 109.491 17.1436 112.543 20.1903C115.334 22.9344 117.494 26.2539 118.872 29.9176C120.228 33.4143 121.15 37.3997 121.425 43.2459C121.683 49.0977 121.754 50.9586 121.754 65.8734C121.754 80.7882 121.699 82.6491 121.425 88.5009C121.15 94.3471 120.228 98.327 118.872 101.829C117.498 105.495 115.338 108.815 112.543 111.557C109.798 114.347 106.479 116.507 102.816 117.886C99.3188 119.242 95.3335 120.164 89.4872 120.438C83.6355 120.696 81.7746 120.768 66.8597 120.768C51.9449 120.768 50.084 120.713 44.2323 120.438C38.386 120.164 34.4062 119.242 30.9039 117.886C27.2387 116.511 23.9187 114.35 21.1766 111.557C18.3847 108.813 16.2248 105.493 14.8473 101.829C13.4859 98.3325 12.5692 94.3471 12.2947 88.5009C12.0367 82.6491 11.9653 80.7882 11.9653 65.8734C11.9653 50.9586 12.0202 49.0977 12.2947 43.2459C12.5692 37.3942 13.4859 33.4198 14.8473 29.9176C16.2209 26.2516 18.3814 22.9313 21.1766 20.1903C23.9195 17.3974 27.2393 15.2373 30.9039 13.861C34.4062 12.4996 38.3805 11.5828 44.2323 11.3084C50.084 11.0504 51.9449 10.979 66.8597 10.979ZM66.8597 38.4262C59.5803 38.4262 52.599 41.318 47.4516 46.4653C42.3043 51.6127 39.4125 58.594 39.4125 65.8734C39.4125 73.1529 42.3043 80.1342 47.4516 85.2815C52.599 90.4289 59.5803 93.3206 66.8597 93.3206C74.1392 93.3206 81.1205 90.4289 86.2678 85.2815C91.4152 80.1342 94.3069 73.1529 94.3069 65.8734C94.3069 58.594 91.4152 51.6127 86.2678 46.4653C81.1205 41.318 74.1392 38.4262 66.8597 38.4262ZM102.541 37.0538C102.541 35.234 101.818 33.4887 100.531 32.2018C99.2445 30.915 97.4992 30.192 95.6793 30.192C93.8594 30.192 92.1141 30.915 90.8273 32.2018C89.5404 33.4887 88.8175 35.234 88.8175 37.0538C88.8175 38.8737 89.5404 40.619 90.8273 41.9059C92.1141 43.1927 93.8594 43.9156 95.6793 43.9156C97.4992 43.9156 99.2445 43.1927 100.531 41.9059C101.818 40.619 102.541 38.8737 102.541 37.0538ZM66.8597 49.4051C71.2274 49.4051 75.4162 51.1401 78.5046 54.2285C81.593 57.317 83.3281 61.5057 83.3281 65.8734C83.3281 70.2411 81.593 74.4299 78.5046 77.5183C75.4162 80.6067 71.2274 82.3417 66.8597 82.3417C62.4921 82.3417 58.3033 80.6067 55.2149 77.5183C52.1265 74.4299 50.3914 70.2411 50.3914 65.8734C50.3914 61.5057 52.1265 57.317 55.2149 54.2285C58.3033 51.1401 62.4921 49.4051 66.8597 49.4051Z" fill="white"/>
</g>
<defs>
<clipPath id="clip0_982_207">
<rect width="131.747" height="131.747" fill="white" transform="translate(0.986328)"/>
</clipPath>
</defs>
</svg>
