<svg width="22" height="22" viewBox="0 0 22 22" fill="none" xmlns="http://www.w3.org/2000/svg">
<g clip-path="url(#clip0_1093_199)">
<path d="M10.6326 1.75244C13.0134 1.75244 13.3104 1.7612 14.2445 1.80502C15.1776 1.84883 15.8129 1.99516 16.3719 2.21246C16.9502 2.43502 17.4374 2.73645 17.9246 3.22275C18.3702 3.66077 18.7149 4.19062 18.9349 4.77543C19.1513 5.33358 19.2985 5.96973 19.3423 6.90291C19.3835 7.83697 19.3949 8.13401 19.3949 10.5147C19.3949 12.8954 19.3862 13.1925 19.3423 14.1265C19.2985 15.0597 19.1513 15.695 18.9349 16.254C18.7156 16.8391 18.3707 17.3691 17.9246 17.8067C17.4865 18.2521 16.9566 18.5968 16.3719 18.817C15.8138 19.0334 15.1776 19.1806 14.2445 19.2244C13.3104 19.2656 13.0134 19.277 10.6326 19.277C8.25193 19.277 7.95489 19.2682 7.02083 19.2244C6.08765 19.1806 5.45238 19.0334 4.89335 18.817C4.30831 18.5975 3.77837 18.2526 3.34067 17.8067C2.89503 17.3687 2.55025 16.8389 2.33038 16.254C2.11308 15.6959 1.96675 15.0597 1.92293 14.1265C1.88175 13.1925 1.87036 12.8954 1.87036 10.5147C1.87036 8.13401 1.87912 7.83697 1.92293 6.90291C1.96675 5.96885 2.11308 5.33446 2.33038 4.77543C2.54964 4.19026 2.8945 3.66027 3.34067 3.22275C3.7785 2.77695 4.3084 2.43216 4.89335 2.21246C5.45238 1.99516 6.08677 1.84883 7.02083 1.80502C7.95489 1.76383 8.25193 1.75244 10.6326 1.75244ZM10.6326 6.13358C9.47069 6.13358 8.35633 6.59516 7.53471 7.41679C6.71308 8.23841 6.2515 9.35277 6.2515 10.5147C6.2515 11.6767 6.71308 12.791 7.53471 13.6127C8.35633 14.4343 9.47069 14.8959 10.6326 14.8959C11.7946 14.8959 12.909 14.4343 13.7306 13.6127C14.5522 12.791 15.0138 11.6767 15.0138 10.5147C15.0138 9.35277 14.5522 8.23841 13.7306 7.41679C12.909 6.59516 11.7946 6.13358 10.6326 6.13358V6.13358ZM16.3281 5.91452C16.3281 5.62404 16.2127 5.34545 16.0073 5.14004C15.8019 4.93464 15.5233 4.81924 15.2328 4.81924C14.9424 4.81924 14.6638 4.93464 14.4584 5.14004C14.2529 5.34545 14.1376 5.62404 14.1376 5.91452C14.1376 6.20501 14.2529 6.4836 14.4584 6.68901C14.6638 6.89441 14.9424 7.00981 15.2328 7.00981C15.5233 7.00981 15.8019 6.89441 16.0073 6.68901C16.2127 6.4836 16.3281 6.20501 16.3281 5.91452ZM10.6326 7.88604C11.3298 7.88604 11.9984 8.16299 12.4914 8.65596C12.9844 9.14893 13.2613 9.81755 13.2613 10.5147C13.2613 11.2119 12.9844 11.8805 12.4914 12.3735C11.9984 12.8665 11.3298 13.1434 10.6326 13.1434C9.93547 13.1434 9.26685 12.8665 8.77388 12.3735C8.28091 11.8805 8.00396 11.2119 8.00396 10.5147C8.00396 9.81755 8.28091 9.14893 8.77388 8.65596C9.26685 8.16299 9.93547 7.88604 10.6326 7.88604V7.88604Z" fill="black"/>
</g>
<defs>
<clipPath id="clip0_1093_199">
<rect width="21.0295" height="21.0295" fill="white" transform="translate(0.11792)"/>
</clipPath>
</defs>
</svg>
