<svg width="56" height="56" viewBox="0 0 56 56" fill="none" xmlns="http://www.w3.org/2000/svg">
<path d="M10.4453 11.3749H45.4453C45.8542 11.3748 46.2626 11.4008 46.6681 11.4526C46.5307 10.4877 46.1992 9.56056 45.6938 8.72719C45.1883 7.89381 44.5193 7.17142 43.7271 6.60358C42.935 6.03574 42.036 5.6342 41.0844 5.42317C40.1329 5.21215 39.1484 5.19601 38.1905 5.37573L9.40625 10.2899H9.37344C7.56664 10.6355 5.95991 11.6577 4.88141 13.1479C6.50628 11.9922 8.45134 11.3724 10.4453 11.3749ZM45.4453 13.9999H10.4453C8.58942 14.002 6.81012 14.7401 5.4978 16.0524C4.18549 17.3648 3.44734 19.1441 3.44531 21V42C3.44734 43.8558 4.18549 45.6351 5.4978 46.9475C6.81012 48.2598 8.58942 48.9979 10.4453 49H45.4453C47.3012 48.9979 49.0805 48.2598 50.3928 46.9475C51.7051 45.6351 52.4433 43.8558 52.4453 42V21C52.4433 19.1441 51.7051 17.3648 50.3928 16.0524C49.0805 14.7401 47.3012 14.002 45.4453 13.9999ZM40.25 35C39.5578 35 38.8811 34.7947 38.3055 34.4101C37.7299 34.0255 37.2813 33.4789 37.0164 32.8393C36.7515 32.1998 36.6822 31.4961 36.8173 30.8171C36.9523 30.1382 37.2856 29.5146 37.7751 29.0251C38.2646 28.5356 38.8883 28.2022 39.5672 28.0672C40.2461 27.9322 40.9499 28.0015 41.5894 28.2664C42.2289 28.5313 42.7756 28.9799 43.1601 29.5555C43.5447 30.131 43.75 30.8077 43.75 31.5C43.75 32.4282 43.3812 33.3184 42.7249 33.9748C42.0685 34.6312 41.1783 35 40.25 35Z" fill="white" fill-opacity="0.8"/>
<path d="M3.5 28.3828V17.5C3.5 15.1298 4.8125 11.1562 9.36797 10.2955C13.2344 9.57031 17.0625 9.57031 17.0625 9.57031C17.0625 9.57031 19.5781 11.3203 17.5 11.3203C15.4219 11.3203 15.4766 14 17.5 14C19.5234 14 17.5 16.5703 17.5 16.5703L9.35156 25.8125L3.5 28.3828Z" fill="white" fill-opacity="0.8"/>
</svg>
