<svg width="610" height="46" viewBox="0 0 610 46" fill="none" xmlns="http://www.w3.org/2000/svg">
<line y1="22" x2="471.004" y2="22" stroke="white" stroke-width="2"/>
<path d="M502.142 16.35C502.703 15.7886 502.703 14.8784 502.142 14.317C501.58 13.7557 500.67 13.7557 500.109 14.317L492.442 21.9837C492.161 22.2644 492.021 22.6323 492.021 23.0002C492.021 23.1951 492.06 23.3809 492.13 23.5504C492.2 23.72 492.304 23.8788 492.442 24.0166L500.109 31.6833C500.67 32.2447 501.58 32.2447 502.142 31.6833C502.703 31.1219 502.703 30.2117 502.142 29.6504L496.929 24.4377H515.5C516.294 24.4377 516.938 23.7941 516.938 23.0002C516.938 22.2063 516.294 21.5627 515.5 21.5627H496.929L502.142 16.35Z" fill="white"/>
<path d="M592.654 12.0134C591.727 11.0859 591.727 9.5821 592.654 8.65461C593.582 7.72711 595.085 7.72711 596.013 8.65461L608.68 21.3213C609.607 22.2488 609.607 23.7525 608.68 24.68L596.013 37.3467C595.085 38.2742 593.582 38.2742 592.654 37.3467C591.727 36.4192 591.727 34.9154 592.654 33.9879L601.266 25.3757H570.583C569.272 25.3757 568.208 24.3123 568.208 23.0007C568.208 21.689 569.272 20.6257 570.583 20.6257H601.266L592.654 12.0134Z" fill="white"/>
</svg>
