<svg width="19" height="41" viewBox="0 0 19 41" fill="none" xmlns="http://www.w3.org/2000/svg">
<g clip-path="url(#clip0_2331_4404)">
<g clip-path="url(#clip1_2331_4404)">
<g clip-path="url(#clip2_2331_4404)">
<path d="M17.109 12.2512L17.0961 12.2384M17.0961 12.2384L15.7228 13.6116L14.1381 15.222M17.0961 12.2384L14.4685 9.61077C14.0943 9.23652 13.4875 9.23651 13.1132 9.61077L10.82 11.904M14.1381 15.222L11.8701 17.4901L6.76638 22.5938C6.67712 22.683 6.57109 22.7538 6.4544 22.802L3.11182 24.1818C2.32367 24.5071 1.53499 23.7184 1.86034 22.9303L3.24012 19.5877C3.28828 19.471 3.35903 19.365 3.44829 19.2757L10.82 11.904M14.1381 15.222L10.82 11.904" stroke="#224144" stroke-width="1.91667" stroke-linecap="round" stroke-linejoin="round"/>
</g>
</g>
</g>
<defs>
<clipPath id="clip0_2331_4404">
<rect width="18.23" height="17.25" fill="white" transform="translate(0.432617 8.33984)"/>
</clipPath>
<clipPath id="clip1_2331_4404">
<rect width="18.23" height="17.25" fill="white" transform="translate(0.432617 8.33984)"/>
</clipPath>
<clipPath id="clip2_2331_4404">
<rect width="18.2083" height="17.25" fill="white" transform="translate(0.443359 8.33984)"/>
</clipPath>
</defs>
</svg>
