<svg width="44" height="44" viewBox="0 0 44 44" fill="none" xmlns="http://www.w3.org/2000/svg">
<rect x="1.36729" y="0.979592" width="41.1429" height="41.1429" rx="20.5714" fill="white"/>
<rect x="1.36729" y="0.979592" width="41.1429" height="41.1429" rx="20.5714" stroke="black" stroke-width="1.95918"/>
<g clip-path="url(#clip0_1233_234)">
<path d="M27.8163 17.6327H26.8367V15.6735C26.8367 12.9698 24.6425 10.7755 21.9388 10.7755C19.2351 10.7755 17.0408 12.9698 17.0408 15.6735V17.6327H16.0612C14.9837 17.6327 14.1021 18.5143 14.1021 19.5918V29.3878C14.1021 30.4653 14.9837 31.3469 16.0612 31.3469H27.8163C28.8939 31.3469 29.7755 30.4653 29.7755 29.3878V19.5918C29.7755 18.5143 28.8939 17.6327 27.8163 17.6327ZM21.9388 26.449C20.8612 26.449 19.9796 25.5674 19.9796 24.4898C19.9796 23.4122 20.8612 22.5306 21.9388 22.5306C23.0163 22.5306 23.898 23.4122 23.898 24.4898C23.898 25.5674 23.0163 26.449 21.9388 26.449ZM19 17.6327V15.6735C19 14.0473 20.3127 12.7347 21.9388 12.7347C23.5649 12.7347 24.8776 14.0473 24.8776 15.6735V17.6327H19Z" fill="#323232"/>
</g>
<defs>
<clipPath id="clip0_1233_234">
<rect width="23.5102" height="23.5102" fill="white" transform="translate(10.1836 9.7959)"/>
</clipPath>
</defs>
</svg>
