<svg width="254" height="75" viewBox="0 0 254 75" fill="none" xmlns="http://www.w3.org/2000/svg">
<path fill-rule="evenodd" clip-rule="evenodd" d="M38.0317 58.0179L23.4465 58.0674C19.9362 58.0674 18.0722 56.1167 18.0722 52.7976L18.154 38.867C18.0722 36.1678 16.5652 35.005 14.0693 35.005H3.46867C1.51118 35.005 0.000354767 36.8672 0.000354767 38.867V53.0898C0.000354767 54.9335 1.14135 56.8734 3.83851 56.9518C3.83851 56.9518 9.84143 57.1065 13.4637 57.1065C17.086 57.1065 19.3164 58.0674 19.3164 61.9004C19.3164 65.7334 19.2736 69.5153 19.2736 71.4567C19.2736 73.3981 21.2704 75 23.3238 75H50.7266C54.9346 74.3403 54.9346 71.4567 54.9346 68.8069V23.3128C54.9346 20.538 54.9346 18.2852 50.8499 18.2852L40.1143 18.1305C37.112 18.1305 35.741 15.2429 35.741 12.4041C35.741 12.4041 35.741 5.92126 35.9079 2.84773C36.0748 -0.225796 34.2801 0.00388295 32.2267 0.00388295H3.7521C1.17843 0.00388295 0.321854 1.28006 0.321854 3.71332V12.1388C0.321854 14.572 1.17843 15.8482 3.7521 15.8482L29.3918 15.7709C32.903 15.7709 38.0947 20.4025 38.0947 23.7215L38.0632 26.9411L38.0317 58.0179ZM39.5883 3.15174V11.4924C39.5883 13.2122 41.1279 14.6085 43.0242 14.6085H51.4986C53.3949 14.6085 54.9346 13.2122 54.9346 11.4924V3.15174C54.9346 1.43193 53.3949 0.035582 51.4986 0.035582H43.0242C41.1279 0.035582 39.5883 1.43193 39.5883 3.15174Z" fill="white"/>
<path d="M0.355927 71.8838V63.6598C0.355927 61.94 1.89554 60.5436 3.79184 60.5436H12.143C14.0393 60.5436 15.579 61.94 15.579 63.6598V71.8838C15.579 73.6037 14.0393 75 12.143 75H3.79184C1.89554 75 0.355927 73.6037 0.355927 71.8838Z" fill="white"/>
<path fill-rule="evenodd" clip-rule="evenodd" d="M98.3795 25.4327L87.5455 25.4753C86.1044 25.4753 84.9346 24.7389 84.9346 23.3993V17.076C84.9346 15.7364 86.1044 15 87.5455 15H99.7873C100.937 15 102.262 15.8819 102.262 16.9507C102.262 18.0195 102.284 24.19 102.284 24.19C102.284 25.7529 103.351 28.0518 105.032 28.0518L109.115 28.137C110.758 28.137 112.092 29.3773 112.092 30.9049V57.8176C112.092 59.3451 111.103 60 109.459 60H103.957C102.313 60 101.324 59.3451 101.324 57.8176L101.369 29.6699C101.369 27.8425 100.345 25.4327 98.3795 25.4327Z" fill="white"/>
<path fill-rule="evenodd" clip-rule="evenodd" d="M123.935 17.7969C123.935 16.0739 123.277 15.1134 122.299 15.1134H106.243C105.265 15.1134 104.684 16.0739 104.684 17.7969V23.027C104.684 24.75 105.265 25.8222 106.243 25.8222H122.299C123.277 25.8222 123.935 24.75 123.935 23.027V17.7969Z" fill="white"/>
<path fill-rule="evenodd" clip-rule="evenodd" d="M169.149 38.4218C167.495 39.5159 168.332 40.2369 171.443 43.5078C173.438 45.6048 172.791 50.1599 172.935 53.4552C172.929 55.0132 172.935 56.48 172.892 57.9913C172.871 59.1059 172.663 59.9995 170.838 59.9995C168.925 60 165.071 60 163.417 60C162.038 59.9995 161.551 59.4901 161.551 57.5398V54.6167C161.551 50.0821 159.915 48.498 158.252 48.498C153.525 48.498 150.23 48.498 145.409 48.498V57.9559C145.409 58.498 145.168 59.018 144.739 59.4015C144.311 59.7849 143.73 60 143.124 60H136.22C135.614 60 135.033 59.7849 134.604 59.4015C134.176 59.018 133.935 58.498 133.935 57.9559V39.5553C133.935 39.0103 134.178 38.4878 134.611 38.1039C135.043 37.7199 135.63 37.5068 136.239 37.5112L144.751 37.5618C144.751 37.5618 152.793 37.5161 155.26 37.5161C158.896 37.5161 162.116 35.4468 162.116 32.1934C162.116 28.695 159.178 25.7651 155.267 25.7651H136.22C135.614 25.7651 135.033 25.55 134.604 25.1665C134.176 24.7831 133.935 24.2631 133.935 23.721V17.0441C133.935 16.502 134.176 15.982 134.604 15.5985C135.033 15.2151 135.614 15 136.22 15L154.577 15C158.77 15 162.226 15.546 164.946 16.638C168.305 18.0001 170.802 19.2646 171.976 22.2465C172.347 23.3366 172.701 24.7914 172.864 26.1839C172.903 26.6533 172.942 31.6684 172.923 32.1591C172.719 37.5112 170.526 37.5112 169.149 38.4218Z" fill="white"/>
<path d="M182.935 17.6565C182.935 16.1893 183.742 15 185.488 15C187.283 15 190.736 15 192.531 15C194.276 15 195.085 16.1893 195.085 17.6565C195.085 25.6876 195.085 49.3124 195.085 57.3435C195.085 58.8107 194.276 60 192.531 60C190.736 60 187.283 60 185.488 60C183.742 60 182.935 58.8107 182.935 57.3435C182.935 49.3124 182.935 25.6876 182.935 17.6565Z" fill="white"/>
<path fill-rule="evenodd" clip-rule="evenodd" d="M243.047 60.3934C241.585 60.3561 241.279 59.738 240.251 58.6375C236.919 54.4201 228.535 44.1528 228.535 44.1528C226.868 42.1428 226.912 42.2038 228.45 40.4289L231.846 36.3659C232.776 35.3139 233.308 36.2561 234.213 37.4026L252.547 57.6995C253.519 58.9325 253.224 60.4721 251.54 60.4294C249.922 60.3881 244.601 60.4327 243.047 60.3934Z" fill="white"/>
<path fill-rule="evenodd" clip-rule="evenodd" d="M227.474 45.2007C227.737 45.5882 227.722 46.1047 227.438 46.476C225.423 49.1085 218.616 59.3041 218.616 59.3041C218.212 59.829 217.555 60.1346 216.861 60.122L208.483 60C206.991 59.9722 206.805 58.2021 207.769 56.8475L219.082 39.4872C219.56 38.8152 219.547 37.9393 219.048 37.2805L205.753 18.085C204.952 17.0258 204.68 14.9999 206.03 14.9999H215.354C216.052 14.9999 216.484 15.3222 216.876 15.8602L226.061 29.6844C226.897 30.8302 228.747 30.8213 229.567 29.6611L238.862 15.883C239.252 15.3323 239.914 14.9999 240.623 14.9999H248.919C250.455 14.9999 250.566 16.7295 249.524 18.0933L239.344 33.4182C239.342 33.42 237.853 35.393 237.041 36.4697C236.769 36.8296 236.01 37.086 235.701 36.7608C233.545 34.4757 232.472 32.3745 231.126 33.7099C229.878 35.216 226.912 39.0568 225.654 40.561C224.44 41.7999 226.333 43.587 227.474 45.2007Z" fill="white"/>
</svg>
