<svg width="55" height="75" viewBox="0 0 55 75" fill="none" xmlns="http://www.w3.org/2000/svg">
<path fill-rule="evenodd" clip-rule="evenodd" d="M38.0317 58.0179L23.4465 58.0674C19.9362 58.0674 18.0722 56.1167 18.0722 52.7976L18.154 38.867C18.0722 36.1678 16.5652 35.005 14.0693 35.005H3.46867C1.51118 35.005 0.000354767 36.8672 0.000354767 38.867V53.0898C0.000354767 54.9335 1.14135 56.8734 3.83851 56.9518C3.83851 56.9518 9.84143 57.1065 13.4637 57.1065C17.086 57.1065 19.3164 58.0674 19.3164 61.9004C19.3164 65.7334 19.2736 69.5153 19.2736 71.4567C19.2736 73.3981 21.2704 75 23.3238 75H50.7266C54.9346 74.3403 54.9346 71.4567 54.9346 68.8069V23.3128C54.9346 20.538 54.9346 18.2852 50.8499 18.2852L40.1143 18.1305C37.112 18.1305 35.741 15.2429 35.741 12.4041C35.741 12.4041 35.741 5.92126 35.9079 2.84773C36.0748 -0.225796 34.2801 0.00388295 32.2267 0.00388295H3.7521C1.17843 0.00388295 0.321854 1.28006 0.321854 3.71332V12.1388C0.321854 14.572 1.17843 15.8482 3.7521 15.8482L29.3918 15.7709C32.903 15.7709 38.0947 20.4025 38.0947 23.7215L38.0632 26.9411L38.0317 58.0179ZM39.5883 3.15174V11.4924C39.5883 13.2122 41.1279 14.6085 43.0242 14.6085H51.4986C53.3949 14.6085 54.9346 13.2122 54.9346 11.4924V3.15174C54.9346 1.43193 53.3949 0.035582 51.4986 0.035582H43.0242C41.1279 0.035582 39.5883 1.43193 39.5883 3.15174Z" fill="white"/>
<path d="M0.355927 71.8838V63.6598C0.355927 61.94 1.89554 60.5436 3.79184 60.5436H12.143C14.0393 60.5436 15.579 61.94 15.579 63.6598V71.8838C15.579 73.6037 14.0393 75 12.143 75H3.79184C1.89554 75 0.355927 73.6037 0.355927 71.8838Z" fill="white"/>
</svg>
