<svg width="24" height="24" viewBox="0 0 24 24" fill="none" xmlns="http://www.w3.org/2000/svg">
<path d="M11.2809 20.5559L11.2741 20.553L11.2528 20.5414C11.1281 20.4727 11.0044 20.4023 10.8818 20.3302C9.40719 19.4539 8.02914 18.4246 6.7705 17.2593C4.54145 15.1794 2.17969 12.0931 2.17969 8.29177C2.17969 5.45533 4.56664 3.20594 7.44764 3.20594C8.24854 3.20202 9.04002 3.3787 9.76321 3.72286C10.4864 4.06701 11.1227 4.56978 11.6248 5.19377C12.127 4.56966 12.7634 4.06681 13.4868 3.72265C14.2102 3.37849 15.0019 3.20187 15.8029 3.20594C18.683 3.20594 21.0699 5.45533 21.0699 8.29177C21.0699 12.094 18.7081 15.1804 16.4791 17.2583C15.2205 18.4237 13.8424 19.453 12.3678 20.3292C12.2452 20.4017 12.1215 20.4724 11.9968 20.5414L11.9755 20.553L11.9687 20.5569L11.9658 20.5578C11.8607 20.6135 11.7437 20.6426 11.6248 20.6426C11.5059 20.6426 11.3889 20.6135 11.2838 20.5578L11.2809 20.5559Z" fill="black"/>
</svg>
