<svg width="46" height="45" viewBox="0 0 46 45" fill="none" xmlns="http://www.w3.org/2000/svg">
<path opacity="0.3" d="M7.8125 9.375H38.1875C39.125 9.375 39.875 10.2188 39.875 11.25V33.75C39.875 34.7812 39.125 35.625 38.1875 35.625H7.8125C6.875 35.625 6.125 34.7812 6.125 33.75V11.25C6.125 10.2188 6.875 9.375 7.8125 9.375Z" fill="#793592"/>
<path d="M8 39.375C11.1125 39.375 13.625 36.8625 13.625 33.75C13.625 30.6375 11.1125 28.125 8 28.125C4.8875 28.125 2.375 30.6375 2.375 33.75C2.375 36.8625 4.8875 39.375 8 39.375ZM23 21.15L10.4375 13.9875L9.3125 16.0125L23 23.85L36.6875 16.0125L35.5625 13.9875L23 21.15Z" fill="#793592"/>
</svg>
