<svg width="20" height="20" viewBox="0 0 20 20" fill="none" xmlns="http://www.w3.org/2000/svg">
<path d="M10 8.57143C10.4734 8.57143 10.8571 8.95518 10.8571 9.42857V15.1429C10.8571 15.6162 10.4734 16 10 16C9.52661 16 9.14286 15.6162 9.14286 15.1429V9.42857C9.14286 8.95518 9.52661 8.57143 10 8.57143Z" fill="#ACACAC"/>
<path d="M10 6.57143C10.6312 6.57143 11.1429 6.05975 11.1429 5.42857C11.1429 4.79739 10.6312 4.28571 10 4.28571C9.36882 4.28571 8.85714 4.79739 8.85714 5.42857C8.85714 6.05975 9.36882 6.57143 10 6.57143Z" fill="#ACACAC"/>
<path fill-rule="evenodd" clip-rule="evenodd" d="M0 10C0 4.47715 4.47715 0 10 0C15.5228 0 20 4.47715 20 10C20 15.5228 15.5228 20 10 20C4.47715 20 0 15.5228 0 10ZM10 1.71429C5.42393 1.71429 1.71429 5.42393 1.71429 10C1.71429 14.5761 5.42393 18.2857 10 18.2857C14.5761 18.2857 18.2857 14.5761 18.2857 10C18.2857 5.42393 14.5761 1.71429 10 1.71429Z" fill="#ACACAC"/>
</svg>
