<svg width="39" height="38" viewBox="0 0 39 38" fill="none" xmlns="http://www.w3.org/2000/svg">
<g clip-path="url(#clip0_1194_1718)">
<path d="M36.8167 18.8329L32.9872 14.454L33.5208 8.66265L27.855 7.37568L24.8886 2.35333L19.5524 4.64478L14.2162 2.35333L11.2498 7.35998L5.584 8.63126L6.11763 14.4384L2.28809 18.8329L6.11763 23.2118L5.584 29.0188L11.2498 30.3058L14.2162 35.3125L19.5524 33.0053L24.8886 35.2968L27.855 30.2901L33.5208 29.0032L32.9872 23.2118L36.8167 18.8329ZM16.5547 26.2409L10.5907 20.2611L12.9135 17.9383L16.5547 21.5952L25.7362 12.3823L28.059 14.7052L16.5547 26.2409Z" fill="#F16607"/>
</g>
<defs>
<clipPath id="clip0_1194_1718">
<rect width="37.6676" height="37.6676" fill="white" transform="translate(0.712891)"/>
</clipPath>
</defs>
</svg>
