<svg width="899" height="1117" viewBox="0 0 899 1117" fill="none" xmlns="http://www.w3.org/2000/svg">
<g clip-path="url(#clip0_918_422)">
<rect width="899" height="1117" fill="white"/>
<path d="M186.167 930.833L0 1117H372.333L186.167 930.833Z" fill="#FFC655"/>
<path d="M185.029 1083.59C227.537 1083.59 266.011 1066.32 293.936 1038.5L285.145 1029.71C259.495 1055.36 224.124 1071.18 185.029 1071.18C146.554 1071.18 111.7 1055.77 86.1535 1030.95L77.3623 1039.74C105.08 1066.84 143.038 1083.59 185.029 1083.59Z" fill="#C08EFF"/>
<path d="M185.029 1060.01C221.021 1060.01 253.6 1045.43 277.182 1021.85L267.046 1011.71C246.05 1032.71 217.091 1045.64 185.029 1045.64C153.588 1045.64 125.145 1033.12 104.253 1012.85L94.1177 1022.99C117.492 1045.84 149.554 1060.01 185.029 1060.01Z" fill="#C08EFF"/>
<path d="M186.167 930.833L0 1117V744.667L186.167 930.833Z" fill="#FFF5AE"/>
<path d="M43.4389 929.695C43.4389 890.6 59.2631 855.229 84.9127 829.579L76.1215 820.788C48.2999 848.609 31.0278 887.187 31.0278 929.695C31.0278 972.824 48.7137 1011.82 77.3626 1039.74L86.1538 1030.95C59.7802 1005.2 43.4389 969.308 43.4389 929.695Z" fill="#C4A0FF"/>
<path d="M94.0142 1022.99L104.15 1012.85C82.4305 991.751 68.9851 962.275 68.9851 929.695C68.9851 897.633 82.0168 868.674 102.909 847.679L92.7731 837.543C69.192 861.124 54.6089 893.703 54.6089 929.695C54.7123 966.205 69.7091 999.301 94.0142 1022.99Z" fill="#C4A0FF"/>
<path d="M186.167 186.167L0 372.333H372.333L186.167 186.167Z" fill="#C4A0FF"/>
<path d="M185.029 338.927C227.537 338.927 266.011 321.655 293.936 293.833L285.145 285.042C259.495 310.691 224.124 326.516 185.029 326.516C146.554 326.516 111.7 311.105 86.1535 286.283L77.3623 295.074C105.08 322.172 143.038 338.927 185.029 338.927Z" fill="#FFF5AE"/>
<path d="M185.029 315.346C221.021 315.346 253.6 300.763 277.182 277.182L267.046 267.046C246.05 288.041 217.091 300.969 185.029 300.969C153.588 300.969 125.145 288.455 104.253 268.183L94.1177 278.319C117.492 301.176 149.554 315.346 185.029 315.346Z" fill="#FFF5AE"/>
<path d="M186.167 186.167L0 372.333V6.10352e-05L186.167 186.167Z" fill="#C08EFF"/>
<path d="M43.4389 185.029C43.4389 145.934 59.2631 110.562 84.9127 84.9125L76.1215 76.1213C48.2999 103.943 31.0278 142.521 31.0278 185.029C31.0278 228.157 48.7137 267.149 77.3626 295.074L86.1538 286.283C59.7802 260.53 43.4389 224.641 43.4389 185.029Z" fill="#FFC655"/>
<path d="M94.0142 278.319L104.15 268.183C82.4305 247.084 68.9851 217.608 68.9851 185.029C68.9851 152.967 82.0168 124.007 102.909 103.012L92.7731 92.8763C69.192 116.457 54.6089 149.037 54.6089 185.029C54.7123 221.538 69.7091 254.634 94.0142 278.319Z" fill="#FFC655"/>
<path d="M558.5 558.5L744.667 372.333L372.334 372.333L558.5 558.5Z" fill="#FFC655"/>
<path d="M559.638 405.74C517.13 405.74 478.655 423.012 450.73 450.834L459.521 459.625C485.171 433.975 520.543 418.151 559.638 418.151C598.112 418.151 632.967 433.562 658.513 458.384L667.304 449.593C639.586 422.495 601.629 405.74 559.638 405.74Z" fill="#C08EFF"/>
<path d="M559.637 429.321C523.645 429.321 491.066 443.904 467.485 467.485L477.621 477.621C498.616 456.625 527.575 443.697 559.637 443.697C591.079 443.697 619.521 456.212 640.413 476.483L650.549 466.348C627.175 443.49 595.113 429.321 559.637 429.321Z" fill="#C08EFF"/>
<path d="M558.5 558.5L744.667 372.333L744.667 744.667L558.5 558.5Z" fill="#FFC655"/>
<path d="M701.228 559.638C701.228 598.733 685.404 634.105 659.754 659.754L668.545 668.545C696.367 640.724 713.639 602.146 713.639 559.638C713.639 516.509 695.953 477.518 667.304 449.593L658.513 458.384C684.887 484.137 701.228 520.026 701.228 559.638Z" fill="#C08EFF"/>
<path d="M650.653 466.348L640.517 476.484C662.237 497.582 675.682 527.059 675.682 559.638C675.682 591.7 662.65 620.659 641.758 641.655L651.894 651.79C675.475 628.209 690.058 595.63 690.058 559.638C689.955 523.129 674.958 490.032 650.653 466.348Z" fill="#C08EFF"/>
<path d="M930.834 186.167L744.667 372.333L1117 372.333L930.834 186.167Z" fill="#FFF5AE"/>
<path d="M929.696 338.927C972.204 338.927 1010.68 321.655 1038.6 293.833L1029.81 285.042C1004.16 310.691 968.791 326.516 929.696 326.516C891.221 326.516 856.367 311.105 830.821 286.283L822.029 295.074C849.747 322.172 887.705 338.927 929.696 338.927Z" fill="#FFC655"/>
<path d="M929.696 315.346C965.688 315.346 998.267 300.763 1021.85 277.181L1011.71 267.046C990.717 288.041 961.758 300.969 929.696 300.969C898.255 300.969 869.812 288.455 848.92 268.183L838.785 278.319C862.159 301.176 894.221 315.346 929.696 315.346Z" fill="#FFC655"/>
<path d="M930.834 186.167L744.667 372.333L744.667 6.10352e-05L930.834 186.167Z" fill="#FFF5AE"/>
<path d="M788.105 185.029C788.105 145.934 803.93 110.562 829.579 84.9125L820.788 76.1213C792.966 103.943 775.694 142.521 775.694 185.029C775.694 228.157 793.38 267.149 822.029 295.074L830.82 286.283C804.447 260.53 788.105 224.641 788.105 185.029Z" fill="#FFC655"/>
<path d="M838.681 278.319L848.817 268.183C827.097 247.084 813.652 217.608 813.652 185.029C813.652 152.967 826.684 124.007 847.576 103.012L837.44 92.8762C813.859 116.457 799.276 149.037 799.276 185.029C799.379 221.538 814.376 254.634 838.681 278.319Z" fill="#FFC655"/>
<path d="M558.5 930.833L744.667 1117L744.667 744.667L558.5 930.833Z" fill="#FFC655"/>
<path d="M558.5 930.833L744.666 1117L372.333 1117L558.5 930.833Z" fill="#FFF5AE"/>
<path d="M372.333 744.667L372.333 1117L-0.000303143 744.667L372.333 744.667Z" fill="#C08EFF"/>
<path d="M74.4668 744.667L0.00012858 744.667L74.4668 819.133L74.4668 744.667Z" fill="#C4A0FF"/>
<path d="M74.4669 819.133L148.934 819.133L148.934 893.6L74.4669 819.133Z" fill="#C4A0FF"/>
<path d="M148.933 893.6L223.4 893.6L223.4 968.067L148.933 893.6Z" fill="#C4A0FF"/>
<path d="M223.4 968.067L297.867 968.067L297.867 1042.53L223.4 968.067Z" fill="#C4A0FF"/>
<path d="M297.866 1042.53L372.333 1042.53L372.333 1117L297.866 1042.53Z" fill="#C4A0FF"/>
<path d="M297.866 968.067L372.333 1042.53L372.333 968.067L297.866 968.067Z" fill="#C4A0FF"/>
<path d="M223.4 893.6L297.867 968.067L297.867 893.6L223.4 893.6Z" fill="#C4A0FF"/>
<path d="M148.933 819.133L223.4 893.6L223.4 819.133L148.933 819.133Z" fill="#C4A0FF"/>
<path d="M148.933 744.667L223.4 819.133L223.4 744.667L148.933 744.667Z" fill="#C4A0FF"/>
<path d="M297.866 893.6L372.333 968.067L372.333 893.6L297.866 893.6Z" fill="#C4A0FF"/>
<path d="M223.4 819.133L297.867 893.6L297.867 819.133L223.4 819.133Z" fill="#C4A0FF"/>
<path d="M223.4 744.667L297.867 819.133L297.867 744.667L223.4 744.667Z" fill="#C4A0FF"/>
<path d="M297.866 744.667L372.333 819.133L372.333 744.667L297.866 744.667Z" fill="#C4A0FF"/>
<path d="M297.866 819.133L372.333 893.6L372.333 819.133L297.866 819.133Z" fill="#C4A0FF"/>
<path d="M74.4669 744.667L148.934 819.133L148.934 744.667L74.4669 744.667Z" fill="#C4A0FF"/>
<path d="M744.667 744.667L744.667 372.333L1117 744.667L744.667 744.667Z" fill="#C08EFF"/>
<path d="M968.067 595.733L893.6 595.733L893.6 521.267L968.067 595.733Z" fill="#C4A0FF"/>
<path d="M893.6 521.267L819.133 521.267L819.133 446.8L893.6 521.267Z" fill="#C4A0FF"/>
<path d="M819.134 446.8L744.667 446.8L744.667 372.333L819.134 446.8Z" fill="#C4A0FF"/>
<path d="M819.133 521.267L744.667 446.8L744.666 521.267L819.133 521.267Z" fill="#C4A0FF"/>
<path d="M893.6 595.733L819.133 521.267L819.133 595.733L893.6 595.733Z" fill="#C4A0FF"/>
<path d="M968.067 670.2L893.6 595.733L893.6 670.2L968.067 670.2Z" fill="#C4A0FF"/>
<path d="M968.067 744.667L893.6 670.2L893.6 744.667L968.067 744.667Z" fill="#C4A0FF"/>
<path d="M819.133 595.733L744.667 521.267L744.666 595.733L819.133 595.733Z" fill="#C4A0FF"/>
<path d="M893.6 670.2L819.133 595.733L819.133 670.2L893.6 670.2Z" fill="#C4A0FF"/>
<path d="M893.6 744.667L819.133 670.2L819.133 744.667L893.6 744.667Z" fill="#C4A0FF"/>
<path d="M819.134 744.667L744.667 670.2L744.667 744.667L819.134 744.667Z" fill="#C4A0FF"/>
<path d="M819.134 670.2L744.667 595.733L744.667 670.2L819.134 670.2Z" fill="#C4A0FF"/>
<path d="M744.667 372.333L372.333 372.333L744.667 3.35668e-05L744.667 372.333Z" fill="#FFC655"/>
<path d="M744.667 74.4667L744.667 -5.49367e-06L670.2 74.4667L744.667 74.4667Z" fill="#C4A0FF"/>
<path d="M670.2 74.4667L670.2 148.933L595.733 148.933L670.2 74.4667Z" fill="#C4A0FF"/>
<path d="M595.734 148.933L595.734 223.4L521.267 223.4L595.734 148.933Z" fill="#C4A0FF"/>
<path d="M521.267 223.4L521.267 297.867L446.8 297.867L521.267 223.4Z" fill="#C4A0FF"/>
<path d="M446.8 297.867L446.8 372.333L372.333 372.333L446.8 297.867Z" fill="#C4A0FF"/>
<path d="M521.267 297.867L446.8 372.333L521.267 372.333L521.267 297.867Z" fill="#C4A0FF"/>
<path d="M595.734 223.4L521.267 297.867L595.734 297.867L595.734 223.4Z" fill="#C4A0FF"/>
<path d="M670.2 148.933L595.733 223.4L670.2 223.4L670.2 148.933Z" fill="#C4A0FF"/>
<path d="M744.667 148.933L670.2 223.4L744.667 223.4L744.667 148.933Z" fill="#C4A0FF"/>
<path d="M595.734 297.867L521.267 372.333L595.734 372.333L595.734 297.867Z" fill="#C4A0FF"/>
<path d="M670.2 223.4L595.733 297.867L670.2 297.867L670.2 223.4Z" fill="#C4A0FF"/>
<path d="M744.667 223.4L670.2 297.867L744.667 297.867L744.667 223.4Z" fill="#C4A0FF"/>
<path d="M744.667 297.867L670.2 372.333L744.667 372.333L744.667 297.867Z" fill="#C4A0FF"/>
<path d="M670.2 297.867L595.733 372.333L670.2 372.333L670.2 297.867Z" fill="#C4A0FF"/>
<path d="M744.667 74.4667L670.2 148.933L744.667 148.933L744.667 74.4667Z" fill="#C4A0FF"/>
<path d="M372.333 744.667V1117L744.666 744.667H372.333Z" fill="#C08EFF"/>
<path d="M421.978 744.667L459.211 744.667L459.211 1030.12L421.978 1067.36L421.978 744.667Z" fill="#C4A0FF"/>
<path d="M496.444 744.667L533.678 744.667L533.678 955.656L496.444 992.889L496.444 744.667Z" fill="#C4A0FF"/>
<path d="M570.911 744.667L608.144 744.667L608.144 881.189L570.911 918.422L570.911 744.667Z" fill="#C4A0FF"/>
<path d="M645.377 744.667L682.611 744.667L682.611 806.722L645.377 843.955L645.377 744.667Z" fill="#C4A0FF"/>
<path d="M397.155 1005.3L421.977 1030.12V1005.3L409.566 992.889L397.155 1005.3Z" fill="#FFC655"/>
<path d="M446.8 1005.3L421.978 1030.12V1005.3L434.389 992.889L446.8 1005.3Z" fill="#FFF5AE"/>
<path d="M397.155 930.833L421.977 955.656V930.833L409.566 918.422L397.155 930.833Z" fill="#FFC655"/>
<path d="M446.8 930.833L421.978 955.656V930.833L434.389 918.422L446.8 930.833Z" fill="#FFF5AE"/>
<path d="M397.155 856.367L421.977 881.189V856.367L409.566 843.956L397.155 856.367Z" fill="#FFC655"/>
<path d="M446.8 856.367L421.978 881.189V856.367L434.389 843.956L446.8 856.367Z" fill="#FFF5AE"/>
<path d="M397.155 781.9L421.977 806.722V781.9L409.566 769.489L397.155 781.9Z" fill="#FFC655"/>
<path d="M446.8 781.9L421.978 806.722V781.9L434.389 769.489L446.8 781.9Z" fill="#FFF5AE"/>
<path d="M471.622 930.833L496.444 955.656V930.833L484.033 918.422L471.622 930.833Z" fill="#FFC655"/>
<path d="M521.267 930.833L496.444 955.656V930.833L508.855 918.422L521.267 930.833Z" fill="#FFF5AE"/>
<path d="M471.622 856.367L496.444 881.189V856.367L484.033 843.956L471.622 856.367Z" fill="#FFC655"/>
<path d="M521.267 856.367L496.444 881.189V856.367L508.855 843.956L521.267 856.367Z" fill="#FFF5AE"/>
<path d="M471.622 781.9L496.444 806.722V781.9L484.033 769.489L471.622 781.9Z" fill="#FFC655"/>
<path d="M521.267 781.9L496.444 806.722V781.9L508.855 769.489L521.267 781.9Z" fill="#FFF5AE"/>
<path d="M546.088 856.367L570.911 881.189V856.367L558.499 843.956L546.088 856.367Z" fill="#FFC655"/>
<path d="M595.733 856.367L570.911 881.189V856.367L583.322 843.956L595.733 856.367Z" fill="#FFF5AE"/>
<path d="M546.088 781.9L570.911 806.722V781.9L558.499 769.489L546.088 781.9Z" fill="#FFC655"/>
<path d="M595.733 781.9L570.911 806.722V781.9L583.322 769.489L595.733 781.9Z" fill="#FFF5AE"/>
<path d="M620.556 781.9L645.378 806.722V781.9L632.967 769.489L620.556 781.9Z" fill="#FFC655"/>
<path d="M670.2 781.9L645.377 806.722V781.9L657.789 769.489L670.2 781.9Z" fill="#FFF5AE"/>
<path d="M1117 372.333V744.667L744.667 372.333H1117Z" fill="#C08EFF"/>
<path d="M918.422 372.333L881.189 372.333L881.189 508.855L918.422 546.089L918.422 372.333Z" fill="#C4A0FF"/>
<path d="M843.956 372.333L806.722 372.333L806.722 434.389L843.956 471.622L843.956 372.333Z" fill="#C4A0FF"/>
<path d="M893.6 484.033L918.422 508.856V484.033L906.011 471.622L893.6 484.033Z" fill="#FFF5AE"/>
<path d="M893.6 409.567L918.422 434.389V409.567L906.011 397.156L893.6 409.567Z" fill="#FFF5AE"/>
<path d="M868.778 409.567L843.956 434.389V409.567L856.367 397.156L868.778 409.567Z" fill="#FFC655"/>
<path d="M819.133 409.567L843.956 434.389V409.567L831.544 397.156L819.133 409.567Z" fill="#FFF5AE"/>
<path d="M372.333 0V372.333L-0.000335693 0H372.333Z" fill="#FFC655"/>
<path d="M322.688 -1.62752e-06L285.455 0L285.455 285.456L322.688 322.689L322.688 -1.62752e-06Z" fill="#C08EFF"/>
<path d="M248.222 -1.62752e-06L210.989 0L210.989 210.989L248.222 248.222L248.222 -1.62752e-06Z" fill="#C08EFF"/>
<path d="M173.755 -1.62752e-06L136.522 0L136.522 136.522L173.755 173.755L173.755 -1.62752e-06Z" fill="#C08EFF"/>
<path d="M99.289 -1.62752e-06L62.0557 0L62.0557 62.0555L99.289 99.2888L99.289 -1.62752e-06Z" fill="#C08EFF"/>
<path d="M347.511 260.633L322.689 285.456V260.633L335.1 248.222L347.511 260.633Z" fill="#FFF5AE"/>
<path d="M297.866 260.633L322.688 285.456V260.633L310.277 248.222L297.866 260.633Z" fill="#FFC655"/>
<path d="M347.511 186.167L322.689 210.989V186.167L335.1 173.756L347.511 186.167Z" fill="#FFF5AE"/>
<path d="M297.866 186.167L322.688 210.989V186.167L310.277 173.756L297.866 186.167Z" fill="#FFC655"/>
<path d="M347.511 111.7L322.689 136.522V111.7L335.1 99.2889L347.511 111.7Z" fill="#FFF5AE"/>
<path d="M297.866 111.7L322.688 136.522V111.7L310.277 99.2889L297.866 111.7Z" fill="#FFC655"/>
<path d="M347.511 37.2333L322.689 62.0556V37.2333L335.1 24.8222L347.511 37.2333Z" fill="#FFF5AE"/>
<path d="M297.866 37.2333L322.688 62.0555V37.2333L310.277 24.8222L297.866 37.2333Z" fill="#FFC655"/>
<path d="M273.044 186.167L248.222 210.989V186.167L260.633 173.756L273.044 186.167Z" fill="#FFF5AE"/>
<path d="M223.399 186.167L248.222 210.989V186.167L235.811 173.756L223.399 186.167Z" fill="#FFC655"/>
<path d="M273.044 111.7L248.222 136.522V111.7L260.633 99.2889L273.044 111.7Z" fill="#FFF5AE"/>
<path d="M223.399 111.7L248.222 136.522V111.7L235.811 99.2889L223.399 111.7Z" fill="#FFC655"/>
<path d="M273.044 37.2333L248.222 62.0555V37.2333L260.633 24.8222L273.044 37.2333Z" fill="#FFF5AE"/>
<path d="M223.399 37.2333L248.222 62.0555V37.2333L235.811 24.8222L223.399 37.2333Z" fill="#FFC655"/>
<path d="M198.577 111.7L173.755 136.522V111.7L186.166 99.2889L198.577 111.7Z" fill="#FFF5AE"/>
<path d="M148.933 111.7L173.755 136.522V111.7L161.344 99.2889L148.933 111.7Z" fill="#FFC655"/>
<path d="M198.577 37.2333L173.755 62.0555V37.2333L186.166 24.8222L198.577 37.2333Z" fill="#FFF5AE"/>
<path d="M148.933 37.2333L173.755 62.0555V37.2333L161.344 24.8222L148.933 37.2333Z" fill="#FFC655"/>
<path d="M124.11 37.2333L99.2881 62.0555V37.2333L111.699 24.8222L124.11 37.2333Z" fill="#FFF5AE"/>
<path d="M74.4658 37.2333L99.288 62.0555V37.2333L86.8769 24.8222L74.4658 37.2333Z" fill="#FFC655"/>
<path d="M744.667 744.667V1117L819.134 1042.53V744.667H744.667Z" fill="#FFF5AE"/>
<path d="M819.133 744.667V1042.53L893.6 968.067V744.667H819.133Z" fill="#FFC655"/>
<path d="M862.572 912.217L843.956 930.833L837.75 937.039L862.572 961.861L874.983 949.45L862.572 937.039L874.983 924.628L862.572 912.217Z" fill="#FFF5AE"/>
<path d="M862.572 837.75L843.956 856.367L837.75 862.572L862.572 887.394L874.983 874.983L862.572 862.572L874.983 850.161L862.572 837.75Z" fill="#FFF5AE"/>
<path d="M862.572 763.283L843.956 781.9L837.75 788.106L862.572 812.928L874.983 800.517L862.572 788.106L874.983 775.694L862.572 763.283Z" fill="#FFF5AE"/>
<path d="M893.601 744.667V968.067L968.067 893.6V744.667H893.601Z" fill="#FFF5AE"/>
<path d="M1117 0L744.667 -1.62752e-05L819.133 74.4667L1117 74.4667L1117 0Z" fill="#C08EFF"/>
<path d="M1117 74.4667L819.133 74.4666L893.6 148.933L1117 148.933L1117 74.4667Z" fill="#FFC655"/>
<path d="M1117 148.933L893.6 148.933L968.067 223.4L1117 223.4L1117 148.933Z" fill="#C08EFF"/>
<path d="M1117 744.667L744.667 1117H1117V744.667Z" fill="#C08EFF"/>
<path d="M1027.54 1027.54L930.834 930.833L834.13 1027.54C858.77 1052.26 893.308 1067.36 930.834 1067.36C968.36 1067.36 1002.9 1052.26 1027.54 1027.54Z" fill="#C4A0FF"/>
<path d="M372.333 744.667L-0.000335693 372.333L-0.000351969 744.667L372.333 744.667Z" fill="#C4A0FF"/>
<path d="M372.333 744.667L-0.000343831 744.667L186.166 558.5L372.333 744.667Z" fill="#C08EFF"/>
<path d="M89.4634 655.203C114.103 679.922 148.641 695.022 186.167 695.022C223.796 695.022 258.231 679.922 282.87 655.203L186.167 558.5L89.4634 655.203Z" fill="#FFC655"/>
<path d="M89.463 655.203L186.166 558.5L89.463 461.797C64.7442 486.436 49.644 520.974 49.644 558.5C49.644 596.026 64.7442 630.564 89.463 655.203Z" fill="#FFF5AE"/>
<path d="M744.666 744.667L372.333 372.333L372.333 744.667L744.666 744.667Z" fill="#FFF5AE"/>
<path d="M744.666 744.667L372.333 744.667L558.5 558.5L744.666 744.667Z" fill="#C4A0FF"/>
<path d="M4.44003e-06 372.333L372.333 744.667L372.333 372.333L4.44003e-06 372.333Z" fill="#FFC655"/>
<path d="M2.22002e-06 372.333L372.333 372.333L186.167 558.5L2.22002e-06 372.333Z" fill="#FFF5AE"/>
<path d="M282.87 461.797C258.23 437.078 223.692 421.978 186.166 421.978C148.537 421.978 114.102 437.078 89.4632 461.797L186.166 558.5L282.87 461.797Z" fill="#C4A0FF"/>
<path d="M282.87 461.797L186.167 558.5L282.87 655.203C307.589 630.564 322.689 596.026 322.689 558.5C322.689 520.974 307.589 486.436 282.87 461.797Z" fill="#C08EFF"/>
<path d="M372.333 0V372.333L744.666 0H372.333Z" fill="#C08EFF"/>
</g>
<defs>
<clipPath id="clip0_918_422">
<rect width="899" height="1117" fill="white"/>
</clipPath>
</defs>
</svg>
