<svg width="700" height="593" viewBox="0 0 700 593" fill="none" xmlns="http://www.w3.org/2000/svg">
<g opacity="0.7" filter="url(#filter0_b_2669_4472)">
<path fill-rule="evenodd" clip-rule="evenodd" d="M219.743 371.331L275.687 371.138C289.151 371.138 296.301 378.762 296.301 391.733L295.987 446.177C296.301 456.726 302.081 461.27 311.655 461.27H352.316C359.824 461.27 365.619 453.992 365.619 446.177V390.591C365.619 383.386 361.243 375.804 350.897 375.498C350.897 375.498 327.872 374.893 313.978 374.893C300.084 374.893 291.529 371.138 291.529 356.158C291.529 341.178 291.693 326.397 291.693 318.81C291.693 311.223 284.034 304.962 276.157 304.962H171.049C154.908 307.54 154.908 318.81 154.908 329.166L154.908 506.966C154.908 517.81 154.908 526.614 170.576 526.614L211.754 527.219C223.27 527.219 228.529 538.504 228.529 549.598C228.529 549.598 228.529 574.935 227.889 586.947C227.248 598.959 234.133 598.061 242.009 598.061H351.229C361.1 598.061 364.386 593.073 364.386 583.564V550.636C364.386 541.126 361.1 536.138 351.229 536.138L252.882 536.441C239.415 536.441 219.501 518.34 219.501 505.368L219.622 492.785L219.743 371.331Z" fill="url(#paint0_linear_2669_4472)"/>
<path fill-rule="evenodd" clip-rule="evenodd" d="M445.03 513.247L500.974 513.054C514.438 513.054 521.588 520.678 521.588 533.649L521.274 588.093C521.588 598.642 527.369 603.186 536.942 603.186H577.603C585.111 603.186 590.906 595.908 590.906 588.093V532.507C590.906 525.302 586.53 517.72 576.184 517.414C576.184 517.414 553.159 516.809 539.265 516.809C525.371 516.809 516.816 513.054 516.816 498.074C516.816 483.094 516.98 468.313 516.98 460.726C516.98 453.139 509.321 446.878 501.445 446.878H396.336C380.195 449.456 380.195 460.726 380.195 471.082L380.195 648.882C380.195 659.726 380.195 668.53 395.863 668.53L437.041 669.135C448.557 669.135 453.816 680.42 453.816 691.514C453.816 691.514 453.816 716.851 453.176 728.863C452.536 740.875 459.42 739.977 467.296 739.977H576.516C586.387 739.977 589.673 734.989 589.673 725.48V692.552C589.673 683.042 586.387 678.054 576.516 678.054L478.169 678.357C464.702 678.357 444.788 660.256 444.788 647.284L444.909 634.701L445.03 513.247Z" fill="url(#paint1_linear_2669_4472)"/>
<path fill-rule="evenodd" clip-rule="evenodd" d="M671.457 655.163L727.402 654.97C740.866 654.97 748.016 662.594 748.016 675.565L747.702 730.009C748.016 740.558 753.796 745.102 763.37 745.102H804.031C811.539 745.102 817.334 737.824 817.334 730.009V674.423C817.334 667.218 812.957 659.636 802.612 659.33C802.612 659.33 779.587 658.725 765.693 658.725C751.799 658.725 743.244 654.97 743.244 639.99C743.244 625.01 743.408 610.229 743.408 602.642C743.408 595.055 735.748 588.794 727.872 588.794H622.764C606.623 591.372 606.623 602.642 606.623 612.998V790.798C606.623 801.642 606.623 810.446 622.291 810.446L663.469 811.051C674.985 811.051 680.244 822.336 680.244 833.431C680.244 833.431 680.244 858.767 679.603 870.779C678.963 882.791 685.847 881.893 693.724 881.893H802.943C812.815 881.893 816.101 876.905 816.101 867.396V834.468C816.101 824.958 812.815 819.97 802.943 819.97L704.597 820.273C691.129 820.273 671.216 802.172 671.216 789.2L671.337 776.617L671.457 655.163Z" fill="url(#paint2_linear_2669_4472)"/>
<path fill-rule="evenodd" clip-rule="evenodd" d="M679.84 504.661L623.895 504.854C610.431 504.854 603.281 497.23 603.281 484.259L603.595 429.816C603.281 419.267 597.501 414.722 587.927 414.722H547.266C539.758 414.722 533.963 422 533.963 429.816V485.401C533.963 492.606 538.339 500.188 548.685 500.494C548.685 500.494 571.71 501.099 585.604 501.099C599.498 501.099 608.053 504.854 608.053 519.834C608.053 534.814 607.889 549.595 607.889 557.182C607.889 564.77 615.548 571.03 623.425 571.03H728.533C744.674 568.452 744.674 557.182 744.674 546.826V369.027C744.674 358.182 744.674 349.378 729.006 349.378L687.828 348.773C676.312 348.773 671.053 337.488 671.053 326.394C671.053 326.394 671.053 301.057 671.693 289.045C672.334 277.034 665.449 277.931 657.573 277.931H548.354C538.482 277.931 535.196 282.919 535.196 292.428V325.357C535.196 334.866 538.482 339.854 548.354 339.854L646.7 339.552C660.167 339.552 680.081 357.653 680.081 370.624L679.96 383.207L679.84 504.661Z" fill="url(#paint3_linear_2669_4472)"/>
<path fill-rule="evenodd" clip-rule="evenodd" d="M453.412 362.745L397.468 362.938C384.003 362.938 376.853 355.314 376.853 342.343L377.167 287.9C376.853 277.351 371.073 272.806 361.499 272.806H320.839C313.33 272.806 307.535 280.084 307.535 287.9V343.485C307.535 350.69 311.912 358.272 322.257 358.578C322.257 358.578 345.283 359.183 359.177 359.183C373.07 359.183 381.626 362.938 381.626 377.918C381.626 392.898 381.461 407.679 381.461 415.266C381.461 422.854 389.121 429.114 396.997 429.114H502.106C518.246 426.536 518.246 415.266 518.246 404.91V227.111C518.246 216.266 518.246 207.462 502.578 207.462L461.4 206.857C449.884 206.857 444.626 195.572 444.626 184.478C444.626 184.478 444.626 159.141 445.266 147.129C445.906 135.118 439.022 136.015 431.146 136.015H321.926C312.054 136.015 308.768 141.003 308.768 150.512V183.441C308.768 192.95 312.054 197.938 321.926 197.938L420.272 197.636C433.74 197.636 453.653 215.737 453.653 228.708L453.533 241.291L453.412 362.745Z" fill="url(#paint4_linear_2669_4472)"/>
<path fill-rule="evenodd" clip-rule="evenodd" d="M145.877 699.819L89.9325 700.013C76.4678 700.013 69.3182 692.389 69.3182 679.417L69.632 624.974C69.3182 614.425 63.5377 609.88 53.9643 609.88H13.3035C5.79515 609.88 6.10352e-05 617.158 6.10352e-05 624.974V680.559C6.10352e-05 687.765 4.37657 695.346 14.7221 695.652C14.7221 695.652 37.7474 696.257 51.6414 696.257C65.5353 696.257 74.0904 700.013 74.0904 714.993C74.0904 729.973 73.9262 744.753 73.9262 752.34C73.9262 759.928 81.5856 766.188 89.4617 766.188H194.57C210.711 763.61 210.711 752.34 210.711 741.984V564.185C210.711 553.341 210.711 544.536 195.043 544.536L153.865 543.932C142.349 543.932 137.09 532.646 137.09 521.552C137.09 521.552 137.09 496.216 137.73 484.204C138.371 472.192 131.487 473.089 123.61 473.089H14.3906C4.51881 473.089 1.23325 478.077 1.23325 487.587V520.515C1.23325 530.025 4.51881 535.012 14.3906 535.012L112.737 534.71C126.205 534.71 146.118 552.811 146.118 565.782L145.997 578.365L145.877 699.819Z" fill="url(#paint5_linear_2669_4472)"/>
</g>
<path fill-rule="evenodd" clip-rule="evenodd" d="M719.219 242.338L535.946 242.921C494.632 242.921 443.658 179.311 443.658 140.248L444.621 3.39401C443.658 -28.3736 425.921 -42.0591 396.547 -42.0591H300.82C277.781 -42.0591 260 -20.1428 260 3.39401V147.558C260 169.257 271.493 195.96 303.237 196.883C303.237 196.883 362.273 198.302 404.905 198.302C447.537 198.302 487.337 239.049 487.337 284.161C487.337 329.273 486.833 367.976 486.833 390.825C486.833 413.675 508.399 428.656 532.566 428.656H857.015C906.54 420.892 906.54 386.954 906.54 355.767V-160.312C906.54 -192.969 914.283 -228.485 866.209 -228.485L732.116 -229.047C696.78 -229.047 672.902 -274.646 672.902 -308.057C672.902 -308.057 672.902 -380.485 674.866 -416.658C676.83 -452.832 647.964 -454 623.797 -454H304.156C273.865 -454 263.784 -438.98 263.784 -410.342V-311.18C263.784 -282.542 273.865 -267.522 304.156 -267.522L586.561 -268.433C681.353 -270.498 718.181 -198.481 719.96 -136.144L719.589 -78.8933L719.219 242.338ZM718.181 -416.952V-307.173C718.181 -286.932 736.301 -270.498 758.62 -270.498H866.102C888.42 -270.498 906.54 -286.932 906.54 -307.173V-416.952C906.54 -437.193 888.42 -453.627 866.102 -453.627H758.62C736.301 -453.627 718.181 -437.193 718.181 -416.952Z" fill="#8A2BE2"/>
<defs>
<filter id="filter0_b_2669_4472" x="-38.0833" y="97.9167" width="1046.13" height="990.168" filterUnits="userSpaceOnUse" color-interpolation-filters="sRGB">
<feFlood flood-opacity="0" result="BackgroundImageFix"/>
<feGaussianBlur in="BackgroundImageFix" stdDeviation="19.0417"/>
<feComposite in2="SourceAlpha" operator="in" result="effect1_backgroundBlur_2669_4472"/>
<feBlend mode="normal" in="SourceGraphic" in2="effect1_backgroundBlur_2669_4472" result="shape"/>
</filter>
<linearGradient id="paint0_linear_2669_4472" x1="365.619" y1="451.519" x2="154.908" y2="451.519" gradientUnits="userSpaceOnUse">
<stop stop-color="#8A2BE2"/>
<stop offset="0.925" stop-color="#0A0612"/>
</linearGradient>
<linearGradient id="paint1_linear_2669_4472" x1="590.906" y1="593.435" x2="380.195" y2="593.435" gradientUnits="userSpaceOnUse">
<stop stop-color="#8A2BE2"/>
<stop offset="0.925" stop-color="#0A0612"/>
</linearGradient>
<linearGradient id="paint2_linear_2669_4472" x1="817.334" y1="735.351" x2="606.623" y2="735.351" gradientUnits="userSpaceOnUse">
<stop stop-color="#8A2BE2"/>
<stop offset="0.925" stop-color="#0A0612"/>
</linearGradient>
<linearGradient id="paint3_linear_2669_4472" x1="533.963" y1="424.473" x2="744.674" y2="424.473" gradientUnits="userSpaceOnUse">
<stop stop-color="#8A2BE2"/>
<stop offset="0.925" stop-color="#0A0612"/>
</linearGradient>
<linearGradient id="paint4_linear_2669_4472" x1="307.535" y1="282.557" x2="518.246" y2="282.557" gradientUnits="userSpaceOnUse">
<stop stop-color="#8A2BE2"/>
<stop offset="0.925" stop-color="#0A0612"/>
</linearGradient>
<linearGradient id="paint5_linear_2669_4472" x1="6.10352e-05" y1="619.631" x2="210.711" y2="619.631" gradientUnits="userSpaceOnUse">
<stop stop-color="#8A2BE2"/>
<stop offset="0.925" stop-color="#0A0612"/>
</linearGradient>
</defs>
</svg>
