<svg width="500" height="457" viewBox="0 0 500 457" fill="none" xmlns="http://www.w3.org/2000/svg">
<g opacity="0.7" filter="url(#filter0_b_2326_3589)">
<path fill-rule="evenodd" clip-rule="evenodd" d="M219.743 -221.669L275.687 -221.862C289.151 -221.862 296.301 -214.238 296.301 -201.267L295.987 -146.823C296.301 -136.274 302.081 -131.73 311.655 -131.73H352.316C359.824 -131.73 365.619 -139.008 365.619 -146.823V-202.409C365.619 -209.614 361.243 -217.196 350.897 -217.502C350.897 -217.502 327.872 -218.107 313.978 -218.107C300.084 -218.107 291.529 -221.862 291.529 -236.842C291.529 -251.822 291.693 -266.603 291.693 -274.19C291.693 -281.777 284.034 -288.038 276.157 -288.038H171.049C154.908 -285.46 154.908 -274.19 154.908 -263.834L154.908 -86.0344C154.908 -75.1902 154.908 -66.3858 170.576 -66.3858L211.754 -65.7812C223.27 -65.7812 228.529 -54.496 228.529 -43.4015C228.529 -43.4015 228.529 -18.0652 227.889 -6.0533C227.248 5.95862 234.133 5.061 242.009 5.061L351.229 5.061C361.1 5.061 364.386 0.0734525 364.386 -9.43619V-42.3645C364.386 -51.8741 361.1 -56.8617 351.229 -56.8617L252.882 -56.5594C239.415 -56.5594 219.501 -74.6605 219.501 -87.6319L219.622 -100.215L219.743 -221.669Z" fill="url(#paint0_linear_2326_3589)"/>
<path fill-rule="evenodd" clip-rule="evenodd" d="M445.03 -79.7527L500.974 -79.9462C514.438 -79.9462 521.588 -72.3222 521.588 -59.3507L521.274 -4.90735C521.588 5.64157 527.369 10.186 536.942 10.186H577.603C585.111 10.186 590.906 2.9084 590.906 -4.90735V-60.4927C590.906 -67.6983 586.53 -75.2796 576.184 -75.5861C576.184 -75.5861 553.159 -76.1906 539.265 -76.1906C525.371 -76.1906 516.816 -79.9462 516.816 -94.9261C516.816 -109.906 516.98 -124.687 516.98 -132.274C516.98 -139.861 509.321 -146.122 501.445 -146.122H396.336C380.195 -143.544 380.195 -132.274 380.195 -121.918L380.195 55.8816C380.195 66.7258 380.195 75.5302 395.863 75.5302L437.041 76.1348C448.557 76.1348 453.816 87.42 453.816 98.5145C453.816 98.5145 453.816 123.851 453.176 135.863C452.536 147.875 459.42 146.977 467.296 146.977L576.516 146.977C586.387 146.977 589.673 141.989 589.673 132.48V99.5515C589.673 90.0419 586.387 85.0544 576.516 85.0544L478.169 85.3566C464.702 85.3566 444.788 67.2555 444.788 54.2841L444.909 41.7012L445.03 -79.7527Z" fill="url(#paint1_linear_2326_3589)"/>
<path fill-rule="evenodd" clip-rule="evenodd" d="M145.877 106.819L89.9325 107.013C76.4678 107.013 69.3182 99.3886 69.3182 86.4171L69.632 31.9738C69.3182 21.4248 63.5377 16.8804 53.9643 16.8804H13.3035C5.79515 16.8804 6.10352e-05 24.158 6.10352e-05 31.9738V87.5591C6.10352e-05 94.7647 4.37657 102.346 14.7221 102.652C14.7221 102.652 37.7474 103.257 51.6414 103.257C65.5353 103.257 74.0904 107.013 74.0904 121.993C74.0904 136.973 73.9262 151.753 73.9262 159.34C73.9262 166.928 81.5856 173.188 89.4617 173.188H194.57C210.711 170.61 210.711 159.34 210.711 148.984V-28.8152C210.711 -39.6594 210.711 -48.4638 195.043 -48.4638L153.865 -49.0684C142.349 -49.0684 137.09 -60.3536 137.09 -71.4481C137.09 -71.4481 137.09 -96.7844 137.73 -108.796C138.371 -120.808 131.487 -119.911 123.61 -119.911H14.3906C4.51881 -119.911 1.23325 -114.923 1.23325 -105.413V-72.4851C1.23325 -62.9755 4.51881 -57.9879 14.3906 -57.9879L112.737 -58.2902C126.205 -58.2902 146.118 -40.1891 146.118 -27.2177L145.997 -14.6348L145.877 106.819Z" fill="url(#paint2_linear_2326_3589)"/>
<path fill-rule="evenodd" clip-rule="evenodd" d="M370.614 248.716L314.67 248.909C301.205 248.909 294.056 241.285 294.056 228.314L294.369 173.87C294.056 163.321 288.275 158.777 278.702 158.777L238.041 158.777C230.532 158.777 224.737 166.054 224.737 173.87L224.737 229.456C224.737 236.661 229.114 244.242 239.459 244.549C239.459 244.549 262.485 245.154 276.379 245.154C290.273 245.154 298.828 248.909 298.828 263.889C298.828 278.869 298.664 293.65 298.664 301.237C298.664 308.824 306.323 315.085 314.199 315.085H419.308C435.448 312.506 435.448 301.237 435.448 290.881L435.448 113.081C435.448 102.237 435.448 93.4327 419.781 93.4327L378.602 92.8281C367.086 92.8281 361.828 81.5429 361.828 70.4484C361.828 70.4484 361.828 45.1121 362.468 33.1002C363.108 21.0883 356.224 21.9859 348.348 21.9859L239.128 21.9859C229.256 21.9859 225.971 26.9734 225.971 36.4831V69.4114C225.971 78.921 229.256 83.9085 239.128 83.9085L337.474 83.6062C350.942 83.6062 370.856 101.707 370.856 114.679L370.735 127.262L370.614 248.716Z" fill="url(#paint3_linear_2326_3589)"/>
<path fill-rule="evenodd" clip-rule="evenodd" d="M597.042 390.632L541.098 390.825C527.633 390.825 520.483 383.201 520.483 370.23L520.797 315.786C520.483 305.237 514.703 300.693 505.129 300.693L464.469 300.693C456.96 300.693 451.165 307.971 451.165 315.786L451.165 371.372C451.165 378.577 455.542 386.158 465.887 386.465C465.887 386.465 488.912 387.07 502.806 387.07C516.7 387.07 525.255 390.825 525.255 405.805C525.255 420.785 525.091 435.566 525.091 443.153C525.091 450.74 532.751 457.001 540.627 457.001H645.735C661.876 454.422 661.876 443.153 661.876 432.797L661.876 254.997C661.876 244.153 661.876 235.349 646.208 235.349L605.03 234.744C593.514 234.744 588.255 223.459 588.255 212.364C588.255 212.364 588.255 187.028 588.896 175.016C589.536 163.004 582.652 163.902 574.776 163.902L465.556 163.902C455.684 163.902 452.398 168.889 452.398 178.399V211.327C452.398 220.837 455.684 225.825 465.556 225.825L563.902 225.522C577.37 225.522 597.283 243.623 597.283 256.595L597.162 269.178L597.042 390.632Z" fill="url(#paint4_linear_2326_3589)"/>
</g>
<defs>
<filter id="filter0_b_2326_3589" x="-38.0833" y="-495.083" width="1046.13" height="990.168" filterUnits="userSpaceOnUse" color-interpolation-filters="sRGB">
<feFlood flood-opacity="0" result="BackgroundImageFix"/>
<feGaussianBlur in="BackgroundImageFix" stdDeviation="19.0417"/>
<feComposite in2="SourceAlpha" operator="in" result="effect1_backgroundBlur_2326_3589"/>
<feBlend mode="normal" in="SourceGraphic" in2="effect1_backgroundBlur_2326_3589" result="shape"/>
</filter>
<linearGradient id="paint0_linear_2326_3589" x1="365.619" y1="-141.481" x2="154.908" y2="-141.481" gradientUnits="userSpaceOnUse">
<stop stop-color="#8A2BE2"/>
<stop offset="0.925" stop-color="#0A0612"/>
</linearGradient>
<linearGradient id="paint1_linear_2326_3589" x1="590.906" y1="0.4352" x2="380.195" y2="0.4352" gradientUnits="userSpaceOnUse">
<stop stop-color="#8A2BE2"/>
<stop offset="0.925" stop-color="#0A0612"/>
</linearGradient>
<linearGradient id="paint2_linear_2326_3589" x1="6.10352e-05" y1="26.6312" x2="210.711" y2="26.6312" gradientUnits="userSpaceOnUse">
<stop stop-color="#8A2BE2"/>
<stop offset="0.925" stop-color="#0A0612"/>
</linearGradient>
<linearGradient id="paint3_linear_2326_3589" x1="224.737" y1="168.528" x2="435.448" y2="168.528" gradientUnits="userSpaceOnUse">
<stop stop-color="#8A2BE2"/>
<stop offset="0.925" stop-color="#0A0612"/>
</linearGradient>
<linearGradient id="paint4_linear_2326_3589" x1="451.165" y1="310.444" x2="661.876" y2="310.444" gradientUnits="userSpaceOnUse">
<stop stop-color="#8A2BE2"/>
<stop offset="0.925" stop-color="#0A0612"/>
</linearGradient>
</defs>
</svg>
