<svg width="481" height="652" viewBox="0 0 481 652" fill="none" xmlns="http://www.w3.org/2000/svg">
<g opacity="0.1" filter="url(#filter0_f_2332_8823)">
<path fill-rule="evenodd" clip-rule="evenodd" d="M339.533 511.771L206.022 512.195C175.925 512.195 138.791 465.856 138.791 437.399L139.493 337.704C138.791 314.562 125.87 304.592 104.471 304.592H34.7361C17.9531 304.592 4.99957 320.558 4.99957 337.704V442.725C4.99957 458.533 13.372 477.985 36.4969 478.657C36.4969 478.657 79.5036 479.691 110.56 479.691C141.617 479.691 170.611 509.375 170.611 542.238C170.611 575.101 170.244 603.296 170.244 619.941C170.244 636.586 185.954 647.5 203.559 647.5L439.915 647.5C475.993 641.844 475.993 617.121 475.993 594.401L475.993 218.447C475.993 194.657 481.634 168.784 446.613 168.784L348.928 168.375C323.186 168.375 305.791 135.156 305.791 110.817C305.791 110.817 305.791 58.0546 307.222 31.7029C308.653 5.35111 287.625 4.5 270.02 4.5L37.1662 4.5C15.1001 4.5 7.75604 15.4417 7.75604 36.3039L7.75604 108.542C7.75604 129.404 15.1001 140.346 37.1662 140.346L242.894 139.683C311.948 138.178 338.777 190.641 340.073 236.053L339.803 277.759L339.533 511.771ZM338.777 31.489V111.461C338.777 126.206 351.977 138.178 368.236 138.178L446.534 138.178C462.793 138.178 475.993 126.206 475.993 111.461L475.993 31.489C475.993 16.7437 462.793 4.77178 446.534 4.77178L368.236 4.77178C351.977 4.77178 338.777 16.7437 338.777 31.489Z" fill="black"/>
<path d="M6.638 620.783V537.58C6.638 522.835 19.8383 510.863 36.0968 510.863H109.108C125.367 510.863 138.567 522.835 138.567 537.58V620.783C138.567 635.528 125.367 647.5 109.108 647.5H36.0968C19.8383 647.5 6.638 635.528 6.638 620.783Z" fill="black"/>
<path fill-rule="evenodd" clip-rule="evenodd" d="M339.533 511.771L206.022 512.195C175.925 512.195 138.791 465.856 138.791 437.399L139.493 337.704C138.791 314.562 125.87 304.592 104.471 304.592H34.7361C17.9531 304.592 4.99957 320.558 4.99957 337.704V442.725C4.99957 458.533 13.372 477.985 36.4969 478.657C36.4969 478.657 79.5036 479.691 110.56 479.691C141.617 479.691 170.611 509.375 170.611 542.238C170.611 575.101 170.244 603.296 170.244 619.941C170.244 636.586 185.954 647.5 203.559 647.5L439.915 647.5C475.993 641.844 475.993 617.121 475.993 594.401L475.993 218.447C475.993 194.657 481.634 168.784 446.613 168.784L348.928 168.375C323.186 168.375 305.791 135.156 305.791 110.817C305.791 110.817 305.791 58.0546 307.222 31.7029C308.653 5.35111 287.625 4.5 270.02 4.5L37.1662 4.5C15.1001 4.5 7.75604 15.4417 7.75604 36.3039L7.75604 108.542C7.75604 129.404 15.1001 140.346 37.1662 140.346L242.894 139.683C311.948 138.178 338.777 190.641 340.073 236.053L339.803 277.759L339.533 511.771ZM338.777 31.489V111.461C338.777 126.206 351.977 138.178 368.236 138.178L446.534 138.178C462.793 138.178 475.993 126.206 475.993 111.461L475.993 31.489C475.993 16.7437 462.793 4.77178 446.534 4.77178L368.236 4.77178C351.977 4.77178 338.777 16.7437 338.777 31.489Z" stroke="white" stroke-width="1.12478" stroke-miterlimit="1.5" stroke-linecap="round" stroke-linejoin="round"/>
<path d="M6.638 620.783V537.58C6.638 522.835 19.8383 510.863 36.0968 510.863H109.108C125.367 510.863 138.567 522.835 138.567 537.58V620.783C138.567 635.528 125.367 647.5 109.108 647.5H36.0968C19.8383 647.5 6.638 635.528 6.638 620.783Z" stroke="white" stroke-width="1.12478" stroke-miterlimit="1.5" stroke-linecap="round" stroke-linejoin="round"/>
</g>
<defs>
<filter id="filter0_f_2332_8823" x="0.688229" y="0.188229" width="479.952" height="651.624" filterUnits="userSpaceOnUse" color-interpolation-filters="sRGB">
<feFlood flood-opacity="0" result="BackgroundImageFix"/>
<feBlend mode="normal" in="SourceGraphic" in2="BackgroundImageFix" result="shape"/>
<feGaussianBlur stdDeviation="1.87464" result="effect1_foregroundBlur_2332_8823"/>
</filter>
</defs>
</svg>
