<svg width="46" height="45" viewBox="0 0 46 45" fill="none" xmlns="http://www.w3.org/2000/svg">
<g clip-path="url(#clip0_1233_459)">
<path opacity="0.3" d="M8 13.125V36L8.075 36.375L8.15 36.75C8.1875 36.875 8.23125 36.9875 8.28125 37.0875C8.31875 37.2125 8.36875 37.325 8.43125 37.425C8.48125 37.55 8.54375 37.6562 8.61875 37.7437L8.80625 38.0438C8.89375 38.1187 8.98125 38.2 9.06875 38.2875C9.15625 38.375 9.24375 38.4562 9.33125 38.5312C9.45625 38.6062 9.5625 38.6687 9.65 38.7187C9.75 38.8062 9.85625 38.8687 9.96875 38.9062C10.0938 38.9812 10.2063 39.0437 10.3063 39.0937C10.4313 39.1312 10.5437 39.1687 10.6437 39.2062L11.0188 39.2812C11.1438 39.3062 11.2688 39.325 11.3938 39.3375H34.6437L35.0188 39.2625L35.3938 39.1875C35.5188 39.15 35.6313 39.1062 35.7313 39.0562C35.8563 39.0187 35.9688 38.9687 36.0688 38.9062C36.1938 38.8562 36.3 38.7937 36.3875 38.7187L36.6875 38.5312C36.7625 38.4437 36.8438 38.3562 36.9313 38.2687C37.0188 38.1812 37.1 38.0937 37.175 38.0062C37.25 37.8812 37.3125 37.775 37.3625 37.6875C37.45 37.5875 37.5125 37.4812 37.55 37.3687C37.625 37.2437 37.6875 37.1312 37.7375 37.0312C37.775 36.9062 37.8125 36.7937 37.85 36.6937L37.925 36.3188C37.95 36.1938 37.9688 36.0687 37.9813 35.9437V12.75L37.9063 12.375L37.8313 12C37.7938 11.875 37.75 11.7625 37.7 11.6625C37.6625 11.5375 37.6125 11.425 37.55 11.325C37.5 11.2 37.4375 11.0937 37.3625 11.0062L37.175 10.7062C37.0875 10.6313 37 10.55 36.9125 10.4625C36.825 10.375 36.7375 10.2937 36.65 10.2187C36.525 10.1437 36.4188 10.0812 36.3313 10.0312C36.2313 9.94375 36.125 9.88125 36.0125 9.84375C35.8875 9.76875 35.775 9.70625 35.675 9.65625C35.55 9.61875 35.4375 9.58125 35.3375 9.54375L34.9625 9.46875C34.8375 9.44375 34.725 9.4125 34.625 9.375H11.375L11 9.45L10.625 9.525C10.5 9.5625 10.3875 9.60625 10.2875 9.65625C10.1625 9.69375 10.05 9.74375 9.95 9.80625C9.825 9.85625 9.71875 9.91875 9.63125 9.99375L9.33125 10.1812C9.25625 10.2687 9.175 10.3563 9.0875 10.4438C9 10.5313 8.91875 10.6187 8.84375 10.7062C8.76875 10.8312 8.70625 10.9375 8.65625 11.025C8.56875 11.125 8.50625 11.2313 8.46875 11.3438C8.39375 11.4688 8.33125 11.5812 8.28125 11.6812C8.24375 11.8062 8.20625 11.9187 8.16875 12.0187L8.09375 12.3937C8.06875 12.5187 8.0375 12.6375 8 12.75V13.125Z" fill="#793592"/>
<path d="M16.4375 13.125V11.25C16.4375 7.63125 19.3812 4.6875 23 4.6875C26.6187 4.6875 29.5625 7.63125 29.5625 11.25V13.125H31.4375V11.25C31.4375 6.5625 27.6875 2.8125 23 2.8125C18.3125 2.8125 14.5625 6.5625 14.5625 11.25V13.125H16.4375Z" fill="#793592"/>
</g>
<defs>
<clipPath id="clip0_1233_459">
<rect width="45" height="45" fill="white" transform="translate(0.5)"/>
</clipPath>
</defs>
</svg>
