<svg width="60" height="44" viewBox="0 0 60 44" fill="none" xmlns="http://www.w3.org/2000/svg">
<path d="M12.295 43.0324C8.36741 43.0324 5.33636 41.8371 3.20182 39.4464C1.06727 37.0557 0 33.4697 0 28.6883C0 24.5046 0.768436 19.8513 2.30531 14.7284C3.84218 9.60545 5.89134 4.696 8.45279 0H24.5899V0.768435C22.4554 4.43985 20.6624 7.81243 19.2109 10.8862C17.7594 13.9599 16.6068 16.7348 15.7529 19.2109C18.7413 19.8086 20.9612 21.1747 22.4127 23.3092C23.8642 25.4438 24.5899 28.0052 24.5899 30.9936C24.5899 34.5796 23.5227 37.4826 21.3881 39.7025C19.339 41.9224 16.3079 43.0324 12.295 43.0324ZM46.8746 43.0324C42.947 43.0324 39.916 41.8371 37.7814 39.4464C35.6469 37.0557 34.5796 33.4697 34.5796 28.6883C34.5796 24.5046 35.348 19.8513 36.8849 14.7284C38.4218 9.60545 40.471 4.696 43.0324 0H59.1696V0.768435C57.035 4.43985 55.242 7.81243 53.7905 10.8862C52.339 13.9599 51.1864 16.7348 50.3325 19.2109C53.3209 19.8086 55.5408 21.1747 56.9923 23.3092C58.4438 25.4438 59.1696 28.0052 59.1696 30.9936C59.1696 34.5796 58.1023 37.4826 55.9677 39.7025C53.9186 41.9224 50.8875 43.0324 46.8746 43.0324Z" fill="#8A2BE2"/>
</svg>
