<svg width="176" height="24" viewBox="0 0 176 24" fill="none" xmlns="http://www.w3.org/2000/svg">
<path d="M12.8652 2.99616C12.4799 2.33201 11.5208 2.33201 11.1354 2.99616L8.42132 7.67347C8.23094 8.00155 7.90189 8.22544 7.52683 8.28209L2.44052 9.05032C1.58623 9.17935 1.28658 10.258 1.95188 10.8092L5.74097 13.9484C6.09171 14.239 6.25663 14.6973 6.17143 15.1448L5.18026 20.3499C5.02358 21.1727 5.88737 21.812 6.62852 21.4218L11.4179 18.9C11.7825 18.708 12.2182 18.708 12.5827 18.9L17.3721 21.4218C18.1132 21.812 18.977 21.1727 18.8203 20.3499L17.8292 15.1448C17.744 14.6973 17.9089 14.239 18.2596 13.9484L22.0487 10.8092C22.714 10.258 22.4144 9.17935 21.5601 9.05032L16.4738 8.28209C16.0987 8.22544 15.7697 8.00155 15.5793 7.67347L12.8652 2.99616Z" fill="#FFC107"/>
<path d="M50.8652 2.99616C50.4799 2.33201 49.5208 2.33201 49.1354 2.99616L46.4213 7.67347C46.2309 8.00155 45.9019 8.22544 45.5268 8.28209L40.4405 9.05032C39.5862 9.17935 39.2866 10.258 39.9519 10.8092L43.741 13.9484C44.0917 14.239 44.2566 14.6973 44.1714 15.1448L43.1803 20.3499C43.0236 21.1727 43.8874 21.812 44.6285 21.4218L49.4179 18.9C49.7825 18.708 50.2182 18.708 50.5827 18.9L55.3721 21.4218C56.1132 21.812 56.977 21.1727 56.8203 20.3499L55.8292 15.1448C55.744 14.6973 55.9089 14.239 56.2596 13.9484L60.0487 10.8092C60.714 10.258 60.4144 9.17935 59.5601 9.05032L54.4738 8.28209C54.0987 8.22544 53.7697 8.00155 53.5793 7.67347L50.8652 2.99616Z" fill="#FFC107"/>
<path d="M88.8652 2.99616C88.4799 2.33201 87.5208 2.33201 87.1354 2.99616L84.4213 7.67347C84.2309 8.00155 83.9019 8.22544 83.5268 8.28209L78.4405 9.05032C77.5862 9.17935 77.2866 10.258 77.9519 10.8092L81.741 13.9484C82.0917 14.239 82.2566 14.6973 82.1714 15.1448L81.1803 20.3499C81.0236 21.1727 81.8874 21.812 82.6285 21.4218L87.4179 18.9C87.7825 18.708 88.2182 18.708 88.5827 18.9L93.3721 21.4218C94.1132 21.812 94.977 21.1727 94.8203 20.3499L93.8292 15.1448C93.744 14.6973 93.9089 14.239 94.2596 13.9484L98.0487 10.8092C98.714 10.258 98.4144 9.17935 97.5601 9.05032L92.4738 8.28209C92.0987 8.22544 91.7697 8.00155 91.5793 7.67347L88.8652 2.99616Z" fill="#FFC107"/>
<path d="M126.865 2.99616C126.48 2.33201 125.521 2.33201 125.135 2.99616L122.421 7.67347C122.231 8.00155 121.902 8.22544 121.527 8.28209L116.441 9.05032C115.586 9.17935 115.287 10.258 115.952 10.8092L119.741 13.9484C120.092 14.239 120.257 14.6973 120.171 15.1448L119.18 20.3499C119.024 21.1727 119.887 21.812 120.629 21.4218L125.418 18.9C125.782 18.708 126.218 18.708 126.583 18.9L131.372 21.4218C132.113 21.812 132.977 21.1727 132.82 20.3499L131.829 15.1448C131.744 14.6973 131.909 14.239 132.26 13.9484L136.049 10.8092C136.714 10.258 136.414 9.17935 135.56 9.05032L130.474 8.28209C130.099 8.22544 129.77 8.00155 129.579 7.67347L126.865 2.99616Z" fill="#FFC107"/>
<path d="M164.5 2.46206C164.5 2.20274 164.292 1.97369 164.05 2.06642C163.849 2.14343 163.669 2.28729 163.547 2.498L160.832 7.17531C160.642 7.50339 160.313 7.72729 159.938 7.78393L154.852 8.55216C153.997 8.68119 153.698 9.7598 154.363 10.311L158.152 13.4502C158.503 13.7408 158.668 14.1992 158.583 14.6466L157.591 19.8517C157.435 20.6746 158.299 21.3139 159.04 20.9236L163.829 18.4018C163.876 18.3771 163.924 18.3556 163.973 18.3373C164.244 18.2355 164.5 18.0143 164.5 17.7243V2.46206Z" fill="#FFC107"/>
</svg>
