<svg width="46" height="45" viewBox="0 0 46 45" fill="none" xmlns="http://www.w3.org/2000/svg">
<path opacity="0.3" d="M35.7349 37.0679C18.8475 24.424 9.45119 28.1804 8.23876 27.4767C7.44851 26.9896 6.77734 22.3347 6.77734 19.4931C6.77734 16.6623 7.4431 12.3647 8.23876 11.8883C9.45119 11.1847 18.8475 14.9898 35.7349 2.34587" fill="#793592"/>
<path opacity="0.3" d="M36.9881 37.5399C40.0007 37.5399 42.4429 29.5561 42.4429 19.7075C42.4429 9.85887 40.0007 1.875 36.9881 1.875C33.9754 1.875 31.5332 9.85887 31.5332 19.7075C31.5332 29.5561 33.9754 37.5399 36.9881 37.5399Z" fill="#793592"/>
<path fill-rule="evenodd" clip-rule="evenodd" d="M12.3037 41.5604C10.8044 40.9109 10.7178 36.2398 12.0493 27.558V27.5525L15.2969 26.3996L19.4808 28.4889C18.3496 29.5065 17.6189 30.4537 17.2941 31.3468C17.0029 32.1319 17.1745 32.4467 17.3672 32.8001C17.504 33.051 17.6514 33.3214 17.6514 33.7933C17.6514 34.38 17.4213 34.8998 17.1998 35.4001C16.9943 35.8645 16.7962 36.3121 16.7962 36.7811C16.7962 37.3059 17.2674 37.8543 17.7021 38.3603C18.0744 38.7935 18.42 39.1957 18.42 39.5253C18.42 40.2398 14.5553 42.5347 12.3037 41.5604ZM2.44727 19.715C2.44727 15.2334 4.41205 12.7111 8.34704 12.1374L8.42282 27.2386C2.44727 27.2386 2.44727 19.715 2.44727 19.715ZM36.9799 20.3375C36.9799 17.7881 34.9231 15.7205 32.3792 15.7205L32.3683 15.7259C32.1302 15.7259 31.8974 15.7475 31.6647 15.78C31.5781 17.0466 31.5348 18.3673 31.5348 19.7204C31.5348 21.5228 31.616 23.2711 31.7675 24.9165C31.9678 24.9436 32.1627 24.9598 32.3792 24.9598C34.9231 24.9598 36.9799 22.8922 36.9799 20.3375Z" fill="#793592"/>
</svg>
