<svg width="35" height="35" viewBox="0 0 35 35" fill="none" xmlns="http://www.w3.org/2000/svg">
<path d="M16.7356 4.99903C19.3037 4.9991 21.8119 5.77561 23.9308 7.22665C26.0498 8.6777 27.6805 10.7355 28.609 13.1299C29.5375 15.5243 29.7204 18.1435 29.1337 20.6438C28.5469 23.144 27.218 25.4084 25.3213 27.1399C23.4246 28.8713 21.0487 29.9889 18.5055 30.3459C15.9623 30.7028 13.3705 30.2826 11.0704 29.1402C8.77033 27.9979 6.86934 26.1868 5.61696 23.9447C4.36457 21.7026 3.8193 19.1343 4.05272 16.5768C4.06526 16.438 4.10502 16.303 4.16973 16.1795C4.23444 16.0561 4.32283 15.9466 4.42985 15.8573C4.53688 15.768 4.66044 15.7007 4.79348 15.6592C4.92653 15.6176 5.06645 15.6027 5.20526 15.6153C5.34407 15.6278 5.47905 15.6676 5.60249 15.7323C5.72594 15.797 5.83543 15.8854 5.92471 15.9924C6.014 16.0994 6.08133 16.223 6.12286 16.356C6.16439 16.4891 6.17931 16.629 6.16677 16.7678C6.02119 18.3183 6.2205 19.8819 6.75039 21.3463C7.28029 22.8107 8.12765 24.1398 9.23171 25.2381C10.2152 26.2262 11.3847 27.0096 12.6727 27.5432C13.9606 28.0767 15.3415 28.3499 16.7356 28.3469C18.5447 28.3466 20.3236 27.8838 21.9035 27.0025C23.4834 26.1212 24.8117 24.8507 25.7625 23.3116C26.7132 21.7725 27.2547 20.0159 27.3356 18.2086C27.4164 16.4014 27.034 14.6034 26.2245 12.9856C25.415 11.3677 24.2054 9.98365 22.7105 8.96478C21.2157 7.94591 19.4852 7.32609 17.6834 7.16416C15.8816 7.00224 14.0683 7.30359 12.4157 8.03961C10.7631 8.77562 9.32615 9.92186 8.2412 11.3695H12.141C12.4099 11.3696 12.6687 11.4717 12.8652 11.6553C13.0617 11.8388 13.1812 12.0901 13.1995 12.3584C13.2178 12.6267 13.1336 12.8919 12.9639 13.1005C12.7943 13.3091 12.5517 13.4455 12.2853 13.4821L12.141 13.492H5.76915C5.51269 13.492 5.26491 13.3991 5.07164 13.2306C4.87836 13.062 4.75266 12.8291 4.71778 12.5751L4.70788 12.4307V6.06313C4.70796 5.79424 4.8101 5.53541 4.99367 5.33893C5.17724 5.14245 5.42855 5.02298 5.69681 5.00465C5.96507 4.98632 6.23029 5.07051 6.43888 5.24019C6.64746 5.40988 6.78386 5.65242 6.82051 5.91879L6.83042 6.06313L6.829 9.72946C8.02201 8.251 9.53114 7.05865 11.2455 6.24005C12.9598 5.42144 14.8358 4.99738 16.7356 4.99903ZM15.6743 10.6591C15.9308 10.6591 16.1786 10.752 16.3718 10.9206C16.5651 11.0891 16.6908 11.322 16.7257 11.5761L16.7356 11.7204V17.7343H19.9194C20.1883 17.7343 20.4471 17.8365 20.6436 18.0201C20.8401 18.2036 20.9595 18.4549 20.9779 18.7232C20.9962 18.9915 20.912 19.2567 20.7423 19.4653C20.5726 19.6738 20.3301 19.8102 20.0637 19.8469L19.9194 19.8568H15.6743C15.4179 19.8568 15.1701 19.7639 14.9768 19.5953C14.7835 19.4268 14.6578 19.1939 14.623 18.9399L14.6131 18.7955V11.7204C14.6131 11.4389 14.7249 11.169 14.9239 10.97C15.1229 10.7709 15.3929 10.6591 15.6743 10.6591Z" fill="#8A96A3"/>
</svg>
