<svg width="46" height="45" viewBox="0 0 46 45" fill="none" xmlns="http://www.w3.org/2000/svg">
<path opacity="0.3" fill-rule="evenodd" clip-rule="evenodd" d="M21.125 37.5C12.8375 37.5 6.125 30.7875 6.125 22.5C6.125 14.2125 12.8375 7.5 21.125 7.5C29.4125 7.5 36.125 14.2125 36.125 22.5C36.125 26.0625 34.8875 29.3062 32.8438 31.875L39.875 37.5H21.125Z" fill="#793592"/>
<path fill-rule="evenodd" clip-rule="evenodd" d="M28.3624 20.5125L29.1686 20.925C29.3936 21.0562 29.6749 20.9625 29.7874 20.7375C29.8436 20.6437 29.8624 20.55 29.8436 20.4375L29.6561 19.5375L30.3311 18.9C30.5186 18.7125 30.5186 18.4125 30.3311 18.225C30.2685 18.1532 30.1819 18.1066 30.0874 18.0937L29.1499 17.9625L28.7374 17.1375C28.6249 16.9125 28.3624 16.8 28.1186 16.95C28.0249 16.95 27.9311 17.0437 27.9311 17.1375L27.4999 17.9625L26.5999 18.0937C26.3374 18.1312 26.1499 18.375 26.1874 18.6187C26.1874 18.7312 26.2624 18.8062 26.3374 18.9L26.9936 19.5375L26.8061 20.4375C26.8061 20.7 26.9561 20.925 27.2186 21C27.3124 21 27.4061 21 27.5186 20.925L28.3249 20.5125H28.3624ZM20.8624 20.5125L21.6686 20.925C21.8936 21.0562 22.1749 20.9625 22.2874 20.7375C22.3436 20.6437 22.3624 20.55 22.3436 20.4375L22.1561 19.5375L22.8311 18.9C23.0186 18.7125 23.0186 18.4125 22.8311 18.225C22.7685 18.1532 22.6819 18.1066 22.5874 18.0937L21.6499 17.9625L21.2374 17.1375C21.1249 16.9125 20.8624 16.8 20.6186 16.95C20.5249 16.95 20.4311 17.0437 20.4311 17.1375L19.9999 17.9625L19.0999 18.0937C18.8374 18.1312 18.6499 18.375 18.6874 18.6187C18.6874 18.7312 18.7624 18.8062 18.8374 18.9L19.4936 19.5375L19.3061 20.4375C19.3061 20.7 19.4561 20.925 19.7186 21C19.8124 21 19.9061 21 20.0186 20.925L20.8249 20.5125H20.8624ZM13.3624 20.5125L14.1686 20.925C14.3936 21.0562 14.6749 20.9625 14.7874 20.7375C14.8436 20.6437 14.8624 20.55 14.8436 20.4375L14.6561 19.5375L15.3311 18.9C15.5186 18.7125 15.5186 18.4125 15.3311 18.225C15.2685 18.1532 15.1819 18.1066 15.0874 18.0937L14.1499 17.9625L13.7374 17.1375C13.6249 16.9125 13.3624 16.8 13.1186 16.95C13.0249 16.95 12.9311 17.0437 12.9311 17.1375L12.4999 17.9625L11.5999 18.0937C11.3374 18.1312 11.1499 18.375 11.1874 18.6187C11.1874 18.7312 11.2624 18.8062 11.3374 18.9L11.9936 19.5375L11.8061 20.4375C11.8061 20.7 11.9561 20.925 12.2186 21C12.3124 21 12.4061 21 12.5186 20.925L13.3249 20.5125H13.3624ZM24.6124 26.1375L25.4186 26.55C25.6436 26.6812 25.9249 26.5875 26.0374 26.3625C26.0936 26.2687 26.1124 26.175 26.0936 26.0625L25.9061 25.1625L26.5811 24.525C26.7686 24.3375 26.7686 24.0375 26.5811 23.85C26.5185 23.7782 26.4319 23.7316 26.3374 23.7187L25.3999 23.5875L24.9874 22.7625C24.8749 22.5375 24.6124 22.425 24.3686 22.575C24.2749 22.575 24.1811 22.6687 24.1811 22.7625L23.7499 23.5875L22.8499 23.7187C22.5874 23.7562 22.3999 24 22.4374 24.2437C22.4374 24.3562 22.5124 24.4312 22.5874 24.525L23.2436 25.1625L23.0561 26.0625C23.0561 26.325 23.2061 26.55 23.4686 26.625C23.5624 26.625 23.6561 26.625 23.7686 26.55L24.5749 26.1375H24.6124ZM17.1124 26.1375L17.9186 26.55C18.1436 26.6812 18.4249 26.5875 18.5374 26.3625C18.5936 26.2687 18.6124 26.175 18.5936 26.0625L18.4061 25.1625L19.0811 24.525C19.2686 24.3375 19.2686 24.0375 19.0811 23.85C19.0185 23.7782 18.9319 23.7316 18.8374 23.7187L17.8999 23.5875L17.4874 22.7625C17.3749 22.5375 17.1124 22.425 16.8686 22.575C16.7749 22.575 16.6811 22.6687 16.6811 22.7625L16.2499 23.5875L15.3499 23.7187C15.0874 23.7562 14.8999 24 14.9374 24.2437C14.9374 24.3562 15.0124 24.4312 15.0874 24.525L15.7436 25.1625L15.5561 26.0625C15.5561 26.325 15.7061 26.55 15.9686 26.625C16.0624 26.625 16.1561 26.625 16.2686 26.55L17.0749 26.1375H17.1124Z" fill="#793592"/>
</svg>
