<svg width="24" height="24" viewBox="0 0 24 24" fill="none" xmlns="http://www.w3.org/2000/svg">
<path d="M21.16 6.11215H17.0913C17.3819 5.67622 17.5272 5.16764 17.5272 4.65906C17.5272 3.06065 16.2195 1.75287 14.6211 1.75287C13.4586 1.75287 12.3688 2.33411 11.7149 3.20596C11.061 2.33411 9.97116 1.75287 8.80868 1.75287C7.21028 1.75287 5.9025 3.06065 5.9025 4.65906C5.9025 5.16764 6.0478 5.67622 6.33842 6.11215H2.26976C1.83383 6.11215 1.54321 6.40277 1.54321 6.8387V11.198C1.54321 11.6339 1.83383 11.9245 2.26976 11.9245H3.72285V21.3696C3.72285 21.8056 4.01347 22.0962 4.4494 22.0962H18.9803C19.4163 22.0962 19.7069 21.8056 19.7069 21.3696V11.9245H21.16C21.5959 11.9245 21.8865 11.6339 21.8865 11.198V6.8387C21.8865 6.40277 21.5959 6.11215 21.16 6.11215ZM9.53523 7.56525H13.8945V10.4714H9.53523V7.56525ZM14.6211 3.20596C15.4203 3.20596 16.0742 3.85986 16.0742 4.65906C16.0742 5.45826 15.4203 6.11215 14.6211 6.11215H12.4414V5.3856C12.4414 4.15047 13.3859 3.20596 14.6211 3.20596ZM7.35559 4.65906C7.35559 3.85986 8.00948 3.20596 8.80868 3.20596C10.0438 3.20596 10.9883 4.15047 10.9883 5.3856V6.11215H8.80868C8.00948 6.11215 7.35559 5.45826 7.35559 4.65906ZM10.2618 20.6431V11.9245H13.168V20.6431H10.2618Z" fill="black"/>
</svg>
