<svg width="46" height="46" viewBox="0 0 46 46" fill="none" xmlns="http://www.w3.org/2000/svg">
<g clip-path="url(#clip0_1255_1445)">
<path opacity="0.3" fill-rule="evenodd" clip-rule="evenodd" d="M7.41875 19.4844L7.75625 23.7031L8.03047 27.2188H29.8273L28.9414 15.9688L28.2734 7.53125H6.47656L6.75148 11.0469L7.08828 15.2656L7.41875 19.4844ZM16.3203 30.0312C18.6547 30.0312 20.5391 31.9227 20.5391 34.25C20.5391 36.5773 18.6547 38.4688 16.3203 38.4688C13.993 38.4688 12.1016 36.5773 12.1016 34.25C12.1016 31.9227 13.993 30.0312 16.3203 30.0312ZM17.7266 34.25C17.7266 33.9719 17.6441 33.7 17.4896 33.4687C17.335 33.2375 17.1154 33.0572 16.8585 32.9508C16.6015 32.8444 16.3188 32.8165 16.046 32.8708C15.7732 32.925 15.5226 33.059 15.3259 33.2556C15.1293 33.4523 14.9953 33.7029 14.9411 33.9757C14.8868 34.2484 14.9147 34.5312 15.0211 34.7881C15.1275 35.0451 15.3078 35.2647 15.539 35.4193C15.7703 35.5738 16.0422 35.6562 16.3203 35.6562C17.1008 35.6562 17.7266 35.0305 17.7266 34.25ZM37.4141 30.0312C39.7484 30.0312 41.6328 31.9227 41.6328 34.25C41.6328 36.5773 39.7484 38.4688 37.4141 38.4688C35.0867 38.4688 33.1953 36.5773 33.1953 34.25C33.1953 31.9227 35.0867 30.0312 37.4141 30.0312ZM38.8203 34.25C38.8203 33.9719 38.7378 33.7 38.5833 33.4687C38.4288 33.2375 38.2092 33.0572 37.9522 32.9508C37.6953 32.8444 37.4125 32.8165 37.1397 32.8708C36.8669 32.925 36.6164 33.059 36.4197 33.2556C36.223 33.4523 36.0891 33.7029 36.0348 33.9757C35.9806 34.2484 36.0084 34.5312 36.1149 34.7881C36.2213 35.0451 36.4015 35.2647 36.6328 35.4193C36.864 35.5738 37.1359 35.6562 37.4141 35.6562C38.1945 35.6562 38.8203 35.0305 38.8203 34.25ZM31.7891 18.0781H34.6016H38.1734L41.6328 23.7031H35.3047H32.4922L31.7891 18.0781Z" fill="#793592"/>
<path fill-rule="evenodd" clip-rule="evenodd" d="M1.55469 15.9688H12.1016C12.288 15.9688 12.4669 15.8947 12.5987 15.7628C12.7306 15.6309 12.8047 15.4521 12.8047 15.2656C12.8047 15.0791 12.7306 14.9003 12.5987 14.7684C12.4669 14.6366 12.288 14.5625 12.1016 14.5625H1.55469C1.36821 14.5625 1.18936 14.6366 1.0575 14.7684C0.925642 14.9003 0.851562 15.0791 0.851562 15.2656C0.851562 15.4521 0.925642 15.6309 1.0575 15.7628C1.18936 15.8947 1.36821 15.9688 1.55469 15.9688ZM4.36719 24.4062H7.88281C8.06929 24.4062 8.24814 24.3322 8.38 24.2003C8.51186 24.0684 8.58594 23.8896 8.58594 23.7031C8.58594 23.5166 8.51186 23.3378 8.38 23.2059C8.24814 23.0741 8.06929 23 7.88281 23H4.36719C4.18071 23 4.00186 23.0741 3.87 23.2059C3.73814 23.3378 3.66406 23.5166 3.66406 23.7031C3.66406 23.8896 3.73814 24.0684 3.87 24.2003C4.00186 24.3322 4.18071 24.4062 4.36719 24.4062ZM14.9141 15.9688H16.3203C16.5068 15.9688 16.6856 15.8947 16.8175 15.7628C16.9494 15.6309 17.0234 15.4521 17.0234 15.2656C17.0234 15.0791 16.9494 14.9003 16.8175 14.7684C16.6856 14.6366 16.5068 14.5625 16.3203 14.5625H14.9141C14.7276 14.5625 14.5487 14.6366 14.4169 14.7684C14.285 14.9003 14.2109 15.0791 14.2109 15.2656C14.2109 15.4521 14.285 15.6309 14.4169 15.7628C14.5487 15.8947 14.7276 15.9688 14.9141 15.9688ZM2.25781 20.1875H3.66406C3.85054 20.1875 4.02939 20.1134 4.16125 19.9816C4.29311 19.8497 4.36719 19.6709 4.36719 19.4844C4.36719 19.2979 4.29311 19.1191 4.16125 18.9872C4.02939 18.8553 3.85054 18.7812 3.66406 18.7812H2.25781C2.07133 18.7812 1.89249 18.8553 1.76063 18.9872C1.62877 19.1191 1.55469 19.2979 1.55469 19.4844C1.55469 19.6709 1.62877 19.8497 1.76063 19.9816C1.89249 20.1134 2.07133 20.1875 2.25781 20.1875ZM5.77344 20.1875H13.5078C13.6943 20.1875 13.8731 20.1134 14.005 19.9816C14.1369 19.8497 14.2109 19.6709 14.2109 19.4844C14.2109 19.2979 14.1369 19.1191 14.005 18.9872C13.8731 18.8553 13.6943 18.7812 13.5078 18.7812H5.77344C5.58696 18.7812 5.40811 18.8553 5.27625 18.9872C5.14439 19.1191 5.07031 19.2979 5.07031 19.4844C5.07031 19.6709 5.14439 19.8497 5.27625 19.9816C5.40811 20.1134 5.58696 20.1875 5.77344 20.1875ZM4.36719 11.75H10.6953C10.8818 11.75 11.0606 11.6759 11.1925 11.5441C11.3244 11.4122 11.3984 11.2334 11.3984 11.0469C11.3984 10.8604 11.3244 10.6816 11.1925 10.5497C11.0606 10.4178 10.8818 10.3438 10.6953 10.3438H4.36719C4.18071 10.3438 4.00186 10.4178 3.87 10.5497C3.73814 10.6816 3.66406 10.8604 3.66406 11.0469C3.66406 11.2334 3.73814 11.4122 3.87 11.5441C4.00186 11.6759 4.18071 11.75 4.36719 11.75ZM39.5234 15.9688H28.9414L29.8273 27.2188H8.03047L8.58594 34.25H12.1016C12.1016 31.9227 13.993 30.0312 16.3203 30.0312C18.6547 30.0312 20.5391 31.9227 20.5391 34.25H33.1953C33.1953 31.9227 35.0867 30.0312 37.4141 30.0312C39.7484 30.0312 41.6328 31.9227 41.6328 34.25H45.1484V25.1094L39.5234 15.9688ZM32.4922 23.7031L31.7891 18.0781H38.1734L41.6328 23.7031H32.4922Z" fill="#793592"/>
</g>
<defs>
<clipPath id="clip0_1255_1445">
<rect width="45" height="45" fill="white" transform="translate(0.5 0.5)"/>
</clipPath>
</defs>
</svg>
