<svg width="56" height="56" viewBox="0 0 56 56" fill="none" xmlns="http://www.w3.org/2000/svg">
<path d="M15.3999 26.5928C15.3999 20.2321 15.3999 17.0518 17.3669 15.0755C19.3362 13.0991 22.5026 13.0991 28.8399 13.0991H35.5599C41.8949 13.0991 45.0636 13.0991 47.0306 15.0755C48.9999 17.0518 48.9999 20.2321 48.9999 26.5928V37.8395C48.9999 44.2001 48.9999 47.3805 47.0306 49.3568C45.0636 51.3331 41.8949 51.3331 35.5599 51.3331H28.8399C22.5026 51.3331 19.3362 51.3331 17.3669 49.3568C15.3999 47.3805 15.3999 44.2001 15.3999 37.8395V26.5928Z" fill="white" fill-opacity="0.8"/>
<path opacity="0.5" d="M9.73467 7.40117C7 10.1335 7 14.5342 7 23.3332V27.9998C7 36.7988 7 41.1995 9.73467 43.9318C11.1743 45.3738 13.0783 46.0552 15.848 46.3772C15.4 44.4172 15.4 41.7198 15.4 37.8372V26.5928C15.4 20.2322 15.4 17.0518 17.367 15.0755C19.3363 13.0992 22.5027 13.0992 28.84 13.0992H35.56C39.4147 13.0992 42.0933 13.0992 44.0487 13.5425C43.7267 10.7588 43.0453 8.84784 41.5987 7.40117C38.8663 4.6665 34.4657 4.6665 25.6667 4.6665C16.8677 4.6665 12.467 4.6665 9.73467 7.40117Z" fill="white" fill-opacity="0.8"/>
</svg>
