<svg width="45" height="45" viewBox="0 0 45 45" fill="none" xmlns="http://www.w3.org/2000/svg">
<circle cx="22.5" cy="22.5" r="22.5" fill="#E5E5E5"/>
<path d="M22 32.75C21.59 32.75 21.25 32.41 21.25 32V30C21.25 29.59 21.59 29.25 22 29.25C22.41 29.25 22.75 29.59 22.75 30V32C22.75 32.41 22.41 32.75 22 32.75Z" fill="#292D32"/>
<path d="M22 28.75C21.59 28.75 21.25 28.41 21.25 28V26C21.25 25.59 21.59 25.25 22 25.25C22.41 25.25 22.75 25.59 22.75 26V28C22.75 28.41 22.41 28.75 22 28.75Z" fill="#292D32"/>
<path d="M22 24.75C21.59 24.75 21.25 24.41 21.25 24V21C21.25 16.73 24.73 13.25 29 13.25H32C32.41 13.25 32.75 13.59 32.75 14C32.75 14.41 32.41 14.75 32 14.75H29C25.55 14.75 22.75 17.55 22.75 21V24C22.75 24.41 22.41 24.75 22 24.75Z" fill="#292D32"/>
<path d="M22 24.75C21.59 24.75 21.25 24.41 21.25 24V21C21.25 17.55 18.45 14.75 15 14.75H12C11.59 14.75 11.25 14.41 11.25 14C11.25 13.59 11.59 13.25 12 13.25H15C19.27 13.25 22.75 16.73 22.75 21V24C22.75 24.41 22.41 24.75 22 24.75Z" fill="#292D32"/>
<path d="M14 16.7495C13.81 16.7495 13.6199 16.6795 13.4699 16.5295L11.4699 14.5295C11.1799 14.2395 11.1799 13.7595 11.4699 13.4695L13.4699 11.4695C13.7599 11.1795 14.24 11.1795 14.53 11.4695C14.82 11.7595 14.82 12.2395 14.53 12.5295L13.06 13.9995L14.53 15.4695C14.82 15.7595 14.82 16.2395 14.53 16.5295C14.38 16.6795 14.19 16.7495 14 16.7495Z" fill="#292D32"/>
<path d="M30 16.7495C29.81 16.7495 29.6199 16.6795 29.4699 16.5295C29.1799 16.2395 29.1799 15.7595 29.4699 15.4695L30.94 13.9995L29.4699 12.5295C29.1799 12.2395 29.1799 11.7595 29.4699 11.4695C29.7599 11.1795 30.24 11.1795 30.53 11.4695L32.53 13.4695C32.82 13.7595 32.82 14.2395 32.53 14.5295L30.53 16.5295C30.38 16.6795 30.19 16.7495 30 16.7495Z" fill="#292D32"/>
</svg>
