<svg width="48" height="48" viewBox="0 0 48 48" fill="none" xmlns="http://www.w3.org/2000/svg">
<g opacity="0.8">
<path d="M32.1996 25.7647C31.8147 25.7647 31.4456 25.9176 31.1734 26.1898C30.9013 26.4619 30.7484 26.831 30.7484 27.2159C30.7484 27.6008 30.9013 27.9699 31.1734 28.242C31.4456 28.5142 31.8147 28.667 32.1996 28.667H36.0693C36.4542 28.667 36.8233 28.5142 37.0954 28.242C37.3676 27.9699 37.5205 27.6008 37.5205 27.2159C37.5205 26.831 37.3676 26.4619 37.0954 26.1898C36.8233 25.9176 36.4542 25.7647 36.0693 25.7647H32.1996ZM38.0042 11.7369C38.0042 10.3257 37.4436 8.97233 36.4457 7.97447C35.4479 6.97661 34.0945 6.41602 32.6833 6.41602H10.916C10.3184 6.41612 9.72726 6.53923 9.17934 6.7777C8.63142 7.01618 8.13847 7.36489 7.73117 7.80214C7.32386 8.23939 7.01094 8.75581 6.81188 9.31924C6.61282 9.88267 6.53188 10.4811 6.57411 11.0771C6.5667 11.1355 6.56283 11.1943 6.5625 11.2532V34.9554C6.5625 36.6231 7.22502 38.2226 8.40431 39.4019C9.5836 40.5812 11.1831 41.2437 12.8508 41.2437H37.0367C38.4479 41.2437 39.8013 40.6831 40.7992 39.6853C41.797 38.6874 42.3576 37.334 42.3576 35.9228V17.5415C42.358 16.2979 41.9228 15.0934 41.1275 14.1373C40.3322 13.1812 39.2271 12.5338 38.0042 12.3077V11.7369ZM9.46481 10.7695C9.46481 10.3846 9.6177 10.0155 9.88984 9.74336C10.162 9.47121 10.5311 9.31832 10.916 9.31832H32.6833C34.0183 9.31832 35.1019 10.4019 35.1019 11.7369V12.2206H10.916C10.5311 12.2206 10.162 12.0677 9.88984 11.7956C9.6177 11.5235 9.46481 11.1543 9.46481 10.7695ZM10.916 15.1229H37.0367C38.3718 15.1229 39.4553 16.2065 39.4553 17.5415V35.9228C39.4553 37.2579 38.3718 38.3414 37.0367 38.3414H12.8508C11.9528 38.3414 11.0916 37.9847 10.4566 37.3497C9.82155 36.7147 9.46481 35.8534 9.46481 34.9554V14.8753C9.9195 15.0359 10.4071 15.1229 10.916 15.1229Z" fill="black"/>
</g>
</svg>
