<svg width="62" height="34" viewBox="0 0 62 34" fill="none" xmlns="http://www.w3.org/2000/svg">
<path d="M0 4.45783C0 1.99584 1.99584 0 4.45783 0H54.7123C57.1743 0 59.1701 1.99584 59.1701 4.45783V20.3896C59.1701 20.451 59.1765 20.5122 59.189 20.5723L62 34L50.6006 28.7563C50.4837 28.7025 50.3566 28.6747 50.228 28.6747H6.94606H4.45783C1.99584 28.6747 0 26.6789 0 24.2169V18.4337V4.45783Z" fill="#F6F8F3"/>
<path d="M21.7698 9.47305V11.4086H18.5839V21.4287H16.1859V11.4086H13V9.47305H21.7698Z" fill="black"/>
<path d="M25.9174 13.4126C26.2257 12.9102 26.6254 12.5162 27.1164 12.2307C27.6188 11.9453 28.1898 11.8025 28.8292 11.8025V14.3204H28.1955C27.4418 14.3204 26.8709 14.4974 26.4826 14.8514C26.1058 15.2054 25.9174 15.822 25.9174 16.7013V21.4287H23.5194V11.9395H25.9174V13.4126Z" fill="black"/>
<path d="M31.6605 10.8091C31.238 10.8091 30.884 10.6778 30.5986 10.4151C30.3245 10.1411 30.1875 9.8042 30.1875 9.40453C30.1875 9.00487 30.3245 8.67372 30.5986 8.41108C30.884 8.13703 31.238 8 31.6605 8C32.083 8 32.4313 8.13703 32.7054 8.41108C32.9908 8.67372 33.1336 9.00487 33.1336 9.40453C33.1336 9.8042 32.9908 10.1411 32.7054 10.4151C32.4313 10.6778 32.083 10.8091 31.6605 10.8091ZM32.8424 11.9395V21.4287H30.4444V11.9395H32.8424Z" fill="black"/>
<path d="M40.4529 21.4287L38.5003 18.4826L36.7703 21.4287H34.201L37.3013 16.667L34.1668 11.9395H36.8731L38.8086 14.8685L40.5557 11.9395H43.125L40.0076 16.667L43.1592 21.4287H40.4529Z" fill="black"/>
</svg>
