<svg width="200" height="57" viewBox="0 0 200 57" fill="none" xmlns="http://www.w3.org/2000/svg">
<path fill-rule="evenodd" clip-rule="evenodd" d="M27.6538 43.5461L17.432 43.5824C14.9718 43.5824 13.6655 42.1518 13.6655 39.7179L13.7228 29.5022C13.6655 27.5228 12.6093 26.6701 10.8601 26.6701H3.43074C2.05886 26.6701 1.00002 28.0357 1.00002 29.5022V39.9322C1.00002 41.2842 1.79966 42.7068 3.68994 42.7643C3.68994 42.7643 7.89701 42.8777 10.4356 42.8777C12.9743 42.8777 14.5374 43.5824 14.5374 46.3932C14.5374 49.204 14.5074 51.9774 14.5074 53.4011C14.5074 54.8248 15.9069 55.9995 17.346 55.9995H36.5509C39.5 55.5157 39.5 53.4011 39.5 51.4579V18.0959C39.5 16.0611 39.5 14.409 36.6373 14.409L29.1134 14.2956C27.0093 14.2956 26.0484 12.178 26.0484 10.0963C26.0484 10.0963 26.0484 5.34222 26.1654 3.08832C26.2824 0.834418 25.0245 1.00285 23.5855 1.00285H3.62938C1.82566 1.00285 1.22533 1.9387 1.22533 3.72308V9.9017C1.22533 11.6861 1.82566 12.6219 3.62938 12.6219L21.5987 12.5652C24.0594 12.5652 27.698 15.9617 27.698 18.3956L27.6759 20.7567L27.6538 43.5461ZM28.7447 3.31125V9.42766C28.7447 10.6888 29.8237 11.7128 31.1527 11.7128H37.092C38.421 11.7128 39.5 10.6888 39.5 9.42766V3.31125C39.5 2.05007 38.421 1.02609 37.092 1.02609H31.1527C29.8237 1.02609 28.7447 2.05007 28.7447 3.31125Z" fill="black"/>
<path d="M1.24921 53.7143V47.6834C1.24921 46.4222 2.32824 45.3982 3.65723 45.3982H9.51007C10.8391 45.3982 11.9181 46.4222 11.9181 47.6834V53.7143C11.9181 54.9755 10.8391 55.9995 9.51007 55.9995H3.65723C2.32824 55.9995 1.24921 54.9755 1.24921 53.7143Z" fill="black"/>
<path fill-rule="evenodd" clip-rule="evenodd" d="M27.6538 43.5461L17.432 43.5824C14.9718 43.5824 13.6655 42.1518 13.6655 39.7179L13.7228 29.5022C13.6655 27.5228 12.6093 26.6701 10.8601 26.6701H3.43074C2.05886 26.6701 1.00002 28.0357 1.00002 29.5022V39.9322C1.00002 41.2842 1.79966 42.7068 3.68994 42.7643C3.68994 42.7643 7.89701 42.8777 10.4356 42.8777C12.9743 42.8777 14.5374 43.5824 14.5374 46.3932C14.5374 49.204 14.5074 51.9774 14.5074 53.4011C14.5074 54.8248 15.9069 55.9995 17.346 55.9995H36.5509C39.5 55.5157 39.5 53.4011 39.5 51.4579V18.0959C39.5 16.0611 39.5 14.409 36.6373 14.409L29.1134 14.2956C27.0093 14.2956 26.0484 12.178 26.0484 10.0963C26.0484 10.0963 26.0484 5.34222 26.1654 3.08832C26.2824 0.834418 25.0245 1.00285 23.5855 1.00285H3.62938C1.82566 1.00285 1.22533 1.9387 1.22533 3.72308V9.9017C1.22533 11.6861 1.82566 12.6219 3.62938 12.6219L21.5987 12.5652C24.0594 12.5652 27.698 15.9617 27.698 18.3956L27.6759 20.7567L27.6538 43.5461ZM28.7447 3.31125V9.42766C28.7447 10.6888 29.8237 11.7128 31.1527 11.7128H37.092C38.421 11.7128 39.5 10.6888 39.5 9.42766V3.31125C39.5 2.05007 38.421 1.02609 37.092 1.02609H31.1527C29.8237 1.02609 28.7447 2.05007 28.7447 3.31125Z" stroke="black" stroke-width="1.09999" stroke-miterlimit="1.5" stroke-linecap="round" stroke-linejoin="round"/>
<path d="M1.24921 53.7143V47.6834C1.24921 46.4222 2.32824 45.3982 3.65723 45.3982H9.51007C10.8391 45.3982 11.9181 46.4222 11.9181 47.6834V53.7143C11.9181 54.9755 10.8391 55.9995 9.51007 55.9995H3.65723C2.32824 55.9995 1.24921 54.9755 1.24921 53.7143Z" stroke="black" stroke-width="1.09999" stroke-miterlimit="1.5" stroke-linecap="round" stroke-linejoin="round"/>
<path fill-rule="evenodd" clip-rule="evenodd" d="M174.77 42.5661C175.059 42.2056 175.074 41.7039 174.807 41.3277C174.59 41.0341 174.347 40.7346 174.102 40.4338C173.041 39.129 171.959 37.7996 172.96 36.822C173.628 36.0582 174.769 34.674 175.887 33.318C176.907 32.0806 177.908 30.8666 178.512 30.1687C179.571 29.1628 180.464 30.1649 181.832 31.7008C182.228 32.145 182.663 32.6338 183.154 33.1315C183.468 33.4473 184.238 33.1983 184.513 32.8488L186.849 29.8854L197.178 15.0032C198.235 13.6788 198.123 11.9991 196.565 11.9991H188.148C187.428 11.9991 186.757 12.3219 186.361 12.8566L176.931 26.2368C176.099 27.3635 174.221 27.3722 173.373 26.2595L164.055 12.8346C163.657 12.312 163.219 11.9991 162.51 11.9991H153.05C151.681 11.9991 151.957 13.9665 152.77 14.995L166.259 33.6362C166.764 34.276 166.778 35.1266 166.293 35.7792L154.815 52.638C153.837 53.9536 154.026 55.6725 155.539 55.6996L164.04 55.818C164.744 55.8302 165.41 55.5335 165.82 55.0237C165.82 55.0237 172.727 45.1226 174.77 42.5661ZM48.5141 22.2443L58.9466 22.2026C60.8392 22.2026 61.8256 24.5589 61.8256 26.3456L61.7815 53.8675C61.7815 55.3611 62.7346 56.0014 64.3172 56.0014H69.6153C71.1979 56.0014 72.1511 55.3611 72.1511 53.8675V27.5532C72.1511 26.0595 70.8662 24.8468 69.2841 24.8468L65.3524 24.7635C63.7337 24.7635 62.7062 22.5157 62.7062 20.9875C62.7062 20.9875 62.6852 14.9543 62.6852 13.9092C62.6852 12.8641 61.4092 12.0019 60.3021 12.0019H48.5141C47.1265 12.0019 46 12.7218 46 14.0317V20.2144C46 21.5243 47.1265 22.2443 48.5141 22.2443ZM82.4478 12.113C83.3895 12.113 84.0225 13.0521 84.0225 14.7369V19.8506C84.0225 21.5354 83.3895 22.5837 82.4478 22.5837H66.9871C66.0453 22.5837 65.485 21.5354 65.485 19.8506V14.7369C65.485 13.0521 66.0453 12.113 66.9871 12.113H82.4478ZM124.484 34.903C122.97 35.9166 123.616 36.6026 126.245 39.392C126.391 39.5467 126.543 39.7078 126.701 39.8759C128.187 41.4562 128.155 44.4645 128.127 47.2359V47.2361V47.2362V47.2364C128.118 48.0605 128.11 48.8637 128.142 49.6021C128.141 49.8858 128.14 50.1664 128.14 50.4448C128.137 51.6612 128.135 52.8349 128.101 54.0374C128.08 55.1272 127.879 56.001 126.116 56.001C124.267 56.0014 120.543 56.0014 118.945 56.0014C117.612 56.001 117.141 55.5029 117.141 53.5959V50.7378C117.141 46.304 115.561 44.7551 113.954 44.7551H101.543V54.0028C101.543 54.5328 101.311 55.0413 100.896 55.4162C100.482 55.7912 99.9207 56.0014 99.3351 56.0014H92.6641C92.0779 56.0014 91.5167 55.7912 91.1024 55.4162C90.6881 55.0413 90.4552 54.5328 90.4552 54.0028V36.0113C90.4552 35.4783 90.6907 34.9675 91.1087 34.5921C91.5267 34.2167 92.0933 34.0083 92.6821 34.0126L100.908 34.0621C100.908 34.0621 108.679 34.0174 111.062 34.0174C114.576 34.0174 117.688 31.9941 117.688 28.813C117.688 25.3923 114.849 22.5276 111.07 22.5276H92.6641C92.0779 22.5276 91.5167 22.3173 91.1024 21.9424C90.6881 21.5674 90.4552 21.059 90.4552 20.529V14.0005C90.4552 13.4705 90.6881 12.962 91.1024 12.5871C91.5167 12.2121 92.0779 12.0019 92.6641 12.0019H110.403C114.454 12.0019 117.794 12.5357 120.422 13.6035C123.669 14.9352 126.081 16.1716 127.216 19.0873C127.574 20.1531 127.916 21.5756 128.074 22.9372C128.112 23.3961 128.149 28.2997 128.131 28.7794C127.968 33.1128 126.486 33.8579 125.227 34.4915C124.965 34.6231 124.713 34.7499 124.484 34.903ZM136.904 12.0019C135.311 12.0019 134.575 13.1648 134.575 14.5993V53.404C134.575 54.8385 135.311 56.0014 136.904 56.0014H143.329C144.922 56.0014 145.659 54.8385 145.659 53.404V14.5993C145.659 13.1648 144.922 12.0019 143.329 12.0019H136.904ZM189.756 55.7877C188.493 55.7916 188.097 55.3533 187.385 54.5664L187.384 54.5653C187.261 54.4293 187.129 54.2829 186.981 54.1266C183.75 50.0407 175.605 40.1014 175.605 40.1014L175.595 40.0887C174.786 39.1184 174.395 38.6493 174.412 38.1948C174.427 37.7693 174.799 37.3566 175.52 36.5577C175.562 36.5107 175.606 36.4623 175.651 36.4126L179.24 32.2889C180.122 31.327 180.621 31.9744 181.351 32.9228C181.432 33.0285 181.517 33.138 181.605 33.2493L199.491 52.848C200.433 54.0426 200.073 55.7555 198.366 55.7609C196.726 55.7659 191.332 55.7826 189.756 55.7877Z" fill="black"/>
</svg>
