<svg width="1191" height="471" viewBox="0 0 1191 471" fill="none" xmlns="http://www.w3.org/2000/svg">
<path fill-rule="evenodd" clip-rule="evenodd" d="M438.047 274.306L384.826 274.52C377.747 274.52 372 270.828 372 264.112V232.409C372 225.693 377.747 222.001 384.826 222.001H444.963C450.611 222.001 457.12 226.422 457.12 231.781C457.12 237.14 457.227 268.076 457.227 268.076C457.227 275.912 462.469 287.438 470.727 287.438L490.785 287.865C498.856 287.865 505.41 294.083 505.41 301.742V436.672C505.41 444.33 500.548 447.613 492.474 447.613H465.446C457.372 447.613 452.51 444.33 452.51 436.672L452.735 295.55C452.735 286.388 447.703 274.306 438.047 274.306Z" fill="black" stroke="black" stroke-width="5.01361" stroke-miterlimit="1.5" stroke-linecap="round" stroke-linejoin="round"/>
<path fill-rule="evenodd" clip-rule="evenodd" d="M565.973 236.026C565.973 227.387 562.744 222.571 557.939 222.571H479.066C474.262 222.571 471.403 227.387 471.403 236.026V262.247C471.403 270.886 474.262 276.261 479.066 276.261H557.939C562.744 276.261 565.973 270.886 565.973 262.247V236.026Z" fill="black" stroke="black" stroke-width="5.01361" stroke-miterlimit="1.5" stroke-linecap="round" stroke-linejoin="round"/>
<path fill-rule="evenodd" clip-rule="evenodd" d="M782.081 339.429C773.928 344.914 778.055 348.529 793.391 364.928C803.223 375.441 800.032 398.279 800.742 414.8C800.715 422.611 800.744 429.966 800.534 437.542C800.428 443.131 799.403 447.611 790.404 447.611C780.976 447.613 761.974 447.613 753.823 447.613C747.022 447.611 744.621 445.057 744.621 435.279V420.623C744.621 397.889 736.561 389.947 728.361 389.947C705.058 389.947 688.812 389.947 665.048 389.947V437.365C665.048 440.083 663.86 442.69 661.747 444.613C659.636 446.535 656.77 447.613 653.783 447.613H619.75C616.76 447.613 613.897 446.535 611.783 444.613C609.669 442.69 608.481 440.083 608.481 437.365V345.112C608.481 342.379 609.683 339.76 611.815 337.835C613.948 335.91 616.838 334.841 619.842 334.863L661.805 335.117C661.805 335.117 701.449 334.888 713.608 334.888C731.537 334.888 747.409 324.513 747.409 308.202C747.409 290.662 732.928 275.973 713.646 275.973H619.75C616.76 275.973 613.897 274.895 611.783 272.972C609.669 271.049 608.481 268.442 608.481 265.725V232.249C608.481 229.531 609.669 226.924 611.783 225.002C613.897 223.079 616.76 222.001 619.75 222.001H710.245C730.912 222.001 747.95 224.738 761.359 230.213C777.921 237.042 790.228 243.382 796.017 258.332C797.844 263.797 799.589 271.091 800.395 278.073C800.588 280.426 800.777 305.57 800.685 308.03C799.681 334.863 788.867 334.863 782.081 339.429Z" fill="black"/>
<path d="M843.25 235.32C843.25 227.964 847.009 222.001 855.133 222.001C863.486 222.001 879.561 222.001 887.911 222.001C896.036 222.001 899.797 227.964 899.797 235.32C899.797 275.584 899.797 394.03 899.797 434.295C899.797 441.651 896.036 447.613 887.911 447.613C879.561 447.613 863.486 447.613 855.133 447.613C847.009 447.613 843.25 441.651 843.25 434.295C843.25 394.03 843.25 275.584 843.25 235.32Z" fill="black"/>
<path fill-rule="evenodd" clip-rule="evenodd" d="M1134.45 446.533C1126.89 446.556 1125.42 443.459 1120.29 438.015C1103.81 417.065 1062.26 366.1 1062.26 366.1C1053.99 356.127 1054.21 356.43 1062.49 347.185L1080.8 326.041C1085.81 320.559 1088.39 325.27 1092.87 330.965L1184.11 431.46C1188.92 437.585 1187.08 446.368 1178.38 446.395C1170.01 446.421 1142.49 446.507 1134.45 446.533Z" fill="black" stroke="black" stroke-width="5.01361" stroke-miterlimit="1.5" stroke-linecap="round" stroke-linejoin="round"/>
<path fill-rule="evenodd" clip-rule="evenodd" d="M1058.19 372.385C1059.55 374.315 1059.47 376.887 1058 378.736C1047.57 391.844 1012.34 442.613 1012.34 442.613C1010.25 445.227 1006.85 446.749 1003.26 446.686L959.894 446.079C952.172 445.94 951.21 437.126 956.199 430.38L1014.75 343.935C1017.23 340.589 1017.16 336.227 1014.58 332.946L945.765 237.362C941.617 232.088 940.21 222 947.197 222H995.457C999.073 222 1001.31 223.605 1003.33 226.284L1050.87 295.122C1055.2 300.827 1064.78 300.783 1069.02 295.006L1117.13 226.397C1119.15 223.655 1122.58 222 1126.25 222H1169.19C1177.14 222 1177.71 230.613 1172.31 237.404L1119.62 313.714C1119.62 313.723 1111.91 323.548 1107.7 328.909C1106.3 330.701 1102.37 331.978 1100.77 330.359C1089.61 318.98 1084.06 308.517 1077.09 315.167C1070.63 322.666 1055.28 341.792 1048.77 349.282C1042.48 355.451 1052.29 364.35 1058.19 372.385Z" fill="black"/>
<path fill-rule="evenodd" clip-rule="evenodd" d="M218.654 347.24L135.95 347.533C116.044 347.533 105.475 335.959 105.475 316.266L105.939 233.611C105.475 217.596 96.9296 210.696 82.7769 210.696H22.6668C11.567 210.696 3 221.745 3 233.611V318C3 328.939 9.46991 340.449 24.7639 340.914C24.7639 340.914 58.803 341.832 79.3429 341.832C99.8827 341.832 112.53 347.533 112.53 370.276C112.53 393.018 112.287 415.458 112.287 426.977C112.287 438.496 123.61 448 135.254 448H290.639C314.5 444.086 314.5 426.977 314.5 411.254V141.322C314.5 124.859 314.5 111.492 291.338 111.492L230.463 110.574C213.439 110.574 205.665 93.4414 205.665 76.5979C205.665 76.5979 205.665 38.1328 206.611 19.8965C207.557 1.66028 197.38 3.02304 185.737 3.02304H24.274C9.68021 3.02304 4.82306 10.595 4.82306 25.0324V75.0235C4.82306 89.4608 9.68021 97.0328 24.274 97.0328L169.662 96.5739C189.572 96.5739 219.011 124.055 219.011 143.748L218.832 162.851L218.654 347.24ZM227.48 21.7003V71.1881C227.48 81.3923 236.21 89.6773 246.963 89.6773H295.017C305.77 89.6773 314.5 81.3923 314.5 71.1881V21.7003C314.5 11.4961 305.77 3.21112 295.017 3.21112H246.963C236.21 3.21112 227.48 11.4961 227.48 21.7003Z" fill="black"/>
<path d="M5.01624 429.511V380.715C5.01624 370.51 13.7465 362.225 24.4993 362.225H71.8541C82.6069 362.225 91.3372 370.51 91.3372 380.715V429.511C91.3372 439.715 82.6069 448 71.8541 448H24.4993C13.7465 448 5.01624 439.715 5.01624 429.511Z" fill="black"/>
<path fill-rule="evenodd" clip-rule="evenodd" d="M218.654 347.24L135.95 347.533C116.044 347.533 105.475 335.959 105.475 316.266L105.939 233.611C105.475 217.596 96.9296 210.696 82.7769 210.696H22.6668C11.567 210.696 3 221.745 3 233.611V318C3 328.939 9.46991 340.449 24.7639 340.914C24.7639 340.914 58.803 341.832 79.3429 341.832C99.8827 341.832 112.53 347.533 112.53 370.276C112.53 393.018 112.287 415.458 112.287 426.977C112.287 438.496 123.61 448 135.254 448H290.639C314.5 444.086 314.5 426.977 314.5 411.254V141.322C314.5 124.859 314.5 111.492 291.338 111.492L230.463 110.574C213.439 110.574 205.665 93.4414 205.665 76.5979C205.665 76.5979 205.665 38.1328 206.611 19.8965C207.557 1.66028 197.38 3.02304 185.737 3.02304H24.274C9.68021 3.02304 4.82306 10.595 4.82306 25.0324V75.0235C4.82306 89.4608 9.68021 97.0328 24.274 97.0328L169.662 96.5739C189.572 96.5739 219.011 124.055 219.011 143.748L218.832 162.851L218.654 347.24ZM227.48 21.7003V71.1881C227.48 81.3923 236.21 89.6773 246.963 89.6773H295.017C305.77 89.6773 314.5 81.3923 314.5 71.1881V21.7003C314.5 11.4961 305.77 3.21112 295.017 3.21112H246.963C236.21 3.21112 227.48 11.4961 227.48 21.7003Z" stroke="black" stroke-width="5.93333" stroke-miterlimit="1.5" stroke-linecap="round" stroke-linejoin="round"/>
<path d="M5.01624 429.511V380.715C5.01624 370.51 13.7465 362.225 24.4993 362.225H71.8541C82.6069 362.225 91.3372 370.51 91.3372 380.715V429.511C91.3372 439.715 82.6069 448 71.8541 448H24.4993C13.7465 448 5.01624 439.715 5.01624 429.511Z" stroke="black" stroke-width="5.93333" stroke-miterlimit="1.5" stroke-linecap="round" stroke-linejoin="round"/>
</svg>
