<svg width="99" height="30" viewBox="0 0 99 30" fill="none" xmlns="http://www.w3.org/2000/svg">
<path d="M25.247 0.503521V7.83598H17.4146V30H8.16569V7.83598H0.416617V0.503521H25.247ZM42.587 30L37.046 19.4179H37.0044V30H27.7555V0.503521H41.5038C43.8924 0.503521 45.9339 0.934024 47.6281 1.79503C49.3223 2.62827 50.5861 3.78091 51.4193 5.25295C52.2803 6.69722 52.7108 8.33592 52.7108 10.169C52.7108 12.141 52.1553 13.8908 51.0444 15.4184C49.9612 16.946 48.3919 18.0431 46.3366 18.7097L52.7525 30H42.587ZM37.0044 13.252H40.6706C41.5594 13.252 42.226 13.0576 42.6704 12.6687C43.1148 12.2521 43.337 11.6133 43.337 10.7523C43.337 9.97461 43.1009 9.36357 42.6287 8.91918C42.1843 8.47479 41.5316 8.2526 40.6706 8.2526H37.0044V13.252ZM64.9145 0.503521V30H55.6656V0.503521H64.9145ZM87.8811 30L82.4651 22.3342L77.9656 30H67.4252L77.1324 14.7935L67.0086 0.503521H77.9656L83.1733 7.87764L87.5062 0.503521H98.0466L88.506 15.4184L98.8381 30H87.8811Z" fill="black"/>
</svg>
