<svg width="46" height="45" viewBox="0 0 46 45" fill="none" xmlns="http://www.w3.org/2000/svg">
<path d="M39.875 12.7125C38.6 13.275 37.3438 13.725 35.9375 13.875C37.3438 12.9938 38.4688 11.55 39.0312 9.9375C37.625 10.8188 36.2187 11.4 34.6625 11.7C34.0363 10.9702 33.2596 10.3846 32.3858 9.98327C31.5119 9.58194 30.5616 9.37444 29.6 9.375C25.8125 9.375 22.7188 12.5625 22.7188 16.5C22.7188 17.0625 22.7188 17.625 22.85 18.075C16.9438 17.775 11.8812 14.8875 8.50625 10.5375C7.8125 11.7 7.53125 12.8625 7.53125 14.1563C7.53125 16.6313 8.7875 18.8063 10.625 20.1C9.5 20.1 8.375 19.8188 7.53125 19.2375V19.3875C7.53125 22.8563 9.9125 25.7625 13.0063 26.325C12.4437 26.475 11.8812 26.625 11.1875 26.625C10.7562 26.625 10.3438 26.625 9.9125 26.475C10.7562 29.3813 13.2875 31.4062 16.3813 31.4062C14 33.2812 11.0375 34.4625 7.8125 34.4625C7.25 34.4625 6.6875 34.4625 6.125 34.3125C9.21875 36.3375 12.875 37.5 16.6625 37.5C29.4688 37.5 36.35 26.625 36.35 17.2125V16.3313C37.7563 15.3375 38.8812 14.025 39.875 12.7313V12.7125Z" fill="#793592"/>
</svg>
