<svg width="22" height="22" viewBox="0 0 22 22" fill="none" xmlns="http://www.w3.org/2000/svg">
<g clip-path="url(#clip0_1093_198)">
<path d="M19.478 4.95593C18.809 5.25183 18.0996 5.44616 17.3733 5.53249C18.1389 5.0746 18.7119 4.35397 18.9855 3.5049C18.267 3.9325 17.4793 4.23216 16.6583 4.39427C16.1068 3.8042 15.3758 3.41286 14.5789 3.28109C13.7821 3.14933 12.964 3.28452 12.2519 3.66564C11.5398 4.04677 10.9736 4.65248 10.6413 5.3886C10.309 6.12473 10.2291 6.95003 10.4142 7.7362C8.95718 7.66317 7.53175 7.28453 6.23051 6.62485C4.92928 5.96517 3.78132 5.03921 2.86117 3.90708C2.53546 4.46651 2.3643 5.10246 2.36522 5.74979C2.36522 7.02032 3.01188 8.14277 3.995 8.79994C3.4132 8.78162 2.84419 8.6245 2.33543 8.34167V8.38724C2.3356 9.23341 2.62841 10.0535 3.16421 10.7084C3.7 11.3633 4.44581 11.8128 5.27517 11.9806C4.73508 12.127 4.16877 12.1486 3.6191 12.0437C3.85294 12.7721 4.3087 13.4091 4.92257 13.8655C5.53644 14.3219 6.27769 14.575 7.04252 14.5892C6.28238 15.1862 5.41202 15.6275 4.48121 15.8879C3.55039 16.1483 2.57738 16.2227 1.6178 16.1068C3.29288 17.1841 5.24284 17.756 7.23442 17.7541C13.9752 17.7541 17.6615 12.1699 17.6615 7.327C17.6615 7.16928 17.6572 7.00981 17.6501 6.85384C18.3677 6.33526 18.9869 5.69285 19.4788 4.95681L19.478 4.95593Z" fill="black"/>
</g>
<defs>
<clipPath id="clip0_1093_198">
<rect width="21.0295" height="21.0295" fill="white" transform="translate(0.05896)"/>
</clipPath>
</defs>
</svg>
