<svg width="23" height="23" viewBox="0 0 23 23" fill="none" xmlns="http://www.w3.org/2000/svg">
<path fill-rule="evenodd" clip-rule="evenodd" d="M16.6944 13.783C16.4095 13.6404 15.009 12.9515 14.7479 12.8565C14.4868 12.7615 14.2969 12.7139 14.107 12.999C13.9171 13.2841 13.3712 13.9255 13.205 14.1156C13.0388 14.3056 12.8727 14.3294 12.5878 14.1868C12.3029 14.0444 11.3851 13.7436 10.297 12.7734C9.45018 12.0183 8.87847 11.0857 8.71227 10.8006C8.54612 10.5155 8.69458 10.3614 8.83724 10.2194C8.96532 10.0919 9.12205 9.88686 9.26449 9.72055C9.40692 9.55424 9.4544 9.43546 9.54935 9.24544C9.64431 9.05536 9.59683 8.88905 9.52559 8.74651C9.4544 8.60396 8.88471 7.20229 8.64732 6.63211C8.41612 6.07683 8.18125 6.15196 8.00639 6.14326C7.84041 6.13499 7.65033 6.13323 7.46042 6.13323C7.27051 6.13323 6.96193 6.20453 6.70077 6.48957C6.43967 6.77466 5.70378 7.46367 5.70378 8.86529C5.70378 10.267 6.72454 11.6211 6.86697 11.8112C7.00941 12.0013 8.87568 14.8777 11.7332 16.1112C12.4129 16.4046 12.9435 16.5798 13.3572 16.7111C14.0396 16.9278 14.6606 16.8972 15.1515 16.8239C15.6987 16.7421 16.8369 16.1349 17.0742 15.4697C17.3116 14.8046 17.3116 14.2344 17.2404 14.1156C17.1692 13.9968 16.9793 13.9255 16.6944 13.783ZM11.4964 20.8775H11.4926C9.79227 20.8769 8.12456 20.4203 6.66971 19.5572L6.32367 19.3518L2.73729 20.2923L3.69457 16.7968L3.46923 16.4384C2.5207 14.9302 2.01975 13.1869 2.02046 11.397C2.02254 6.17411 6.2734 1.92489 11.5002 1.92489C14.0312 1.92588 16.4104 2.91252 18.1994 4.703C19.9885 6.49354 20.9732 8.87358 20.9722 11.4047C20.9701 16.628 16.7193 20.8775 11.4964 20.8775ZM19.5611 3.34242C17.4086 1.18815 14.5461 0.00119591 11.4964 -9.53674e-06C5.21248 -9.53674e-06 0.0981327 5.11236 0.0956136 11.3963C0.0947922 13.405 0.619736 15.3658 1.61738 17.0941L0 23L6.0437 21.4152C7.70889 22.3231 9.58371 22.8016 11.4918 22.8024H11.4965H11.4965C17.7798 22.8024 22.8946 17.6894 22.8972 11.4054C22.8983 8.36011 21.7136 5.49663 19.5611 3.34242Z" fill="white"/>
</svg>
