<svg width="88" height="88" viewBox="0 0 88 88" fill="none" xmlns="http://www.w3.org/2000/svg">
<g filter="url(#filter0_d_2641_3752)">
<rect x="4" width="80" height="80" rx="16" fill="white" fill-opacity="0.3" shape-rendering="crispEdges"/>
<g clip-path="url(#clip0_2641_3752)">
<path d="M48.9712 40.521C48.9712 37.9269 46.8509 35.8161 44.245 35.8161C41.6393 35.8161 39.5191 37.927 39.5191 40.521C39.5191 43.1158 41.6393 45.2263 44.245 45.2263C46.8509 45.2263 48.9712 43.1158 48.9712 40.521ZM55.9926 16.0289H32.0064C25.3979 16.0289 20.0215 21.382 20.0215 27.9616V31.2864H37.6573C39.5182 29.9665 41.791 29.1869 44.245 29.1869C46.6989 29.1869 48.972 29.9665 50.833 31.2864H67.9775V27.9616C67.9775 21.3819 62.6011 16.0289 55.9926 16.0289ZM60.8464 27.3778C60.8464 28.107 60.2474 28.7037 59.5147 28.7037H55.4002C54.6676 28.7037 54.0685 28.107 54.0685 27.3778V23.2809C54.0685 22.5518 54.6676 21.9551 55.4002 21.9551H59.5147C60.2473 21.9551 60.8464 22.5517 60.8464 23.2809V27.3778ZM55.6294 40.521C55.6294 46.7713 50.5221 51.8554 44.2449 51.8554C37.9676 51.8554 32.8608 46.7713 32.8608 40.521C32.8608 38.8003 33.25 37.1685 33.9423 35.7058H20.0215V52.0384C20.0215 58.6185 25.3979 63.971 32.0064 63.971H55.9927C62.6011 63.971 67.9776 58.6184 67.9776 52.0384V35.7058H54.5478C55.2401 37.1685 55.6294 38.8003 55.6294 40.521Z" fill="white" fill-opacity="0.8"/>
</g>
</g>
<defs>
<filter id="filter0_d_2641_3752" x="0" y="0" width="88" height="88" filterUnits="userSpaceOnUse" color-interpolation-filters="sRGB">
<feFlood flood-opacity="0" result="BackgroundImageFix"/>
<feColorMatrix in="SourceAlpha" type="matrix" values="0 0 0 0 0 0 0 0 0 0 0 0 0 0 0 0 0 0 127 0" result="hardAlpha"/>
<feOffset dy="4"/>
<feGaussianBlur stdDeviation="2"/>
<feComposite in2="hardAlpha" operator="out"/>
<feColorMatrix type="matrix" values="0 0 0 0 0 0 0 0 0 0 0 0 0 0 0 0 0 0 0.25 0"/>
<feBlend mode="normal" in2="BackgroundImageFix" result="effect1_dropShadow_2641_3752"/>
<feBlend mode="normal" in="SourceGraphic" in2="effect1_dropShadow_2641_3752" result="shape"/>
</filter>
<clipPath id="clip0_2641_3752">
<rect width="48" height="48" fill="white" transform="translate(20 16)"/>
</clipPath>
</defs>
</svg>
