<svg width="254" height="75" viewBox="0 0 254 75" fill="none" xmlns="http://www.w3.org/2000/svg">
<path fill-rule="evenodd" clip-rule="evenodd" d="M38.0312 58.0179L23.446 58.0674C19.9357 58.0674 18.0717 56.1167 18.0717 52.7976L18.1535 38.867C18.0717 36.1678 16.5647 35.005 14.0688 35.005H3.46819C1.5107 35.005 -0.000133514 36.8672 -0.000133514 38.867V53.0898C-0.000133514 54.9335 1.14086 56.8734 3.83802 56.9518C3.83802 56.9518 9.84094 57.1065 13.4632 57.1065C17.0855 57.1065 19.3159 58.0674 19.3159 61.9004C19.3159 65.7334 19.2731 69.5153 19.2731 71.4567C19.2731 73.3981 21.2699 75 23.3233 75H50.7261C54.9341 74.3403 54.9341 71.4567 54.9341 68.8069V23.3128C54.9341 20.538 54.9341 18.2852 50.8494 18.2852L40.1138 18.1305C37.1115 18.1305 35.7405 15.2429 35.7405 12.4041C35.7405 12.4041 35.7405 5.92126 35.9074 2.84773C36.0743 -0.225796 34.2796 0.00388295 32.2262 0.00388295H3.75161C1.17794 0.00388295 0.321365 1.28006 0.321365 3.71332V12.1388C0.321365 14.572 1.17794 15.8482 3.75161 15.8482L29.3913 15.7709C32.9025 15.7709 38.0942 20.4025 38.0942 23.7215L38.0627 26.9411L38.0312 58.0179ZM39.5878 3.15174V11.4924C39.5878 13.2122 41.1274 14.6085 43.0237 14.6085H51.4982C53.3945 14.6085 54.9341 13.2122 54.9341 11.4924V3.15174C54.9341 1.43193 53.3945 0.035582 51.4982 0.035582H43.0237C41.1274 0.035582 39.5878 1.43193 39.5878 3.15174Z" fill="white"/>
<path d="M0.355438 71.8838V63.6598C0.355438 61.94 1.89505 60.5436 3.79136 60.5436H12.1425C14.0388 60.5436 15.5785 61.94 15.5785 63.6598V71.8838C15.5785 73.6037 14.0388 75 12.1425 75H3.79136C1.89505 75 0.355438 73.6037 0.355438 71.8838Z" fill="white"/>
<path fill-rule="evenodd" clip-rule="evenodd" d="M98.379 25.4327L87.545 25.4753C86.104 25.4753 84.9341 24.7389 84.9341 23.3993V17.076C84.9341 15.7364 86.104 15 87.545 15H99.7868C100.937 15 102.262 15.8819 102.262 16.9507C102.262 18.0195 102.283 24.19 102.283 24.19C102.283 25.7529 103.35 28.0518 105.032 28.0518L109.115 28.137C110.758 28.137 112.092 29.3773 112.092 30.9049V57.8176C112.092 59.3451 111.102 60 109.459 60H103.956C102.313 60 101.323 59.3451 101.323 57.8176L101.369 29.6699C101.369 27.8425 100.345 25.4327 98.379 25.4327Z" fill="white"/>
<path fill-rule="evenodd" clip-rule="evenodd" d="M123.934 17.7969C123.934 16.0739 123.277 15.1134 122.299 15.1134H106.243C105.265 15.1134 104.683 16.0739 104.683 17.7969V23.027C104.683 24.75 105.265 25.8222 106.243 25.8222H122.299C123.277 25.8222 123.934 24.75 123.934 23.027V17.7969Z" fill="white"/>
<path fill-rule="evenodd" clip-rule="evenodd" d="M169.149 38.4218C167.495 39.5159 168.332 40.2369 171.443 43.5078C173.437 45.6048 172.79 50.1599 172.934 53.4552C172.929 55.0132 172.934 56.48 172.892 57.9913C172.87 59.1059 172.662 59.9995 170.837 59.9995C168.925 60 165.07 60 163.417 60C162.037 59.9995 161.55 59.4901 161.55 57.5398V54.6167C161.55 50.0821 159.915 48.498 158.252 48.498C153.525 48.498 150.229 48.498 145.409 48.498V57.9559C145.409 58.498 145.168 59.018 144.739 59.4015C144.311 59.7849 143.729 60 143.123 60H136.22C135.613 60 135.033 59.7849 134.604 59.4015C134.175 59.018 133.934 58.498 133.934 57.9559V39.5553C133.934 39.0103 134.178 38.4878 134.61 38.1039C135.043 37.7199 135.629 37.5068 136.239 37.5112L144.751 37.5618C144.751 37.5618 152.793 37.5161 155.259 37.5161C158.896 37.5161 162.115 35.4468 162.115 32.1934C162.115 28.695 159.178 25.7651 155.267 25.7651H136.22C135.613 25.7651 135.033 25.55 134.604 25.1665C134.175 24.7831 133.934 24.2631 133.934 23.721V17.0441C133.934 16.502 134.175 15.982 134.604 15.5985C135.033 15.2151 135.613 15 136.22 15L154.577 15C158.769 15 162.225 15.546 164.945 16.638C168.305 18.0001 170.801 19.2646 171.976 22.2465C172.346 23.3366 172.7 24.7914 172.864 26.1839C172.903 26.6533 172.941 31.6684 172.923 32.1591C172.719 37.5112 170.525 37.5112 169.149 38.4218Z" fill="white"/>
<path d="M182.934 17.6565C182.934 16.1893 183.742 15 185.487 15C187.282 15 190.736 15 192.53 15C194.276 15 195.084 16.1893 195.084 17.6565C195.084 25.6876 195.084 49.3124 195.084 57.3435C195.084 58.8107 194.276 60 192.53 60C190.736 60 187.282 60 185.487 60C183.742 60 182.934 58.8107 182.934 57.3435C182.934 49.3124 182.934 25.6876 182.934 17.6565Z" fill="white"/>
<path fill-rule="evenodd" clip-rule="evenodd" d="M243.047 60.3934C241.585 60.3561 241.279 59.738 240.25 58.6375C236.919 54.4201 228.535 44.1528 228.535 44.1528C226.867 42.1428 226.911 42.2038 228.45 40.4289L231.845 36.3659C232.776 35.3139 233.308 36.2561 234.212 37.4026L252.547 57.6995C253.519 58.9325 253.223 60.4721 251.54 60.4294C249.922 60.3881 244.601 60.4327 243.047 60.3934Z" fill="white"/>
<path fill-rule="evenodd" clip-rule="evenodd" d="M227.474 45.2007C227.736 45.5882 227.722 46.1047 227.437 46.476C225.423 49.1085 218.616 59.3041 218.616 59.3041C218.211 59.829 217.555 60.1346 216.861 60.122L208.482 60C206.99 59.9722 206.805 58.2021 207.768 56.8475L219.081 39.4872C219.559 38.8152 219.546 37.9393 219.048 37.2805L205.753 18.085C204.951 17.0258 204.679 14.9999 206.029 14.9999H215.353C216.052 14.9999 216.483 15.3222 216.875 15.8602L226.06 29.6844C226.896 30.8302 228.747 30.8213 229.567 29.6611L238.862 15.883C239.252 15.3323 239.913 14.9999 240.623 14.9999H248.919C250.455 14.9999 250.565 16.7295 249.523 18.0933L239.343 33.4182C239.342 33.42 237.853 35.393 237.04 36.4697C236.769 36.8296 236.01 37.086 235.701 36.7608C233.544 34.4757 232.471 32.3745 231.125 33.7099C229.877 35.216 226.912 39.0568 225.653 40.561C224.439 41.7999 226.333 43.587 227.474 45.2007Z" fill="white"/>
</svg>
