<svg width="461" height="440" viewBox="0 0 461 440" fill="none" xmlns="http://www.w3.org/2000/svg">
<g filter="url(#filter0_d_2788_4774)">
<ellipse cx="60" cy="371" rx="60" ry="60" fill="white"/>
<path d="M76.8848 373.636C79.1318 370.158 80.5176 366.28 80.4973 362.077C80.472 355.652 77.1027 349.61 70.4578 347.47C65.8953 345.998 60.9249 346.816 57.0642 352.359C53.2034 346.816 48.2331 345.998 43.6706 347.47C37.0257 349.613 33.6564 355.655 33.6311 362.079C33.5703 374.857 46.5205 384.633 57.0642 389.307C61.4519 387.362 66.2601 384.532 70.3691 380.973" stroke="#8A2BE2" stroke-width="3.94741" stroke-linecap="square"/>
<path d="M66.5433 366.271C64.5926 369.622 61.122 372.333 57.1118 372.262C53.099 372.333 49.6284 369.622 47.6777 366.271" stroke="#8A2BE2" stroke-width="3.94741" stroke-linecap="square"/>
</g>
<g filter="url(#filter1_d_2788_4774)">
<circle cx="395" cy="56" r="55" fill="white"/>
<path d="M389.448 60.0098L400.752 48.7063" stroke="#8A2BE2" stroke-width="3.62903" stroke-linecap="square" stroke-linejoin="round"/>
<path d="M400.584 59.8511H400.604" stroke="#8A2BE2" stroke-width="3.62903" stroke-linecap="square" stroke-linejoin="round"/>
<path d="M389.592 48.8543H389.61" stroke="#8A2BE2" stroke-width="3.62903" stroke-linecap="square" stroke-linejoin="round"/>
<path d="M377.39 61.333C376.193 58.7287 374.364 56.4099 372 54.6165C377.1 50.7519 379.714 44.4345 378.843 38.097C385.183 38.9684 391.498 36.3516 395.365 31.2517C399.232 36.3516 405.547 38.9684 411.887 38.097C411.45 41.267 411.887 44.4295 413.069 47.2838" stroke="#8A2BE2" stroke-width="3.62903" stroke-linecap="square"/>
<path d="M418.729 54.6165C413.629 58.4836 411.015 64.7985 411.886 71.1385C405.546 70.2671 399.231 72.8814 395.364 77.9813C391.497 72.8814 385.182 70.2671 378.842 71.1385" stroke="#8A2BE2" stroke-width="3.62903" stroke-linecap="square"/>
</g>
<defs>
<filter id="filter0_d_2788_4774" x="0" y="310" width="131" height="130" filterUnits="userSpaceOnUse" color-interpolation-filters="sRGB">
<feFlood flood-opacity="0" result="BackgroundImageFix"/>
<feColorMatrix in="SourceAlpha" type="matrix" values="0 0 0 0 0 0 0 0 0 0 0 0 0 0 0 0 0 0 127 0" result="hardAlpha"/>
<feOffset dx="6" dy="4"/>
<feGaussianBlur stdDeviation="2.5"/>
<feComposite in2="hardAlpha" operator="out"/>
<feColorMatrix type="matrix" values="0 0 0 0 0 0 0 0 0 0 0 0 0 0 0 0 0 0 0.15 0"/>
<feBlend mode="normal" in2="BackgroundImageFix" result="effect1_dropShadow_2788_4774"/>
<feBlend mode="normal" in="SourceGraphic" in2="effect1_dropShadow_2788_4774" result="shape"/>
</filter>
<filter id="filter1_d_2788_4774" x="340" y="0" width="121" height="120" filterUnits="userSpaceOnUse" color-interpolation-filters="sRGB">
<feFlood flood-opacity="0" result="BackgroundImageFix"/>
<feColorMatrix in="SourceAlpha" type="matrix" values="0 0 0 0 0 0 0 0 0 0 0 0 0 0 0 0 0 0 127 0" result="hardAlpha"/>
<feOffset dx="6" dy="4"/>
<feGaussianBlur stdDeviation="2.5"/>
<feComposite in2="hardAlpha" operator="out"/>
<feColorMatrix type="matrix" values="0 0 0 0 0 0 0 0 0 0 0 0 0 0 0 0 0 0 0.15 0"/>
<feBlend mode="normal" in2="BackgroundImageFix" result="effect1_dropShadow_2788_4774"/>
<feBlend mode="normal" in="SourceGraphic" in2="effect1_dropShadow_2788_4774" result="shape"/>
</filter>
</defs>
</svg>
