<svg width="23" height="22" viewBox="0 0 23 22" fill="none" xmlns="http://www.w3.org/2000/svg">
<path d="M11.045 18.3063L5.66085 21.1447C5.21523 21.3482 4.67371 21.3017 4.26007 21.0188C4.06366 20.8788 3.91134 20.6857 3.82106 20.462C3.73079 20.2384 3.70631 19.9936 3.75051 19.7565L4.76962 13.7678L0.42196 9.54321C0.247864 9.36883 0.125673 9.14949 0.0690344 8.90967C0.0123954 8.66986 0.0235385 8.41902 0.101219 8.18518C0.1789 7.95133 0.32006 7.74368 0.508933 7.58542C0.697806 7.42717 0.926955 7.32453 1.17079 7.28898L7.174 6.42197L9.8816 0.984489C10.0889 0.542749 10.55 0.258911 11.0596 0.258911C11.5372 0.258911 12.0157 0.542749 12.2385 0.984489L14.9452 6.42197L20.9493 7.28898C21.1891 7.33075 21.4132 7.43625 21.5981 7.59442C21.783 7.75259 21.922 7.9576 22.0004 8.18796C22.1593 8.6607 22.0004 9.18091 21.6817 9.52771L17.2866 13.7833L18.3376 19.741C18.4171 20.2138 18.2098 20.734 17.8116 21.0023C17.616 21.1517 17.3822 21.2428 17.1371 21.2651C16.892 21.2874 16.6456 21.2399 16.4263 21.1283L11.0441 18.3228L11.045 18.3063Z" fill="black"/>
</svg>
