<svg width="24" height="24" viewBox="0 0 24 24" fill="none" xmlns="http://www.w3.org/2000/svg">
<g clip-path="url(#clip0_1125_5193)">
<path fill-rule="evenodd" clip-rule="evenodd" d="M1.1746 6.69477V6.71511L10.9728 11.1834H10.9823C11.2735 11.319 11.5909 11.3892 11.9122 11.3892C12.2335 11.3892 12.5509 11.319 12.8422 11.1834H12.8524L22.6506 6.71511V6.69477C23.0204 6.57271 23.2754 6.23269 23.2878 5.84326C23.2817 5.65161 23.2163 5.46657 23.1006 5.31367C22.9849 5.16076 22.8247 5.04752 22.6419 4.98956L12.8575 0.505317H12.8393C12.5486 0.369633 12.2316 0.299316 11.9108 0.299316C11.5899 0.299316 11.273 0.369633 10.9823 0.505317H10.9641L1.18259 4.98956C0.999821 5.04752 0.839534 5.16076 0.723845 5.31367C0.608155 5.46657 0.542765 5.65161 0.536694 5.84326C0.543157 6.0334 0.607781 6.21699 0.721849 6.36925C0.835917 6.52151 0.993941 6.63513 1.1746 6.69477ZM22.6388 11.0694L20.7237 10.1903C17.723 11.5642 13.6209 13.4343 13.5715 13.451C12.5049 13.8752 11.3164 13.8752 10.2498 13.451C10.2033 13.4358 6.10845 11.5678 3.10926 10.1925L1.18246 11.0694C0.996733 11.1213 0.832983 11.2323 0.716039 11.3856C0.599095 11.5389 0.535337 11.7262 0.534434 11.919C0.53353 12.1118 0.59553 12.2997 0.711031 12.4541C0.826533 12.6085 0.989235 12.721 1.17447 12.7746V12.7928L10.9727 17.264H10.9821C11.2734 17.3995 11.5908 17.4698 11.9121 17.4698C12.2334 17.4698 12.5508 17.3995 12.8421 17.264H12.8523L22.6505 12.7928V12.7746C22.8359 12.7219 22.9992 12.6101 23.1154 12.4563C23.2316 12.3024 23.2945 12.1148 23.2945 11.922C23.2945 11.7292 23.2316 11.5416 23.1154 11.3878C22.9992 11.2339 22.8359 11.1221 22.6505 11.0694H22.6388ZM20.7236 16.2736L22.6388 17.152H22.6504C22.8355 17.2055 22.9983 17.3176 23.1141 17.4716C23.2299 17.6256 23.2925 17.813 23.2925 18.0057C23.2925 18.1984 23.2299 18.3858 23.1141 18.5398C22.9983 18.6938 22.8355 18.8059 22.6504 18.8594V18.8783L12.8522 23.3465H12.842C12.5508 23.4821 12.2334 23.5524 11.9121 23.5524C11.5908 23.5524 11.2734 23.4821 10.9821 23.3465H10.9726L1.17443 18.8776V18.8594C0.989563 18.8051 0.827361 18.6922 0.712267 18.5376C0.597173 18.3831 0.535424 18.1954 0.536326 18.0027C0.537227 17.81 0.600732 17.6229 0.717267 17.4694C0.833803 17.316 0.997055 17.2046 1.18242 17.152L3.10922 16.2758C6.10841 17.6504 10.2032 19.5191 10.2497 19.5336C11.316 19.9599 12.5053 19.9599 13.5715 19.5336C13.6209 19.5191 17.723 17.649 20.7236 16.2736Z" fill="black"/>
</g>
<defs>
<clipPath id="clip0_1125_5193">
<rect width="23.2495" height="23.2495" fill="white" transform="translate(0.285889 0.299805)"/>
</clipPath>
</defs>
</svg>
