<svg width="133" height="132" viewBox="0 0 133 132" fill="none" xmlns="http://www.w3.org/2000/svg">
<g clip-path="url(#clip0_982_206)">
<path d="M122.149 31.0478C117.958 32.9015 113.514 34.119 108.963 34.6598C113.76 31.7912 117.35 27.2766 119.064 21.9572C114.563 24.6361 109.628 26.5135 104.484 27.529C101.029 23.8323 96.4495 21.3807 91.4574 20.5552C86.4653 19.7297 81.3403 20.5766 76.8791 22.9643C72.418 25.352 68.8707 29.1467 66.7887 33.7584C64.7067 38.3701 64.2067 43.5405 65.3663 48.4658C56.238 48.0082 47.3079 45.6361 39.1558 41.5033C31.0037 37.3705 23.8119 31.5695 18.0473 24.4769C16.0068 27.9816 14.9346 31.9657 14.9403 36.0212C14.9403 43.9809 18.9915 51.0129 25.1507 55.1299C21.5057 55.0152 17.941 54.0308 14.7537 52.259V52.5444C14.7548 57.8456 16.5892 62.9832 19.9458 67.0863C23.3025 71.1893 27.9749 74.0052 33.1707 75.0566C29.7871 75.9735 26.2393 76.1087 22.7957 75.4518C24.2606 80.0149 27.1159 84.0055 30.9617 86.865C34.8076 89.7245 39.4514 91.3097 44.2429 91.3987C39.4807 95.1388 34.0281 97.9036 28.1967 99.535C22.3652 101.166 16.2695 101.632 10.2578 100.906C20.752 107.655 32.9682 111.238 45.4451 111.227C87.6754 111.227 110.769 76.2423 110.769 45.9022C110.769 44.9141 110.742 43.915 110.698 42.9379C115.193 39.6891 119.073 35.6645 122.155 31.0532L122.149 31.0478Z" fill="black"/>
</g>
<defs>
<clipPath id="clip0_982_206">
<rect width="131.747" height="131.747" fill="white" transform="translate(0.493164)"/>
</clipPath>
</defs>
</svg>
