<svg width="46" height="45" viewBox="0 0 46 45" fill="none" xmlns="http://www.w3.org/2000/svg">
<g clip-path="url(#clip0_1255_223)">
<path opacity="0.3" d="M22.9999 39.375C27.4757 39.3748 31.7681 37.5965 34.9327 34.4315C38.0974 31.2665 39.8752 26.9739 39.8749 22.4981C39.8747 18.0223 38.0964 13.73 34.9314 10.5653C31.7664 7.40063 27.4738 5.62287 22.998 5.62312C20.7819 5.62325 18.5874 6.05988 16.54 6.90809C14.4925 7.75629 12.6322 8.99947 11.0652 10.5666C7.90056 13.7317 6.1228 18.0242 6.12305 22.5C6.1233 26.9758 7.90153 31.2681 11.0666 34.4328C14.2316 37.5975 18.5241 39.3752 22.9999 39.375Z" fill="#793592"/>
<path d="M29.6375 15.8625L26.975 26.475L16.3625 29.1375L19.025 18.525L29.6375 15.8625Z" fill="#793592"/>
</g>
<defs>
<clipPath id="clip0_1255_223">
<rect width="45" height="45" fill="white" transform="translate(0.5)"/>
</clipPath>
</defs>
</svg>
