<svg width="56" height="56" viewBox="0 0 56 56" fill="none" xmlns="http://www.w3.org/2000/svg">
<path d="M15.4 26.593C15.4 20.2324 15.4 17.052 17.367 15.0757C19.3364 13.0994 22.5027 13.0994 28.84 13.0994H35.56C41.895 13.0994 45.0637 13.0994 47.0307 15.0757C49 17.052 49 20.2324 49 26.593V37.8397C49 44.2004 49 47.3807 47.0307 49.357C45.0637 51.3334 41.895 51.3334 35.56 51.3334H28.84C22.5027 51.3334 19.3364 51.3334 17.367 49.357C15.4 47.3807 15.4 44.2004 15.4 37.8397V26.593Z" fill="white" fill-opacity="0.8"/>
<path opacity="0.5" d="M9.73467 7.40129C7 10.1336 7 14.5343 7 23.3333V28C7 36.799 7 41.1996 9.73467 43.932C11.1743 45.374 13.0783 46.0553 15.848 46.3773C15.4 44.4173 15.4 41.72 15.4 37.8373V26.593C15.4 20.2323 15.4 17.052 17.367 15.0756C19.3363 13.0993 22.5027 13.0993 28.84 13.0993H35.56C39.4147 13.0993 42.0933 13.0993 44.0487 13.5426C43.7267 10.759 43.0453 8.84796 41.5987 7.40129C38.8663 4.66663 34.4657 4.66663 25.6667 4.66663C16.8677 4.66663 12.467 4.66663 9.73467 7.40129Z" fill="white" fill-opacity="0.8"/>
</svg>
