<svg width="80" height="80" viewBox="0 0 80 80" fill="none" xmlns="http://www.w3.org/2000/svg">
<rect width="80" height="80" rx="16" fill="white" fill-opacity="0.3"/>
<path d="M64 40.147C64 26.8106 53.2553 16 40.003 16C26.7447 16.003 16 26.8107 16 40.15C16 52.1995 24.7769 62.1882 36.2475 64V47.1271H30.1582V40.15H36.2535V34.8256C36.2535 28.7754 39.838 25.4338 45.3183 25.4338C47.946 25.4338 50.6907 25.9048 50.6907 25.9048V31.844H47.664C44.6854 31.844 43.7555 33.7068 43.7555 35.6175V40.147H50.4087L49.3468 47.1241H43.7525V63.997C55.2231 62.1852 64 52.1965 64 40.147Z" fill="white" fill-opacity="0.8"/>
</svg>
