<svg width="634" height="126" viewBox="0 0 634 126" fill="none" xmlns="http://www.w3.org/2000/svg">
<g filter="url(#filter0_d_2580_4782)">
<rect x="4" width="626" height="118" rx="16" fill="white" fill-opacity="0.3" shape-rendering="crispEdges"/>
<path d="M27 59L43 75L59 59H27Z" fill="black"/>
<path d="M114.333 43.6666H83.6668C81.5585 43.6666 79.8527 45.3916 79.8527 47.5L79.8335 70.5C79.8335 72.6083 81.5585 74.3333 83.6668 74.3333H114.333C116.442 74.3333 118.167 72.6083 118.167 70.5V47.5C118.167 45.3916 116.442 43.6666 114.333 43.6666ZM114.333 51.3333L99.0002 60.9166L83.6668 51.3333V47.5L99.0002 57.0833L114.333 47.5V51.3333Z" fill="black"/>
<path d="M212 39C208.044 39 204.178 40.173 200.889 42.3706C197.6 44.5682 195.036 47.6918 193.522 51.3463C192.009 55.0009 191.613 59.0222 192.384 62.9018C193.156 66.7814 195.061 70.3451 197.858 73.1421C200.655 75.9392 204.219 77.844 208.098 78.6157C211.978 79.3874 215.999 78.9913 219.654 77.4776C223.308 75.9638 226.432 73.4004 228.629 70.1114C230.827 66.8224 232 62.9556 232 59C231.995 53.6973 229.886 48.6133 226.136 44.8637C222.387 41.1141 217.303 39.0053 212 39ZM223.878 54.426V55.718C223.878 55.8169 223.858 55.9148 223.82 56.0059C223.781 56.097 223.725 56.1795 223.654 56.2485C223.583 56.3174 223.499 56.3715 223.407 56.4075C223.315 56.4435 223.217 56.4607 223.118 56.458C221.006 56.3083 218.986 55.5373 217.312 54.242V63.698C217.312 64.7446 217.103 65.7806 216.698 66.7456C216.293 67.7105 215.699 68.585 214.952 69.318C214.198 70.0693 213.303 70.6631 212.317 71.0648C211.332 71.4665 210.276 71.6682 209.212 71.658C207.072 71.6543 205.018 70.8146 203.488 69.318C202.515 68.3368 201.814 67.1191 201.454 65.7848C201.094 64.4505 201.088 63.0455 201.436 61.708C201.754 60.424 202.396 59.244 203.302 58.282C203.978 57.4562 204.829 56.7918 205.795 56.3374C206.76 55.8831 207.815 55.6503 208.882 55.656H210.522V59.062C210.523 59.1609 210.502 59.2589 210.462 59.3493C210.422 59.4397 210.363 59.5205 210.289 59.5864C210.216 59.6523 210.129 59.7016 210.034 59.7312C209.94 59.7608 209.84 59.7699 209.742 59.758C208.79 59.472 207.764 59.5669 206.88 60.0226C205.996 60.4784 205.324 61.2594 205.005 62.2011C204.686 63.1428 204.745 64.1715 205.17 65.0705C205.595 65.9695 206.352 66.6684 207.282 67.02C207.822 67.33 208.426 67.512 209.046 67.554C209.526 67.574 210.006 67.514 210.462 67.37C211.224 67.1137 211.886 66.6259 212.357 65.9747C212.828 65.3235 213.083 64.5415 213.088 63.738V46.508C213.088 46.4135 213.106 46.32 213.142 46.2326C213.178 46.1453 213.231 46.0659 213.298 45.999C213.364 45.9321 213.444 45.8791 213.531 45.8428C213.618 45.8066 213.712 45.788 213.806 45.788H216.636C216.82 45.7877 216.997 45.8581 217.131 45.9847C217.264 46.1112 217.344 46.2842 217.354 46.468C217.458 47.3504 217.738 48.2028 218.178 48.9743C218.619 49.7458 219.211 50.4205 219.918 50.958C220.874 51.6758 222.01 52.1159 223.2 52.23C223.378 52.2452 223.545 52.3246 223.669 52.4533C223.794 52.5819 223.867 52.7513 223.876 52.93L223.878 54.426Z" fill="black"/>
<path d="M283.032 46.6605C282.741 46.5099 282.457 46.3449 282.183 46.166C281.385 45.6384 280.653 45.0168 280.003 44.3145C278.376 42.4534 277.769 40.5655 277.546 39.2449H277.554C277.368 38.1467 277.445 37.4375 277.458 37.4375H270.05V66.0782C270.05 66.4616 270.05 66.843 270.035 67.2187C270.035 67.2647 270.029 67.3068 270.027 67.3586C270.027 67.3778 270.027 67.4007 270.021 67.4218V67.4391C269.944 68.4665 269.615 69.459 269.063 70.3293C268.512 71.1996 267.755 71.921 266.859 72.4301C265.924 72.9617 264.867 73.2405 263.792 73.2389C260.342 73.2389 257.544 70.4253 257.544 66.9503C257.544 63.4735 260.342 60.6598 263.792 60.6598C264.446 60.6598 265.096 60.7633 265.717 60.9665L265.726 53.4225C263.84 53.1792 261.924 53.3295 260.099 53.8639C258.274 54.3983 256.58 55.3053 255.123 56.5275C253.846 57.6364 252.773 58.9596 251.951 60.4375C251.639 60.9761 250.458 63.1438 250.316 66.659C250.226 68.6523 250.826 70.7223 251.112 71.5753V71.5944C251.29 72.0966 251.988 73.8139 253.122 75.261C254.037 76.4225 255.118 77.4429 256.331 78.2893V78.2702L256.348 78.2893C259.932 80.7235 263.909 80.5644 263.909 80.5644C264.597 80.5357 266.903 80.5644 269.521 79.3243C272.425 77.9482 274.077 75.8992 274.077 75.8992C275.133 74.6747 275.973 73.2793 276.561 71.7727C277.232 70.0093 277.454 67.8972 277.454 67.0538V51.8566C277.544 51.9102 278.742 52.7018 278.742 52.7018C278.742 52.7018 280.467 53.8078 283.156 54.5265C285.085 55.0382 287.686 55.1475 287.686 55.1475V47.7932C286.775 47.8929 284.925 47.6054 283.03 46.6624" fill="black"/>
<path d="M328.417 62.0417H333.208L335.125 54.375H328.417V50.5417C328.417 48.5675 328.417 46.7083 332.25 46.7083H335.125V40.2683C334.5 40.1859 332.141 40 329.649 40C324.445 40 320.75 43.1759 320.75 49.0083V54.375H315V62.0417H320.75V78.3333H328.417V62.0417Z" fill="black"/>
<rect x="414" y="35" width="48" height="48" rx="8" fill="#D9D9D9"/>
<rect x="472.5" y="16.5" width="141" height="85" rx="4.5" stroke="#9747FF" stroke-dasharray="10 5"/>
<path d="M520.577 69.5899L524.497 65.6699C525.025 65.1485 525.693 64.7916 526.42 64.6425C527.147 64.4934 527.902 64.5585 528.592 64.83L533.37 66.7374C534.068 67.0207 534.666 67.5043 535.09 68.1271C535.513 68.75 535.743 69.4843 535.75 70.2374V78.9874C535.746 79.4998 535.638 80.0061 535.433 80.4757C535.228 80.9453 534.931 81.3687 534.558 81.7202C534.185 82.0717 533.745 82.3442 533.264 82.5211C532.783 82.6981 532.272 82.7759 531.76 82.7499C498.282 80.6674 491.527 52.3174 490.25 41.4674C490.191 40.9346 490.245 40.3953 490.409 39.8849C490.573 39.3746 490.843 38.9047 491.202 38.5063C491.561 38.1079 492 37.79 492.49 37.5735C492.981 37.3569 493.511 37.2467 494.047 37.2499H502.5C503.254 37.2522 503.99 37.48 504.614 37.9042C505.238 38.3283 505.721 38.9293 506 39.6299L507.907 44.4074C508.188 45.0953 508.259 45.8506 508.113 46.5789C507.967 47.3072 507.609 47.9762 507.085 48.5024L503.165 52.4225C503.165 52.4225 505.422 67.6999 520.577 69.5899Z" fill="white" fill-opacity="0.8"/>
<path d="M593.667 41.3334H556.333C553.767 41.3334 551.69 43.4334 551.69 46L551.667 74C551.667 76.5667 553.767 78.6667 556.333 78.6667H593.667C596.233 78.6667 598.333 76.5667 598.333 74V46C598.333 43.4334 596.233 41.3334 593.667 41.3334ZM593.667 50.6667L575 62.3334L556.333 50.6667V46L575 57.6667L593.667 46V50.6667Z" fill="white" fill-opacity="0.8"/>
</g>
<defs>
<filter id="filter0_d_2580_4782" x="0" y="0" width="634" height="126" filterUnits="userSpaceOnUse" color-interpolation-filters="sRGB">
<feFlood flood-opacity="0" result="BackgroundImageFix"/>
<feColorMatrix in="SourceAlpha" type="matrix" values="0 0 0 0 0 0 0 0 0 0 0 0 0 0 0 0 0 0 127 0" result="hardAlpha"/>
<feOffset dy="4"/>
<feGaussianBlur stdDeviation="2"/>
<feComposite in2="hardAlpha" operator="out"/>
<feColorMatrix type="matrix" values="0 0 0 0 0 0 0 0 0 0 0 0 0 0 0 0 0 0 0.25 0"/>
<feBlend mode="normal" in2="BackgroundImageFix" result="effect1_dropShadow_2580_4782"/>
<feBlend mode="normal" in="SourceGraphic" in2="effect1_dropShadow_2580_4782" result="shape"/>
</filter>
</defs>
</svg>
