<svg width="80" height="80" viewBox="0 0 80 80" fill="none" xmlns="http://www.w3.org/2000/svg">
<rect width="80" height="80" rx="16" fill="white" fill-opacity="0.3"/>
<g clip-path="url(#clip0_2680_4098)">
<path d="M44.9717 40.521C44.9717 37.9269 42.8514 35.8161 40.2455 35.8161C37.6398 35.8161 35.5196 37.927 35.5196 40.521C35.5196 43.1158 37.6398 45.2263 40.2455 45.2263C42.8514 45.2263 44.9717 43.1158 44.9717 40.521ZM51.9931 16.0289H28.0069C21.3984 16.0289 16.022 21.382 16.022 27.9616V31.2864H33.6578C35.5187 29.9665 37.7915 29.1869 40.2455 29.1869C42.6994 29.1869 44.9725 29.9665 46.8335 31.2864H63.978V27.9616C63.978 21.3819 58.6016 16.0289 51.9931 16.0289ZM56.8469 27.3778C56.8469 28.107 56.2478 28.7037 55.5152 28.7037H51.4007C50.6681 28.7037 50.069 28.107 50.069 27.3778V23.2809C50.069 22.5518 50.6681 21.9551 51.4007 21.9551H55.5152C56.2478 21.9551 56.8469 22.5517 56.8469 23.2809V27.3778ZM51.6299 40.521C51.6299 46.7713 46.5226 51.8554 40.2454 51.8554C33.9681 51.8554 28.8613 46.7713 28.8613 40.521C28.8613 38.8003 29.2505 37.1685 29.9428 35.7058H16.022V52.0384C16.022 58.6185 21.3984 63.971 28.0069 63.971H51.9932C58.6016 63.971 63.9781 58.6184 63.9781 52.0384V35.7058H50.5483C51.2406 37.1685 51.6299 38.8003 51.6299 40.521Z" fill="white" fill-opacity="0.8"/>
</g>
<defs>
<clipPath id="clip0_2680_4098">
<rect width="48" height="48" fill="white" transform="translate(16 16)"/>
</clipPath>
</defs>
</svg>
