<svg width="46" height="46" viewBox="0 0 46 46" fill="none" xmlns="http://www.w3.org/2000/svg">
<path d="M30.5774 32.5899L34.4974 28.6699C35.0253 28.1485 35.6933 27.7916 36.4203 27.6425C37.1472 27.4934 37.9017 27.5585 38.5924 27.83L43.3699 29.7374C44.0678 30.0207 44.6662 30.5043 45.0898 31.1271C45.5133 31.75 45.743 32.4843 45.7499 33.2374V41.9874C45.7458 42.4998 45.6381 43.0061 45.4332 43.4757C45.2284 43.9453 44.9306 44.3687 44.5578 44.7202C44.185 45.0717 43.745 45.3442 43.2641 45.5211C42.7833 45.6981 42.2716 45.7759 41.7599 45.7499C8.28237 43.6674 1.52737 15.3174 0.249868 4.46745C0.190566 3.93464 0.244749 3.39531 0.408852 2.88494C0.572956 2.37457 0.843261 1.90474 1.20199 1.50634C1.56071 1.10794 1.99972 0.790008 2.49014 0.573461C2.98056 0.356914 3.51128 0.246659 4.04737 0.249949H12.4999C13.2541 0.252182 13.9905 0.480017 14.6142 0.904151C15.2379 1.32828 15.7205 1.92932 15.9999 2.62995L17.9074 7.40745C18.1878 8.09532 18.2594 8.85057 18.1131 9.57887C17.9668 10.3072 17.6092 10.9762 17.0849 11.5024L13.1649 15.4225C13.1649 15.4225 15.4224 30.6999 30.5774 32.5899Z" fill="white" fill-opacity="0.8"/>
</svg>
