<svg width="80" height="80" viewBox="0 0 80 80" fill="none" xmlns="http://www.w3.org/2000/svg">
<rect width="80" height="80" rx="16" fill="white" fill-opacity="0.3"/>
<path d="M40 17.5C35.5499 17.5 31.1998 18.8196 27.4997 21.2919C23.7996 23.7643 20.9157 27.2783 19.2127 31.3896C17.5097 35.501 17.0642 40.025 17.9323 44.3895C18.8005 48.7541 20.9434 52.7632 24.0901 55.9099C27.2368 59.0566 31.2459 61.1995 35.6105 62.0677C39.975 62.9358 44.499 62.4903 48.6104 60.7873C52.7217 59.0843 56.2357 56.2004 58.7081 52.5003C61.1804 48.8002 62.5 44.4501 62.5 40C62.494 34.0345 60.1216 28.315 55.9033 24.0967C51.6851 19.8784 45.9656 17.506 40 17.5ZM53.3628 34.8542V36.3078C53.3628 36.419 53.3405 36.5291 53.2973 36.6316C53.2541 36.7341 53.1907 36.8269 53.111 36.9045C53.0313 36.9821 52.9369 37.043 52.8333 37.0835C52.7296 37.1239 52.619 37.1433 52.5078 37.1403C50.1322 36.9719 47.8596 36.1045 45.976 34.6473V45.2852C45.9757 46.4626 45.7408 47.6282 45.2849 48.7138C44.8291 49.7993 44.1614 50.7832 43.321 51.6077C42.4731 52.4529 41.4654 53.121 40.3568 53.5729C39.2482 54.0249 38.0607 54.2517 36.8635 54.2402C34.4559 54.236 32.1451 53.2914 30.424 51.6077C29.3291 50.5039 28.5405 49.134 28.1357 47.6329C27.731 46.1318 27.724 44.5511 28.1155 43.0465C28.4733 41.602 29.1955 40.2745 30.2148 39.1922C30.9749 38.2632 31.933 37.5158 33.0191 37.0046C34.1053 36.4935 35.2919 36.2316 36.4923 36.238H38.3373V40.0697C38.3381 40.181 38.3152 40.2912 38.27 40.3929C38.2249 40.4947 38.1586 40.5856 38.0756 40.6597C37.9926 40.7338 37.8947 40.7893 37.7885 40.8226C37.6823 40.8559 37.5702 40.8662 37.4598 40.8527C36.3885 40.531 35.2342 40.6377 34.2401 41.1504C33.246 41.6632 32.4898 42.5418 32.131 43.6012C31.7721 44.6606 31.8386 45.818 32.3164 46.8293C32.7942 47.8407 33.646 48.627 34.6923 49.0225C35.2998 49.3713 35.9793 49.576 36.6768 49.6233C37.2168 49.6458 37.7568 49.5782 38.2698 49.4162C39.1265 49.1279 39.8718 48.5791 40.4015 47.8465C40.9311 47.114 41.2187 46.2342 41.224 45.3303V25.9465C41.2237 25.8402 41.2444 25.735 41.2848 25.6367C41.3253 25.5384 41.3848 25.4491 41.4598 25.3739C41.5348 25.2986 41.624 25.2389 41.7221 25.1982C41.8203 25.1575 41.9255 25.1365 42.0318 25.1365H45.2155C45.4225 25.1362 45.6218 25.2154 45.7721 25.3578C45.9224 25.5001 46.0123 25.6948 46.0233 25.9015C46.1397 26.8942 46.4552 27.8531 46.9508 28.7211C47.4464 29.589 48.112 30.348 48.9078 30.9528C49.9835 31.7603 51.2611 32.2554 52.6 32.3837C52.8006 32.4009 52.9881 32.4901 53.1279 32.6349C53.2677 32.7797 53.3504 32.9702 53.3605 33.1713L53.3628 34.8542Z" fill="white" fill-opacity="0.8"/>
</svg>
